M48
; DRILL file {KiCad 5.1.7} date Sun Nov 29 13:06:53 2020
; FORMAT={-:-/ absolute / inch / decimal}
; #@! TF.CreationDate,2020-11-29T13:06:53+02:00
; #@! TF.GenerationSoftware,Kicad,Pcbnew,5.1.7
; #@! TF.FileFunction,Plated,1,2,PTH
FMAT,2
INCH
T1C0.0157
T2C0.0315
T3C0.0430
T4C0.0579
%
G90
G05
T1
X4.6894Y-3.525
X6.0129Y-3.1353
T2
X5.4687Y-2.1875
X5.6809Y-2.3996
X7.1941Y-2.3996
X7.4063Y-2.1875
X10.6316Y-2.3996
X10.8437Y-2.1875
X6.1563Y-2.0625
X6.3684Y-1.8504
X5.4687Y-2.0625
X5.6809Y-1.8504
X5.1316Y-2.3996
X5.3437Y-2.1875
X9.5937Y-2.1875
X9.8059Y-2.3996
X8.9063Y-2.0625
X9.1184Y-1.8504
X7.1941Y-1.8504
X7.4063Y-2.0625
X4.7813Y-2.0625
X4.9934Y-1.8504
X6.5066Y-2.3996
X6.7187Y-2.1875
X5.1316Y-1.8504
X5.3437Y-2.0625
X3.0691Y-2.3996
X3.2813Y-2.1875
X9.2566Y-2.3996
X9.4687Y-2.1875
X4.7813Y-2.1875
X4.9934Y-2.3996
X9.9441Y-2.3996
X10.1563Y-2.1875
X8.5691Y-2.3996
X8.7813Y-2.1875
X7.8816Y-1.8504
X8.0937Y-2.0625
X10.2813Y-2.0625
X10.4934Y-1.8504
X3.0691Y-1.8504
X3.2813Y-2.0625
X9.2566Y-1.8504
X9.4687Y-2.0625
X10.2813Y-2.1875
X10.4934Y-2.3996
X7.5313Y-2.1875
X7.7434Y-2.3996
X3.7566Y-2.3996
X3.9687Y-2.1875
X3.7566Y-1.8504
X3.9687Y-2.0625
X6.8437Y-2.0625
X7.0559Y-1.8504
X4.4441Y-2.3996
X4.6563Y-2.1875
X4.0937Y-2.1875
X4.3059Y-2.3996
X3.4063Y-2.1875
X3.6184Y-2.3996
X4.0937Y-2.0625
X4.3059Y-1.8504
X8.5691Y-1.8504
X8.7813Y-2.0625
X10.6316Y-1.8504
X10.8437Y-2.0625
X4.4441Y-1.8504
X4.6563Y-2.0625
X7.5313Y-2.0625
X7.7434Y-1.8504
X6.1563Y-2.1875
X6.3684Y-2.3996
X6.8437Y-2.1875
X7.0559Y-2.3996
X8.2187Y-2.0625
X8.4309Y-1.8504
X8.9063Y-2.1875
X9.1184Y-2.3996
X5.8191Y-1.8504
X6.0313Y-2.0625
X9.9441Y-1.8504
X10.1563Y-2.0625
X9.5937Y-2.0625
X9.8059Y-1.8504
X8.2187Y-2.1875
X8.4309Y-2.3996
X7.8816Y-2.3996
X8.0937Y-2.1875
X3.4063Y-2.0625
X3.6184Y-1.8504
X5.8191Y-2.3996
X6.0313Y-2.1875
X6.5066Y-1.8504
X6.7187Y-2.0625
T3
X1.7313Y-1.7937
X1.7313Y-2.3937
X1.8313Y-1.7937
X1.8313Y-2.3937
X1.9313Y-1.7937
X1.9313Y-2.3937
X2.0313Y-1.7937
X2.0313Y-2.3937
X2.1313Y-1.7937
X2.1313Y-2.3937
X2.2313Y-1.7937
X2.2313Y-2.3937
X2.3313Y-1.7937
X2.3313Y-2.3937
X2.4313Y-1.7937
X2.4313Y-2.3937
X2.5313Y-1.7937
X2.5313Y-2.3937
X2.6313Y-1.7937
X2.6313Y-2.3937
X2.7313Y-1.7937
X2.7313Y-2.3937
X2.8313Y-1.7937
X2.8313Y-2.3937
T4
X8.6937Y-3.525
X8.9437Y-3.425
X10.2875Y-2.775
X10.5375Y-2.675
X1.7563Y-5.025
X2.0063Y-4.925
X10.5687Y-4.275
X10.8187Y-4.175
X7.9437Y-3.525
X8.1937Y-3.425
X6.4437Y-3.525
X6.6937Y-3.425
X3.0687Y-4.275
X3.3187Y-4.175
X3.2563Y-2.775
X3.5063Y-2.675
X1.85Y-3.525
X2.1Y-3.425
X3.8187Y-4.275
X4.0687Y-4.175
X7.5687Y-4.275
X7.8187Y-4.175
X7.0063Y-2.775
X7.2563Y-2.675
X6.8187Y-4.275
X7.0687Y-4.175
X5.6937Y-3.525
X5.9437Y-3.425
X8.1313Y-5.025
X8.3813Y-4.925
X5.225Y-5.025
X5.475Y-4.925
X2.5063Y-5.025
X2.7563Y-4.925
X9.4437Y-3.525
X9.6937Y-3.425
X5.5063Y-2.775
X5.7563Y-2.675
X4.0063Y-2.775
X4.2563Y-2.675
X6.0687Y-4.275
X6.3187Y-4.175
X6.8187Y-5.025
X7.0687Y-4.925
X10.3813Y-3.525
X10.6313Y-3.425
X9.2563Y-2.775
X9.5063Y-2.675
X2.6937Y-3.525
X2.9437Y-3.425
X9.8187Y-4.275
X10.0687Y-4.175
X8.3187Y-4.275
X8.5687Y-4.175
X4.5687Y-4.275
X4.8187Y-4.175
X4.1937Y-3.525
X4.4437Y-3.425
X4.7563Y-2.775
X5.0063Y-2.675
X8.5063Y-2.775
X8.7563Y-2.675
X7.7563Y-2.775
X8.0063Y-2.675
X3.2563Y-5.025
X3.5063Y-4.925
X7.1937Y-3.525
X7.4437Y-3.425
X10.5687Y-5.025
X10.8187Y-4.925
X3.9125Y-5.025
X4.1625Y-4.925
X1.85Y-5.025
X2.1Y-4.925
X9.8187Y-5.025
X10.0687Y-4.925
X9.0687Y-5.025
X9.3187Y-4.925
X4.0063Y-5.025
X4.2563Y-4.925
X5.3187Y-4.275
X5.5687Y-4.175
X6.2563Y-2.775
X6.5063Y-2.675
X10.2875Y-5.025
X10.5375Y-4.925
X2.8813Y-5.025
X3.1313Y-4.925
X9.0687Y-5.025
X9.3187Y-4.925
X4.9437Y-3.525
X5.1937Y-3.425
X1.7563Y-2.775
X2.0063Y-2.675
X3.4437Y-3.525
X3.6937Y-3.425
X2.5063Y-2.775
X2.7563Y-2.675
X8.0375Y-5.025
X8.2875Y-4.925
X2.0375Y-4.275
X2.2875Y-4.175
X9.0687Y-4.275
X9.3187Y-4.175
T0
M30
