G04 #@! TF.GenerationSoftware,KiCad,Pcbnew,5.1.7*
G04 #@! TF.CreationDate,2020-11-29T13:06:50+02:00*
G04 #@! TF.ProjectId,PM THT Van,504d2054-4854-4205-9661-6e2e6b696361,rev?*
G04 #@! TF.SameCoordinates,Original*
G04 #@! TF.FileFunction,Soldermask,Bot*
G04 #@! TF.FilePolarity,Negative*
%FSLAX46Y46*%
G04 Gerber Fmt 4.6, Leading zero omitted, Abs format (unit mm)*
G04 Created by KiCad (PCBNEW 5.1.7) date 2020-11-29 13:06:50*
%MOMM*%
%LPD*%
G01*
G04 APERTURE LIST*
%ADD10C,2.250000*%
%ADD11C,3.987800*%
%ADD12C,1.750000*%
%ADD13C,3.048000*%
%ADD14C,0.100000*%
%ADD15C,1.752600*%
%ADD16R,1.752600X1.752600*%
G04 APERTURE END LIST*
D10*
G04 #@! TO.C,SW19*
X139065000Y-125095000D03*
D11*
X136525000Y-130175000D03*
D10*
X132715000Y-127635000D03*
D12*
X131445000Y-130175000D03*
X141605000Y-130175000D03*
D13*
X124618750Y-137160000D03*
X148431250Y-137160000D03*
D11*
X124618750Y-121920000D03*
X148431250Y-121920000D03*
G04 #@! TD*
D10*
G04 #@! TO.C,SW26*
X179546000Y-125095000D03*
D11*
X177006000Y-130175000D03*
D10*
X173196000Y-127635000D03*
D12*
X171926000Y-130175000D03*
X182086000Y-130175000D03*
D13*
X165099750Y-137160000D03*
X188912250Y-137160000D03*
D11*
X165099750Y-121920000D03*
X188912250Y-121920000D03*
G04 #@! TD*
D10*
G04 #@! TO.C,SW46*
X267652000Y-67945000D03*
D11*
X265112000Y-73025000D03*
D10*
X261302000Y-70485000D03*
D12*
X260032000Y-73025000D03*
X270192000Y-73025000D03*
G04 #@! TD*
D10*
G04 #@! TO.C,SW40*
X267652000Y-125095000D03*
D11*
X265112000Y-130175000D03*
D10*
X261302000Y-127635000D03*
D12*
X260032000Y-130175000D03*
X270192000Y-130175000D03*
G04 #@! TD*
D10*
G04 #@! TO.C,SW3*
X58102500Y-106045000D03*
D11*
X55562500Y-111125000D03*
D10*
X51752500Y-108585000D03*
D12*
X50482500Y-111125000D03*
X60642500Y-111125000D03*
G04 #@! TD*
D10*
G04 #@! TO.C,SW47*
X270034000Y-86995000D03*
D11*
X267494000Y-92075000D03*
D10*
X263684000Y-89535000D03*
D12*
X262414000Y-92075000D03*
X272574000Y-92075000D03*
G04 #@! TD*
D10*
G04 #@! TO.C,SW35*
X236696000Y-125095000D03*
D11*
X234156000Y-130175000D03*
D10*
X230346000Y-127635000D03*
D12*
X229076000Y-130175000D03*
X239236000Y-130175000D03*
G04 #@! TD*
D10*
G04 #@! TO.C,SW31*
X212884000Y-125095000D03*
D11*
X210344000Y-130175000D03*
D10*
X206534000Y-127635000D03*
D12*
X205264000Y-130175000D03*
X215424000Y-130175000D03*
G04 #@! TD*
D10*
G04 #@! TO.C,SW8*
X79533800Y-125095000D03*
D11*
X76993800Y-130175000D03*
D10*
X73183800Y-127635000D03*
D12*
X71913800Y-130175000D03*
X82073800Y-130175000D03*
G04 #@! TD*
D10*
G04 #@! TO.C,SW30*
X210502000Y-125095000D03*
D11*
X207962000Y-130175000D03*
D10*
X204152000Y-127635000D03*
D12*
X202882000Y-130175000D03*
X213042000Y-130175000D03*
G04 #@! TD*
D10*
G04 #@! TO.C,SW12*
X105728000Y-125095000D03*
D11*
X103188000Y-130175000D03*
D10*
X99378000Y-127635000D03*
D12*
X98108000Y-130175000D03*
X108268000Y-130175000D03*
G04 #@! TD*
D10*
G04 #@! TO.C,SW4*
X53340000Y-125095000D03*
D11*
X50800000Y-130175000D03*
D10*
X46990000Y-127635000D03*
D12*
X45720000Y-130175000D03*
X55880000Y-130175000D03*
G04 #@! TD*
D10*
G04 #@! TO.C,SW2*
X53340000Y-86995000D03*
D11*
X50800000Y-92075000D03*
D10*
X46990000Y-89535000D03*
D12*
X45720000Y-92075000D03*
X55880000Y-92075000D03*
G04 #@! TD*
D10*
G04 #@! TO.C,SW53*
X108109000Y-125095000D03*
D11*
X105569000Y-130175000D03*
D10*
X101759000Y-127635000D03*
D12*
X100489000Y-130175000D03*
X110649000Y-130175000D03*
G04 #@! TD*
D10*
G04 #@! TO.C,SW52*
X89058800Y-125095000D03*
D11*
X86518800Y-130175000D03*
D10*
X82708800Y-127635000D03*
D12*
X81438800Y-130175000D03*
X91598800Y-130175000D03*
G04 #@! TD*
D10*
G04 #@! TO.C,SW51*
X70008800Y-125095000D03*
D11*
X67468800Y-130175000D03*
D10*
X63658800Y-127635000D03*
D12*
X62388800Y-130175000D03*
X72548800Y-130175000D03*
G04 #@! TD*
D10*
G04 #@! TO.C,SW50*
X50958800Y-125095000D03*
D11*
X48418800Y-130175000D03*
D10*
X44608800Y-127635000D03*
D12*
X43338800Y-130175000D03*
X53498800Y-130175000D03*
G04 #@! TD*
D10*
G04 #@! TO.C,SW48*
X274796000Y-106045000D03*
D11*
X272256000Y-111125000D03*
D10*
X268446000Y-108585000D03*
D12*
X267176000Y-111125000D03*
X277336000Y-111125000D03*
G04 #@! TD*
D10*
G04 #@! TO.C,SW45*
X241459000Y-67945000D03*
D11*
X238919000Y-73025000D03*
D10*
X235109000Y-70485000D03*
D12*
X233839000Y-73025000D03*
X243999000Y-73025000D03*
G04 #@! TD*
D10*
G04 #@! TO.C,SW44*
X274796000Y-125095000D03*
D11*
X272256000Y-130175000D03*
D10*
X268446000Y-127635000D03*
D12*
X267176000Y-130175000D03*
X277336000Y-130175000D03*
G04 #@! TD*
D10*
G04 #@! TO.C,SW43*
X255746000Y-106045000D03*
D11*
X253206000Y-111125000D03*
D10*
X249396000Y-108585000D03*
D12*
X248126000Y-111125000D03*
X258286000Y-111125000D03*
G04 #@! TD*
D10*
G04 #@! TO.C,SW42*
X246221000Y-86995000D03*
D11*
X243681000Y-92075000D03*
D10*
X239871000Y-89535000D03*
D12*
X238601000Y-92075000D03*
X248761000Y-92075000D03*
G04 #@! TD*
D10*
G04 #@! TO.C,SW41*
X255746000Y-125095000D03*
D11*
X253206000Y-130175000D03*
D10*
X249396000Y-127635000D03*
D12*
X248126000Y-130175000D03*
X258286000Y-130175000D03*
G04 #@! TD*
D10*
G04 #@! TO.C,SW39*
X236696000Y-106045000D03*
D11*
X234156000Y-111125000D03*
D10*
X230346000Y-108585000D03*
D12*
X229076000Y-111125000D03*
X239236000Y-111125000D03*
G04 #@! TD*
D10*
G04 #@! TO.C,SW38*
X227171000Y-86995000D03*
D11*
X224631000Y-92075000D03*
D10*
X220821000Y-89535000D03*
D12*
X219551000Y-92075000D03*
X229711000Y-92075000D03*
G04 #@! TD*
D10*
G04 #@! TO.C,SW37*
X222409000Y-67945000D03*
D11*
X219869000Y-73025000D03*
D10*
X216059000Y-70485000D03*
D12*
X214789000Y-73025000D03*
X224949000Y-73025000D03*
G04 #@! TD*
D10*
G04 #@! TO.C,SW36*
X236696000Y-125095000D03*
D11*
X234156000Y-130175000D03*
D10*
X230346000Y-127635000D03*
D12*
X229076000Y-130175000D03*
X239236000Y-130175000D03*
G04 #@! TD*
D10*
G04 #@! TO.C,SW34*
X217646000Y-106045000D03*
D11*
X215106000Y-111125000D03*
D10*
X211296000Y-108585000D03*
D12*
X210026000Y-111125000D03*
X220186000Y-111125000D03*
G04 #@! TD*
D10*
G04 #@! TO.C,SW33*
X208121000Y-86995000D03*
D11*
X205581000Y-92075000D03*
D10*
X201771000Y-89535000D03*
D12*
X200501000Y-92075000D03*
X210661000Y-92075000D03*
G04 #@! TD*
D10*
G04 #@! TO.C,SW32*
X203359000Y-67945000D03*
D11*
X200819000Y-73025000D03*
D10*
X197009000Y-70485000D03*
D12*
X195739000Y-73025000D03*
X205899000Y-73025000D03*
G04 #@! TD*
D10*
G04 #@! TO.C,SW29*
X198596000Y-106045000D03*
D11*
X196056000Y-111125000D03*
D10*
X192246000Y-108585000D03*
D12*
X190976000Y-111125000D03*
X201136000Y-111125000D03*
G04 #@! TD*
D10*
G04 #@! TO.C,SW28*
X189071000Y-86995000D03*
D11*
X186531000Y-92075000D03*
D10*
X182721000Y-89535000D03*
D12*
X181451000Y-92075000D03*
X191611000Y-92075000D03*
G04 #@! TD*
D10*
G04 #@! TO.C,SW27*
X184309000Y-67945000D03*
D11*
X181769000Y-73025000D03*
D10*
X177959000Y-70485000D03*
D12*
X176689000Y-73025000D03*
X186849000Y-73025000D03*
G04 #@! TD*
D10*
G04 #@! TO.C,SW25*
X179546000Y-106045000D03*
D11*
X177006000Y-111125000D03*
D10*
X173196000Y-108585000D03*
D12*
X171926000Y-111125000D03*
X182086000Y-111125000D03*
G04 #@! TD*
D10*
G04 #@! TO.C,SW24*
X170021000Y-86995000D03*
D11*
X167481000Y-92075000D03*
D10*
X163671000Y-89535000D03*
D12*
X162401000Y-92075000D03*
X172561000Y-92075000D03*
G04 #@! TD*
D10*
G04 #@! TO.C,SW23*
X165259000Y-67945000D03*
D11*
X162719000Y-73025000D03*
D10*
X158909000Y-70485000D03*
D12*
X157639000Y-73025000D03*
X167799000Y-73025000D03*
G04 #@! TD*
D10*
G04 #@! TO.C,SW22*
X160496000Y-106045000D03*
D11*
X157956000Y-111125000D03*
D10*
X154146000Y-108585000D03*
D12*
X152876000Y-111125000D03*
X163036000Y-111125000D03*
G04 #@! TD*
D10*
G04 #@! TO.C,SW21*
X150971000Y-86995000D03*
D11*
X148431000Y-92075000D03*
D10*
X144621000Y-89535000D03*
D12*
X143351000Y-92075000D03*
X153511000Y-92075000D03*
G04 #@! TD*
D10*
G04 #@! TO.C,SW20*
X146209000Y-67945000D03*
D11*
X143669000Y-73025000D03*
D10*
X139859000Y-70485000D03*
D12*
X138589000Y-73025000D03*
X148749000Y-73025000D03*
G04 #@! TD*
D10*
G04 #@! TO.C,SW18*
X141446000Y-106045000D03*
D11*
X138906000Y-111125000D03*
D10*
X135096000Y-108585000D03*
D12*
X133826000Y-111125000D03*
X143986000Y-111125000D03*
G04 #@! TD*
D10*
G04 #@! TO.C,SW17*
X131921000Y-86995000D03*
D11*
X129381000Y-92075000D03*
D10*
X125571000Y-89535000D03*
D12*
X124301000Y-92075000D03*
X134461000Y-92075000D03*
G04 #@! TD*
D10*
G04 #@! TO.C,SW16*
X127159000Y-67945000D03*
D11*
X124619000Y-73025000D03*
D10*
X120809000Y-70485000D03*
D12*
X119539000Y-73025000D03*
X129699000Y-73025000D03*
G04 #@! TD*
D10*
G04 #@! TO.C,SW15*
X122396000Y-106045000D03*
D11*
X119856000Y-111125000D03*
D10*
X116046000Y-108585000D03*
D12*
X114776000Y-111125000D03*
X124936000Y-111125000D03*
G04 #@! TD*
D10*
G04 #@! TO.C,SW14*
X112871000Y-86995000D03*
D11*
X110331000Y-92075000D03*
D10*
X106521000Y-89535000D03*
D12*
X105251000Y-92075000D03*
X115411000Y-92075000D03*
G04 #@! TD*
D10*
G04 #@! TO.C,SW13*
X108109000Y-67945000D03*
D11*
X105569000Y-73025000D03*
D10*
X101759000Y-70485000D03*
D12*
X100489000Y-73025000D03*
X110649000Y-73025000D03*
G04 #@! TD*
D10*
G04 #@! TO.C,SW11*
X103346000Y-106045000D03*
D11*
X100806000Y-111125000D03*
D10*
X96996000Y-108585000D03*
D12*
X95726000Y-111125000D03*
X105886000Y-111125000D03*
G04 #@! TD*
D10*
G04 #@! TO.C,SW10*
X93821200Y-86995000D03*
D11*
X91281200Y-92075000D03*
D10*
X87471200Y-89535000D03*
D12*
X86201200Y-92075000D03*
X96361200Y-92075000D03*
G04 #@! TD*
D10*
G04 #@! TO.C,SW9*
X89058800Y-67945000D03*
D11*
X86518800Y-73025000D03*
D10*
X82708800Y-70485000D03*
D12*
X81438800Y-73025000D03*
X91598800Y-73025000D03*
G04 #@! TD*
D10*
G04 #@! TO.C,SW7*
X84296200Y-106045000D03*
D11*
X81756200Y-111125000D03*
D10*
X77946200Y-108585000D03*
D12*
X76676200Y-111125000D03*
X86836200Y-111125000D03*
G04 #@! TD*
D10*
G04 #@! TO.C,SW6*
X74771200Y-86995000D03*
D11*
X72231200Y-92075000D03*
D10*
X68421200Y-89535000D03*
D12*
X67151200Y-92075000D03*
X77311200Y-92075000D03*
G04 #@! TD*
D10*
G04 #@! TO.C,SW5*
X70008800Y-67945000D03*
D11*
X67468800Y-73025000D03*
D10*
X63658800Y-70485000D03*
D12*
X62388800Y-73025000D03*
X72548800Y-73025000D03*
G04 #@! TD*
D10*
G04 #@! TO.C,SW1*
X50958800Y-67945000D03*
D11*
X48418800Y-73025000D03*
D10*
X44608800Y-70485000D03*
D12*
X43338800Y-73025000D03*
X53498800Y-73025000D03*
G04 #@! TD*
G04 #@! TO.C,D46*
G36*
G01*
X270608531Y-47565031D02*
X270608531Y-47565031D01*
G75*
G02*
X269477161Y-47565031I-565685J565685D01*
G01*
X269477161Y-47565031D01*
G75*
G02*
X269477161Y-46433661I565685J565685D01*
G01*
X269477161Y-46433661D01*
G75*
G02*
X270608531Y-46433661I565685J-565685D01*
G01*
X270608531Y-46433661D01*
G75*
G02*
X270608531Y-47565031I-565685J-565685D01*
G01*
G37*
D14*
G36*
X276562371Y-52387500D02*
G01*
X275431000Y-53518871D01*
X274299629Y-52387500D01*
X275431000Y-51256129D01*
X276562371Y-52387500D01*
G37*
G04 #@! TD*
D15*
G04 #@! TO.C,U1*
X43973800Y-45561200D03*
X71913800Y-60801200D03*
X46513800Y-45561200D03*
X49053800Y-45561200D03*
X51593800Y-45561200D03*
X54133800Y-45561200D03*
X56673800Y-45561200D03*
X59213800Y-45561200D03*
X61753800Y-45561200D03*
X64293800Y-45561200D03*
X66833800Y-45561200D03*
X69373800Y-45561200D03*
X71913800Y-45561200D03*
X69373800Y-60801200D03*
X66833800Y-60801200D03*
X64293800Y-60801200D03*
X61753800Y-60801200D03*
X59213800Y-60801200D03*
X56673800Y-60801200D03*
X54133800Y-60801200D03*
X51593800Y-60801200D03*
X49053800Y-60801200D03*
X46513800Y-60801200D03*
D16*
X43973800Y-60801200D03*
G04 #@! TD*
G04 #@! TO.C,D45*
G36*
G01*
X270608531Y-60384969D02*
X270608531Y-60384969D01*
G75*
G02*
X270608531Y-61516339I-565685J-565685D01*
G01*
X270608531Y-61516339D01*
G75*
G02*
X269477161Y-61516339I-565685J565685D01*
G01*
X269477161Y-61516339D01*
G75*
G02*
X269477161Y-60384969I565685J565685D01*
G01*
X269477161Y-60384969D01*
G75*
G02*
X270608531Y-60384969I565685J-565685D01*
G01*
G37*
D14*
G36*
X275431000Y-54431129D02*
G01*
X276562371Y-55562500D01*
X275431000Y-56693871D01*
X274299629Y-55562500D01*
X275431000Y-54431129D01*
G37*
G04 #@! TD*
G04 #@! TO.C,D44*
G36*
G01*
X265966469Y-47565031D02*
X265966469Y-47565031D01*
G75*
G02*
X265966469Y-46433661I565685J565685D01*
G01*
X265966469Y-46433661D01*
G75*
G02*
X267097839Y-46433661I565685J-565685D01*
G01*
X267097839Y-46433661D01*
G75*
G02*
X267097839Y-47565031I-565685J-565685D01*
G01*
X267097839Y-47565031D01*
G75*
G02*
X265966469Y-47565031I-565685J565685D01*
G01*
G37*
G36*
X261144000Y-53518871D02*
G01*
X260012629Y-52387500D01*
X261144000Y-51256129D01*
X262275371Y-52387500D01*
X261144000Y-53518871D01*
G37*
G04 #@! TD*
G04 #@! TO.C,D43*
G36*
G01*
X253146531Y-60384969D02*
X253146531Y-60384969D01*
G75*
G02*
X253146531Y-61516339I-565685J-565685D01*
G01*
X253146531Y-61516339D01*
G75*
G02*
X252015161Y-61516339I-565685J565685D01*
G01*
X252015161Y-61516339D01*
G75*
G02*
X252015161Y-60384969I565685J565685D01*
G01*
X252015161Y-60384969D01*
G75*
G02*
X253146531Y-60384969I565685J-565685D01*
G01*
G37*
G36*
X257969000Y-54431129D02*
G01*
X259100371Y-55562500D01*
X257969000Y-56693871D01*
X256837629Y-55562500D01*
X257969000Y-54431129D01*
G37*
G04 #@! TD*
G04 #@! TO.C,D42*
G36*
G01*
X265966469Y-60384969D02*
X265966469Y-60384969D01*
G75*
G02*
X267097839Y-60384969I565685J-565685D01*
G01*
X267097839Y-60384969D01*
G75*
G02*
X267097839Y-61516339I-565685J-565685D01*
G01*
X267097839Y-61516339D01*
G75*
G02*
X265966469Y-61516339I-565685J565685D01*
G01*
X265966469Y-61516339D01*
G75*
G02*
X265966469Y-60384969I565685J565685D01*
G01*
G37*
G36*
X260012629Y-55562500D02*
G01*
X261144000Y-54431129D01*
X262275371Y-55562500D01*
X261144000Y-56693871D01*
X260012629Y-55562500D01*
G37*
G04 #@! TD*
G04 #@! TO.C,D41*
G36*
G01*
X253146531Y-47565031D02*
X253146531Y-47565031D01*
G75*
G02*
X252015161Y-47565031I-565685J565685D01*
G01*
X252015161Y-47565031D01*
G75*
G02*
X252015161Y-46433661I565685J565685D01*
G01*
X252015161Y-46433661D01*
G75*
G02*
X253146531Y-46433661I565685J-565685D01*
G01*
X253146531Y-46433661D01*
G75*
G02*
X253146531Y-47565031I-565685J-565685D01*
G01*
G37*
G36*
X259100371Y-52387500D02*
G01*
X257969000Y-53518871D01*
X256837629Y-52387500D01*
X257969000Y-51256129D01*
X259100371Y-52387500D01*
G37*
G04 #@! TD*
G04 #@! TO.C,D40*
G36*
G01*
X248503469Y-47565031D02*
X248503469Y-47565031D01*
G75*
G02*
X248503469Y-46433661I565685J565685D01*
G01*
X248503469Y-46433661D01*
G75*
G02*
X249634839Y-46433661I565685J-565685D01*
G01*
X249634839Y-46433661D01*
G75*
G02*
X249634839Y-47565031I-565685J-565685D01*
G01*
X249634839Y-47565031D01*
G75*
G02*
X248503469Y-47565031I-565685J565685D01*
G01*
G37*
G36*
X243681000Y-53518871D02*
G01*
X242549629Y-52387500D01*
X243681000Y-51256129D01*
X244812371Y-52387500D01*
X243681000Y-53518871D01*
G37*
G04 #@! TD*
G04 #@! TO.C,D39*
G36*
G01*
X235683531Y-60384969D02*
X235683531Y-60384969D01*
G75*
G02*
X235683531Y-61516339I-565685J-565685D01*
G01*
X235683531Y-61516339D01*
G75*
G02*
X234552161Y-61516339I-565685J565685D01*
G01*
X234552161Y-61516339D01*
G75*
G02*
X234552161Y-60384969I565685J565685D01*
G01*
X234552161Y-60384969D01*
G75*
G02*
X235683531Y-60384969I565685J-565685D01*
G01*
G37*
G36*
X240506000Y-54431129D02*
G01*
X241637371Y-55562500D01*
X240506000Y-56693871D01*
X239374629Y-55562500D01*
X240506000Y-54431129D01*
G37*
G04 #@! TD*
G04 #@! TO.C,D38*
G36*
G01*
X248503469Y-60384969D02*
X248503469Y-60384969D01*
G75*
G02*
X249634839Y-60384969I565685J-565685D01*
G01*
X249634839Y-60384969D01*
G75*
G02*
X249634839Y-61516339I-565685J-565685D01*
G01*
X249634839Y-61516339D01*
G75*
G02*
X248503469Y-61516339I-565685J565685D01*
G01*
X248503469Y-61516339D01*
G75*
G02*
X248503469Y-60384969I565685J565685D01*
G01*
G37*
G36*
X242549629Y-55562500D02*
G01*
X243681000Y-54431129D01*
X244812371Y-55562500D01*
X243681000Y-56693871D01*
X242549629Y-55562500D01*
G37*
G04 #@! TD*
G04 #@! TO.C,D37*
G36*
G01*
X235683531Y-47565031D02*
X235683531Y-47565031D01*
G75*
G02*
X234552161Y-47565031I-565685J565685D01*
G01*
X234552161Y-47565031D01*
G75*
G02*
X234552161Y-46433661I565685J565685D01*
G01*
X234552161Y-46433661D01*
G75*
G02*
X235683531Y-46433661I565685J-565685D01*
G01*
X235683531Y-46433661D01*
G75*
G02*
X235683531Y-47565031I-565685J-565685D01*
G01*
G37*
G36*
X241637371Y-52387500D02*
G01*
X240506000Y-53518871D01*
X239374629Y-52387500D01*
X240506000Y-51256129D01*
X241637371Y-52387500D01*
G37*
G04 #@! TD*
G04 #@! TO.C,D36*
G36*
G01*
X231041469Y-47565031D02*
X231041469Y-47565031D01*
G75*
G02*
X231041469Y-46433661I565685J565685D01*
G01*
X231041469Y-46433661D01*
G75*
G02*
X232172839Y-46433661I565685J-565685D01*
G01*
X232172839Y-46433661D01*
G75*
G02*
X232172839Y-47565031I-565685J-565685D01*
G01*
X232172839Y-47565031D01*
G75*
G02*
X231041469Y-47565031I-565685J565685D01*
G01*
G37*
G36*
X226219000Y-53518871D02*
G01*
X225087629Y-52387500D01*
X226219000Y-51256129D01*
X227350371Y-52387500D01*
X226219000Y-53518871D01*
G37*
G04 #@! TD*
G04 #@! TO.C,D35*
G36*
G01*
X218221531Y-60384969D02*
X218221531Y-60384969D01*
G75*
G02*
X218221531Y-61516339I-565685J-565685D01*
G01*
X218221531Y-61516339D01*
G75*
G02*
X217090161Y-61516339I-565685J565685D01*
G01*
X217090161Y-61516339D01*
G75*
G02*
X217090161Y-60384969I565685J565685D01*
G01*
X217090161Y-60384969D01*
G75*
G02*
X218221531Y-60384969I565685J-565685D01*
G01*
G37*
G36*
X223044000Y-54431129D02*
G01*
X224175371Y-55562500D01*
X223044000Y-56693871D01*
X221912629Y-55562500D01*
X223044000Y-54431129D01*
G37*
G04 #@! TD*
G04 #@! TO.C,D34*
G36*
G01*
X231041469Y-60384969D02*
X231041469Y-60384969D01*
G75*
G02*
X232172839Y-60384969I565685J-565685D01*
G01*
X232172839Y-60384969D01*
G75*
G02*
X232172839Y-61516339I-565685J-565685D01*
G01*
X232172839Y-61516339D01*
G75*
G02*
X231041469Y-61516339I-565685J565685D01*
G01*
X231041469Y-61516339D01*
G75*
G02*
X231041469Y-60384969I565685J565685D01*
G01*
G37*
G36*
X225087629Y-55562500D02*
G01*
X226219000Y-54431129D01*
X227350371Y-55562500D01*
X226219000Y-56693871D01*
X225087629Y-55562500D01*
G37*
G04 #@! TD*
G04 #@! TO.C,D33*
G36*
G01*
X218221531Y-47565031D02*
X218221531Y-47565031D01*
G75*
G02*
X217090161Y-47565031I-565685J565685D01*
G01*
X217090161Y-47565031D01*
G75*
G02*
X217090161Y-46433661I565685J565685D01*
G01*
X217090161Y-46433661D01*
G75*
G02*
X218221531Y-46433661I565685J-565685D01*
G01*
X218221531Y-46433661D01*
G75*
G02*
X218221531Y-47565031I-565685J-565685D01*
G01*
G37*
G36*
X224175371Y-52387500D02*
G01*
X223044000Y-53518871D01*
X221912629Y-52387500D01*
X223044000Y-51256129D01*
X224175371Y-52387500D01*
G37*
G04 #@! TD*
G04 #@! TO.C,D32*
G36*
G01*
X213578469Y-47565031D02*
X213578469Y-47565031D01*
G75*
G02*
X213578469Y-46433661I565685J565685D01*
G01*
X213578469Y-46433661D01*
G75*
G02*
X214709839Y-46433661I565685J-565685D01*
G01*
X214709839Y-46433661D01*
G75*
G02*
X214709839Y-47565031I-565685J-565685D01*
G01*
X214709839Y-47565031D01*
G75*
G02*
X213578469Y-47565031I-565685J565685D01*
G01*
G37*
G36*
X208756000Y-53518871D02*
G01*
X207624629Y-52387500D01*
X208756000Y-51256129D01*
X209887371Y-52387500D01*
X208756000Y-53518871D01*
G37*
G04 #@! TD*
G04 #@! TO.C,D31*
G36*
G01*
X200758531Y-60384969D02*
X200758531Y-60384969D01*
G75*
G02*
X200758531Y-61516339I-565685J-565685D01*
G01*
X200758531Y-61516339D01*
G75*
G02*
X199627161Y-61516339I-565685J565685D01*
G01*
X199627161Y-61516339D01*
G75*
G02*
X199627161Y-60384969I565685J565685D01*
G01*
X199627161Y-60384969D01*
G75*
G02*
X200758531Y-60384969I565685J-565685D01*
G01*
G37*
G36*
X205581000Y-54431129D02*
G01*
X206712371Y-55562500D01*
X205581000Y-56693871D01*
X204449629Y-55562500D01*
X205581000Y-54431129D01*
G37*
G04 #@! TD*
G04 #@! TO.C,D30*
G36*
G01*
X213578469Y-60384969D02*
X213578469Y-60384969D01*
G75*
G02*
X214709839Y-60384969I565685J-565685D01*
G01*
X214709839Y-60384969D01*
G75*
G02*
X214709839Y-61516339I-565685J-565685D01*
G01*
X214709839Y-61516339D01*
G75*
G02*
X213578469Y-61516339I-565685J565685D01*
G01*
X213578469Y-61516339D01*
G75*
G02*
X213578469Y-60384969I565685J565685D01*
G01*
G37*
G36*
X207624629Y-55562500D02*
G01*
X208756000Y-54431129D01*
X209887371Y-55562500D01*
X208756000Y-56693871D01*
X207624629Y-55562500D01*
G37*
G04 #@! TD*
G04 #@! TO.C,D29*
G36*
G01*
X200758531Y-47565031D02*
X200758531Y-47565031D01*
G75*
G02*
X199627161Y-47565031I-565685J565685D01*
G01*
X199627161Y-47565031D01*
G75*
G02*
X199627161Y-46433661I565685J565685D01*
G01*
X199627161Y-46433661D01*
G75*
G02*
X200758531Y-46433661I565685J-565685D01*
G01*
X200758531Y-46433661D01*
G75*
G02*
X200758531Y-47565031I-565685J-565685D01*
G01*
G37*
G36*
X206712371Y-52387500D02*
G01*
X205581000Y-53518871D01*
X204449629Y-52387500D01*
X205581000Y-51256129D01*
X206712371Y-52387500D01*
G37*
G04 #@! TD*
G04 #@! TO.C,D28*
G36*
G01*
X196116469Y-47565031D02*
X196116469Y-47565031D01*
G75*
G02*
X196116469Y-46433661I565685J565685D01*
G01*
X196116469Y-46433661D01*
G75*
G02*
X197247839Y-46433661I565685J-565685D01*
G01*
X197247839Y-46433661D01*
G75*
G02*
X197247839Y-47565031I-565685J-565685D01*
G01*
X197247839Y-47565031D01*
G75*
G02*
X196116469Y-47565031I-565685J565685D01*
G01*
G37*
G36*
X191294000Y-53518871D02*
G01*
X190162629Y-52387500D01*
X191294000Y-51256129D01*
X192425371Y-52387500D01*
X191294000Y-53518871D01*
G37*
G04 #@! TD*
G04 #@! TO.C,D27*
G36*
G01*
X183296531Y-60384969D02*
X183296531Y-60384969D01*
G75*
G02*
X183296531Y-61516339I-565685J-565685D01*
G01*
X183296531Y-61516339D01*
G75*
G02*
X182165161Y-61516339I-565685J565685D01*
G01*
X182165161Y-61516339D01*
G75*
G02*
X182165161Y-60384969I565685J565685D01*
G01*
X182165161Y-60384969D01*
G75*
G02*
X183296531Y-60384969I565685J-565685D01*
G01*
G37*
G36*
X188119000Y-54431129D02*
G01*
X189250371Y-55562500D01*
X188119000Y-56693871D01*
X186987629Y-55562500D01*
X188119000Y-54431129D01*
G37*
G04 #@! TD*
G04 #@! TO.C,D26*
G36*
G01*
X196116469Y-60384969D02*
X196116469Y-60384969D01*
G75*
G02*
X197247839Y-60384969I565685J-565685D01*
G01*
X197247839Y-60384969D01*
G75*
G02*
X197247839Y-61516339I-565685J-565685D01*
G01*
X197247839Y-61516339D01*
G75*
G02*
X196116469Y-61516339I-565685J565685D01*
G01*
X196116469Y-61516339D01*
G75*
G02*
X196116469Y-60384969I565685J565685D01*
G01*
G37*
G36*
X190162629Y-55562500D02*
G01*
X191294000Y-54431129D01*
X192425371Y-55562500D01*
X191294000Y-56693871D01*
X190162629Y-55562500D01*
G37*
G04 #@! TD*
G04 #@! TO.C,D25*
G36*
G01*
X183296531Y-47565031D02*
X183296531Y-47565031D01*
G75*
G02*
X182165161Y-47565031I-565685J565685D01*
G01*
X182165161Y-47565031D01*
G75*
G02*
X182165161Y-46433661I565685J565685D01*
G01*
X182165161Y-46433661D01*
G75*
G02*
X183296531Y-46433661I565685J-565685D01*
G01*
X183296531Y-46433661D01*
G75*
G02*
X183296531Y-47565031I-565685J-565685D01*
G01*
G37*
G36*
X189250371Y-52387500D02*
G01*
X188119000Y-53518871D01*
X186987629Y-52387500D01*
X188119000Y-51256129D01*
X189250371Y-52387500D01*
G37*
G04 #@! TD*
G04 #@! TO.C,D24*
G36*
G01*
X178653469Y-47565031D02*
X178653469Y-47565031D01*
G75*
G02*
X178653469Y-46433661I565685J565685D01*
G01*
X178653469Y-46433661D01*
G75*
G02*
X179784839Y-46433661I565685J-565685D01*
G01*
X179784839Y-46433661D01*
G75*
G02*
X179784839Y-47565031I-565685J-565685D01*
G01*
X179784839Y-47565031D01*
G75*
G02*
X178653469Y-47565031I-565685J565685D01*
G01*
G37*
G36*
X173831000Y-53518871D02*
G01*
X172699629Y-52387500D01*
X173831000Y-51256129D01*
X174962371Y-52387500D01*
X173831000Y-53518871D01*
G37*
G04 #@! TD*
G04 #@! TO.C,D23*
G36*
G01*
X165833531Y-60384969D02*
X165833531Y-60384969D01*
G75*
G02*
X165833531Y-61516339I-565685J-565685D01*
G01*
X165833531Y-61516339D01*
G75*
G02*
X164702161Y-61516339I-565685J565685D01*
G01*
X164702161Y-61516339D01*
G75*
G02*
X164702161Y-60384969I565685J565685D01*
G01*
X164702161Y-60384969D01*
G75*
G02*
X165833531Y-60384969I565685J-565685D01*
G01*
G37*
G36*
X170656000Y-54431129D02*
G01*
X171787371Y-55562500D01*
X170656000Y-56693871D01*
X169524629Y-55562500D01*
X170656000Y-54431129D01*
G37*
G04 #@! TD*
G04 #@! TO.C,D22*
G36*
G01*
X178653469Y-60384969D02*
X178653469Y-60384969D01*
G75*
G02*
X179784839Y-60384969I565685J-565685D01*
G01*
X179784839Y-60384969D01*
G75*
G02*
X179784839Y-61516339I-565685J-565685D01*
G01*
X179784839Y-61516339D01*
G75*
G02*
X178653469Y-61516339I-565685J565685D01*
G01*
X178653469Y-61516339D01*
G75*
G02*
X178653469Y-60384969I565685J565685D01*
G01*
G37*
G36*
X172699629Y-55562500D02*
G01*
X173831000Y-54431129D01*
X174962371Y-55562500D01*
X173831000Y-56693871D01*
X172699629Y-55562500D01*
G37*
G04 #@! TD*
G04 #@! TO.C,D21*
G36*
G01*
X165833531Y-47565031D02*
X165833531Y-47565031D01*
G75*
G02*
X164702161Y-47565031I-565685J565685D01*
G01*
X164702161Y-47565031D01*
G75*
G02*
X164702161Y-46433661I565685J565685D01*
G01*
X164702161Y-46433661D01*
G75*
G02*
X165833531Y-46433661I565685J-565685D01*
G01*
X165833531Y-46433661D01*
G75*
G02*
X165833531Y-47565031I-565685J-565685D01*
G01*
G37*
G36*
X171787371Y-52387500D02*
G01*
X170656000Y-53518871D01*
X169524629Y-52387500D01*
X170656000Y-51256129D01*
X171787371Y-52387500D01*
G37*
G04 #@! TD*
G04 #@! TO.C,D20*
G36*
G01*
X161191469Y-47565031D02*
X161191469Y-47565031D01*
G75*
G02*
X161191469Y-46433661I565685J565685D01*
G01*
X161191469Y-46433661D01*
G75*
G02*
X162322839Y-46433661I565685J-565685D01*
G01*
X162322839Y-46433661D01*
G75*
G02*
X162322839Y-47565031I-565685J-565685D01*
G01*
X162322839Y-47565031D01*
G75*
G02*
X161191469Y-47565031I-565685J565685D01*
G01*
G37*
G36*
X156369000Y-53518871D02*
G01*
X155237629Y-52387500D01*
X156369000Y-51256129D01*
X157500371Y-52387500D01*
X156369000Y-53518871D01*
G37*
G04 #@! TD*
G04 #@! TO.C,D19*
G36*
G01*
X148371531Y-60384969D02*
X148371531Y-60384969D01*
G75*
G02*
X148371531Y-61516339I-565685J-565685D01*
G01*
X148371531Y-61516339D01*
G75*
G02*
X147240161Y-61516339I-565685J565685D01*
G01*
X147240161Y-61516339D01*
G75*
G02*
X147240161Y-60384969I565685J565685D01*
G01*
X147240161Y-60384969D01*
G75*
G02*
X148371531Y-60384969I565685J-565685D01*
G01*
G37*
G36*
X153194000Y-54431129D02*
G01*
X154325371Y-55562500D01*
X153194000Y-56693871D01*
X152062629Y-55562500D01*
X153194000Y-54431129D01*
G37*
G04 #@! TD*
G04 #@! TO.C,D18*
G36*
G01*
X161191469Y-60384969D02*
X161191469Y-60384969D01*
G75*
G02*
X162322839Y-60384969I565685J-565685D01*
G01*
X162322839Y-60384969D01*
G75*
G02*
X162322839Y-61516339I-565685J-565685D01*
G01*
X162322839Y-61516339D01*
G75*
G02*
X161191469Y-61516339I-565685J565685D01*
G01*
X161191469Y-61516339D01*
G75*
G02*
X161191469Y-60384969I565685J565685D01*
G01*
G37*
G36*
X155237629Y-55562500D02*
G01*
X156369000Y-54431129D01*
X157500371Y-55562500D01*
X156369000Y-56693871D01*
X155237629Y-55562500D01*
G37*
G04 #@! TD*
G04 #@! TO.C,D17*
G36*
G01*
X148371531Y-47565031D02*
X148371531Y-47565031D01*
G75*
G02*
X147240161Y-47565031I-565685J565685D01*
G01*
X147240161Y-47565031D01*
G75*
G02*
X147240161Y-46433661I565685J565685D01*
G01*
X147240161Y-46433661D01*
G75*
G02*
X148371531Y-46433661I565685J-565685D01*
G01*
X148371531Y-46433661D01*
G75*
G02*
X148371531Y-47565031I-565685J-565685D01*
G01*
G37*
G36*
X154325371Y-52387500D02*
G01*
X153194000Y-53518871D01*
X152062629Y-52387500D01*
X153194000Y-51256129D01*
X154325371Y-52387500D01*
G37*
G04 #@! TD*
G04 #@! TO.C,D16*
G36*
G01*
X143728469Y-47565031D02*
X143728469Y-47565031D01*
G75*
G02*
X143728469Y-46433661I565685J565685D01*
G01*
X143728469Y-46433661D01*
G75*
G02*
X144859839Y-46433661I565685J-565685D01*
G01*
X144859839Y-46433661D01*
G75*
G02*
X144859839Y-47565031I-565685J-565685D01*
G01*
X144859839Y-47565031D01*
G75*
G02*
X143728469Y-47565031I-565685J565685D01*
G01*
G37*
G36*
X138906000Y-53518871D02*
G01*
X137774629Y-52387500D01*
X138906000Y-51256129D01*
X140037371Y-52387500D01*
X138906000Y-53518871D01*
G37*
G04 #@! TD*
G04 #@! TO.C,D15*
G36*
G01*
X130908531Y-60384969D02*
X130908531Y-60384969D01*
G75*
G02*
X130908531Y-61516339I-565685J-565685D01*
G01*
X130908531Y-61516339D01*
G75*
G02*
X129777161Y-61516339I-565685J565685D01*
G01*
X129777161Y-61516339D01*
G75*
G02*
X129777161Y-60384969I565685J565685D01*
G01*
X129777161Y-60384969D01*
G75*
G02*
X130908531Y-60384969I565685J-565685D01*
G01*
G37*
G36*
X135731000Y-54431129D02*
G01*
X136862371Y-55562500D01*
X135731000Y-56693871D01*
X134599629Y-55562500D01*
X135731000Y-54431129D01*
G37*
G04 #@! TD*
G04 #@! TO.C,D14*
G36*
G01*
X143728469Y-60384969D02*
X143728469Y-60384969D01*
G75*
G02*
X144859839Y-60384969I565685J-565685D01*
G01*
X144859839Y-60384969D01*
G75*
G02*
X144859839Y-61516339I-565685J-565685D01*
G01*
X144859839Y-61516339D01*
G75*
G02*
X143728469Y-61516339I-565685J565685D01*
G01*
X143728469Y-61516339D01*
G75*
G02*
X143728469Y-60384969I565685J565685D01*
G01*
G37*
G36*
X137774629Y-55562500D02*
G01*
X138906000Y-54431129D01*
X140037371Y-55562500D01*
X138906000Y-56693871D01*
X137774629Y-55562500D01*
G37*
G04 #@! TD*
G04 #@! TO.C,D13*
G36*
G01*
X130908531Y-47565031D02*
X130908531Y-47565031D01*
G75*
G02*
X129777161Y-47565031I-565685J565685D01*
G01*
X129777161Y-47565031D01*
G75*
G02*
X129777161Y-46433661I565685J565685D01*
G01*
X129777161Y-46433661D01*
G75*
G02*
X130908531Y-46433661I565685J-565685D01*
G01*
X130908531Y-46433661D01*
G75*
G02*
X130908531Y-47565031I-565685J-565685D01*
G01*
G37*
G36*
X136862371Y-52387500D02*
G01*
X135731000Y-53518871D01*
X134599629Y-52387500D01*
X135731000Y-51256129D01*
X136862371Y-52387500D01*
G37*
G04 #@! TD*
G04 #@! TO.C,D12*
G36*
G01*
X126266469Y-47565031D02*
X126266469Y-47565031D01*
G75*
G02*
X126266469Y-46433661I565685J565685D01*
G01*
X126266469Y-46433661D01*
G75*
G02*
X127397839Y-46433661I565685J-565685D01*
G01*
X127397839Y-46433661D01*
G75*
G02*
X127397839Y-47565031I-565685J-565685D01*
G01*
X127397839Y-47565031D01*
G75*
G02*
X126266469Y-47565031I-565685J565685D01*
G01*
G37*
G36*
X121444000Y-53518871D02*
G01*
X120312629Y-52387500D01*
X121444000Y-51256129D01*
X122575371Y-52387500D01*
X121444000Y-53518871D01*
G37*
G04 #@! TD*
G04 #@! TO.C,D11*
G36*
G01*
X113446531Y-60384969D02*
X113446531Y-60384969D01*
G75*
G02*
X113446531Y-61516339I-565685J-565685D01*
G01*
X113446531Y-61516339D01*
G75*
G02*
X112315161Y-61516339I-565685J565685D01*
G01*
X112315161Y-61516339D01*
G75*
G02*
X112315161Y-60384969I565685J565685D01*
G01*
X112315161Y-60384969D01*
G75*
G02*
X113446531Y-60384969I565685J-565685D01*
G01*
G37*
G36*
X118269000Y-54431129D02*
G01*
X119400371Y-55562500D01*
X118269000Y-56693871D01*
X117137629Y-55562500D01*
X118269000Y-54431129D01*
G37*
G04 #@! TD*
G04 #@! TO.C,D10*
G36*
G01*
X126266469Y-60384969D02*
X126266469Y-60384969D01*
G75*
G02*
X127397839Y-60384969I565685J-565685D01*
G01*
X127397839Y-60384969D01*
G75*
G02*
X127397839Y-61516339I-565685J-565685D01*
G01*
X127397839Y-61516339D01*
G75*
G02*
X126266469Y-61516339I-565685J565685D01*
G01*
X126266469Y-61516339D01*
G75*
G02*
X126266469Y-60384969I565685J565685D01*
G01*
G37*
G36*
X120312629Y-55562500D02*
G01*
X121444000Y-54431129D01*
X122575371Y-55562500D01*
X121444000Y-56693871D01*
X120312629Y-55562500D01*
G37*
G04 #@! TD*
G04 #@! TO.C,D9*
G36*
G01*
X113446531Y-47565031D02*
X113446531Y-47565031D01*
G75*
G02*
X112315161Y-47565031I-565685J565685D01*
G01*
X112315161Y-47565031D01*
G75*
G02*
X112315161Y-46433661I565685J565685D01*
G01*
X112315161Y-46433661D01*
G75*
G02*
X113446531Y-46433661I565685J-565685D01*
G01*
X113446531Y-46433661D01*
G75*
G02*
X113446531Y-47565031I-565685J-565685D01*
G01*
G37*
G36*
X119400371Y-52387500D02*
G01*
X118269000Y-53518871D01*
X117137629Y-52387500D01*
X118269000Y-51256129D01*
X119400371Y-52387500D01*
G37*
G04 #@! TD*
G04 #@! TO.C,D8*
G36*
G01*
X108803469Y-47565031D02*
X108803469Y-47565031D01*
G75*
G02*
X108803469Y-46433661I565685J565685D01*
G01*
X108803469Y-46433661D01*
G75*
G02*
X109934839Y-46433661I565685J-565685D01*
G01*
X109934839Y-46433661D01*
G75*
G02*
X109934839Y-47565031I-565685J-565685D01*
G01*
X109934839Y-47565031D01*
G75*
G02*
X108803469Y-47565031I-565685J565685D01*
G01*
G37*
G36*
X103981000Y-53518871D02*
G01*
X102849629Y-52387500D01*
X103981000Y-51256129D01*
X105112371Y-52387500D01*
X103981000Y-53518871D01*
G37*
G04 #@! TD*
G04 #@! TO.C,D7*
G36*
G01*
X95983531Y-60384969D02*
X95983531Y-60384969D01*
G75*
G02*
X95983531Y-61516339I-565685J-565685D01*
G01*
X95983531Y-61516339D01*
G75*
G02*
X94852161Y-61516339I-565685J565685D01*
G01*
X94852161Y-61516339D01*
G75*
G02*
X94852161Y-60384969I565685J565685D01*
G01*
X94852161Y-60384969D01*
G75*
G02*
X95983531Y-60384969I565685J-565685D01*
G01*
G37*
G36*
X100806000Y-54431129D02*
G01*
X101937371Y-55562500D01*
X100806000Y-56693871D01*
X99674629Y-55562500D01*
X100806000Y-54431129D01*
G37*
G04 #@! TD*
G04 #@! TO.C,D6*
G36*
G01*
X108803469Y-60384969D02*
X108803469Y-60384969D01*
G75*
G02*
X109934839Y-60384969I565685J-565685D01*
G01*
X109934839Y-60384969D01*
G75*
G02*
X109934839Y-61516339I-565685J-565685D01*
G01*
X109934839Y-61516339D01*
G75*
G02*
X108803469Y-61516339I-565685J565685D01*
G01*
X108803469Y-61516339D01*
G75*
G02*
X108803469Y-60384969I565685J565685D01*
G01*
G37*
G36*
X102849629Y-55562500D02*
G01*
X103981000Y-54431129D01*
X105112371Y-55562500D01*
X103981000Y-56693871D01*
X102849629Y-55562500D01*
G37*
G04 #@! TD*
G04 #@! TO.C,D5*
G36*
G01*
X95983531Y-47565031D02*
X95983531Y-47565031D01*
G75*
G02*
X94852161Y-47565031I-565685J565685D01*
G01*
X94852161Y-47565031D01*
G75*
G02*
X94852161Y-46433661I565685J565685D01*
G01*
X94852161Y-46433661D01*
G75*
G02*
X95983531Y-46433661I565685J-565685D01*
G01*
X95983531Y-46433661D01*
G75*
G02*
X95983531Y-47565031I-565685J-565685D01*
G01*
G37*
G36*
X101937371Y-52387500D02*
G01*
X100806000Y-53518871D01*
X99674629Y-52387500D01*
X100806000Y-51256129D01*
X101937371Y-52387500D01*
G37*
G04 #@! TD*
G04 #@! TO.C,D4*
G36*
G01*
X91341269Y-47565031D02*
X91341269Y-47565031D01*
G75*
G02*
X91341269Y-46433661I565685J565685D01*
G01*
X91341269Y-46433661D01*
G75*
G02*
X92472639Y-46433661I565685J-565685D01*
G01*
X92472639Y-46433661D01*
G75*
G02*
X92472639Y-47565031I-565685J-565685D01*
G01*
X92472639Y-47565031D01*
G75*
G02*
X91341269Y-47565031I-565685J565685D01*
G01*
G37*
G36*
X86518800Y-53518871D02*
G01*
X85387429Y-52387500D01*
X86518800Y-51256129D01*
X87650171Y-52387500D01*
X86518800Y-53518871D01*
G37*
G04 #@! TD*
G04 #@! TO.C,D3*
G36*
G01*
X78521331Y-60384969D02*
X78521331Y-60384969D01*
G75*
G02*
X78521331Y-61516339I-565685J-565685D01*
G01*
X78521331Y-61516339D01*
G75*
G02*
X77389961Y-61516339I-565685J565685D01*
G01*
X77389961Y-61516339D01*
G75*
G02*
X77389961Y-60384969I565685J565685D01*
G01*
X77389961Y-60384969D01*
G75*
G02*
X78521331Y-60384969I565685J-565685D01*
G01*
G37*
G36*
X83343800Y-54431129D02*
G01*
X84475171Y-55562500D01*
X83343800Y-56693871D01*
X82212429Y-55562500D01*
X83343800Y-54431129D01*
G37*
G04 #@! TD*
G04 #@! TO.C,D2*
G36*
G01*
X91341269Y-60384969D02*
X91341269Y-60384969D01*
G75*
G02*
X92472639Y-60384969I565685J-565685D01*
G01*
X92472639Y-60384969D01*
G75*
G02*
X92472639Y-61516339I-565685J-565685D01*
G01*
X92472639Y-61516339D01*
G75*
G02*
X91341269Y-61516339I-565685J565685D01*
G01*
X91341269Y-61516339D01*
G75*
G02*
X91341269Y-60384969I565685J565685D01*
G01*
G37*
G36*
X85387429Y-55562500D02*
G01*
X86518800Y-54431129D01*
X87650171Y-55562500D01*
X86518800Y-56693871D01*
X85387429Y-55562500D01*
G37*
G04 #@! TD*
G04 #@! TO.C,D1*
G36*
G01*
X78521331Y-47565031D02*
X78521331Y-47565031D01*
G75*
G02*
X77389961Y-47565031I-565685J565685D01*
G01*
X77389961Y-47565031D01*
G75*
G02*
X77389961Y-46433661I565685J565685D01*
G01*
X77389961Y-46433661D01*
G75*
G02*
X78521331Y-46433661I565685J-565685D01*
G01*
X78521331Y-46433661D01*
G75*
G02*
X78521331Y-47565031I-565685J-565685D01*
G01*
G37*
G36*
X84475171Y-52387500D02*
G01*
X83343800Y-53518871D01*
X82212429Y-52387500D01*
X83343800Y-51256129D01*
X84475171Y-52387500D01*
G37*
G04 #@! TD*
M02*
