G04 #@! TF.GenerationSoftware,KiCad,Pcbnew,5.1.7*
G04 #@! TF.CreationDate,2020-11-29T13:06:50+02:00*
G04 #@! TF.ProjectId,PM THT Van,504d2054-4854-4205-9661-6e2e6b696361,rev?*
G04 #@! TF.SameCoordinates,Original*
G04 #@! TF.FileFunction,Legend,Bot*
G04 #@! TF.FilePolarity,Positive*
%FSLAX46Y46*%
G04 Gerber Fmt 4.6, Leading zero omitted, Abs format (unit mm)*
G04 Created by KiCad (PCBNEW 5.1.7) date 2020-11-29 13:06:50*
%MOMM*%
%LPD*%
G01*
G04 APERTURE LIST*
%ADD10C,0.381000*%
%ADD11C,0.150000*%
%ADD12C,2.250000*%
%ADD13C,3.987800*%
%ADD14C,1.750000*%
%ADD15C,3.048000*%
%ADD16C,0.100000*%
%ADD17C,1.752600*%
%ADD18R,1.752600X1.752600*%
G04 APERTURE END LIST*
D10*
G04 #@! TO.C,U1*
X45243800Y-59531200D02*
X45243800Y-62071200D01*
X42703800Y-59531200D02*
X45243800Y-59531200D01*
D11*
G36*
X48992830Y-47136565D02*
G01*
X49092830Y-47136565D01*
X49092830Y-47036565D01*
X48992830Y-47036565D01*
X48992830Y-47136565D01*
G37*
X48992830Y-47136565D02*
X49092830Y-47136565D01*
X49092830Y-47036565D01*
X48992830Y-47036565D01*
X48992830Y-47136565D01*
G36*
X48592830Y-46936565D02*
G01*
X49392830Y-46936565D01*
X49392830Y-46836565D01*
X48592830Y-46836565D01*
X48592830Y-46936565D01*
G37*
X48592830Y-46936565D02*
X49392830Y-46936565D01*
X49392830Y-46836565D01*
X48592830Y-46836565D01*
X48592830Y-46936565D01*
G36*
X49192830Y-47336565D02*
G01*
X49392830Y-47336565D01*
X49392830Y-47236565D01*
X49192830Y-47236565D01*
X49192830Y-47336565D01*
G37*
X49192830Y-47336565D02*
X49392830Y-47336565D01*
X49392830Y-47236565D01*
X49192830Y-47236565D01*
X49192830Y-47336565D01*
G36*
X48592830Y-47336565D02*
G01*
X48892830Y-47336565D01*
X48892830Y-47236565D01*
X48592830Y-47236565D01*
X48592830Y-47336565D01*
G37*
X48592830Y-47336565D02*
X48892830Y-47336565D01*
X48892830Y-47236565D01*
X48592830Y-47236565D01*
X48592830Y-47336565D01*
G36*
X48592830Y-47336565D02*
G01*
X48692830Y-47336565D01*
X48692830Y-46836565D01*
X48592830Y-46836565D01*
X48592830Y-47336565D01*
G37*
X48592830Y-47336565D02*
X48692830Y-47336565D01*
X48692830Y-46836565D01*
X48592830Y-46836565D01*
X48592830Y-47336565D01*
D10*
X73183800Y-44291200D02*
X40163800Y-44291200D01*
X73183800Y-62071200D02*
X73183800Y-44291200D01*
X40163800Y-62071200D02*
X73183800Y-62071200D01*
X40163800Y-44291200D02*
X40163800Y-62071200D01*
X42703800Y-59531200D02*
X42703800Y-62071200D01*
D11*
X49357609Y-47607866D02*
X49395704Y-47722152D01*
X49395704Y-47912628D01*
X49357609Y-47988819D01*
X49319514Y-48026914D01*
X49243323Y-48065009D01*
X49167133Y-48065009D01*
X49090942Y-48026914D01*
X49052847Y-47988819D01*
X49014752Y-47912628D01*
X48976657Y-47760247D01*
X48938561Y-47684057D01*
X48900466Y-47645961D01*
X48824276Y-47607866D01*
X48748085Y-47607866D01*
X48671895Y-47645961D01*
X48633800Y-47684057D01*
X48595704Y-47760247D01*
X48595704Y-47950723D01*
X48633800Y-48065009D01*
X48595704Y-48293580D02*
X48595704Y-48750723D01*
X49395704Y-48522152D02*
X48595704Y-48522152D01*
X43535704Y-54562595D02*
X43535704Y-55019738D01*
X44335704Y-54791167D02*
X43535704Y-54791167D01*
X43535704Y-55210214D02*
X44335704Y-55743548D01*
X43535704Y-55743548D02*
X44335704Y-55210214D01*
X43535704Y-56200691D02*
X43535704Y-56276881D01*
X43573800Y-56353072D01*
X43611895Y-56391167D01*
X43688085Y-56429262D01*
X43840466Y-56467357D01*
X44030942Y-56467357D01*
X44183323Y-56429262D01*
X44259514Y-56391167D01*
X44297609Y-56353072D01*
X44335704Y-56276881D01*
X44335704Y-56200691D01*
X44297609Y-56124500D01*
X44259514Y-56086405D01*
X44183323Y-56048310D01*
X44030942Y-56010214D01*
X43840466Y-56010214D01*
X43688085Y-56048310D01*
X43611895Y-56086405D01*
X43573800Y-56124500D01*
X43535704Y-56200691D01*
X43497609Y-57381643D02*
X44526180Y-56695929D01*
X44335704Y-57648310D02*
X43535704Y-57648310D01*
X43535704Y-57838786D01*
X43573800Y-57953072D01*
X43649990Y-58029262D01*
X43726180Y-58067357D01*
X43878561Y-58105452D01*
X43992847Y-58105452D01*
X44145228Y-58067357D01*
X44221419Y-58029262D01*
X44297609Y-57953072D01*
X44335704Y-57838786D01*
X44335704Y-57648310D01*
X43535704Y-58372119D02*
X43535704Y-58867357D01*
X43840466Y-58600691D01*
X43840466Y-58714976D01*
X43878561Y-58791167D01*
X43916657Y-58829262D01*
X43992847Y-58867357D01*
X44183323Y-58867357D01*
X44259514Y-58829262D01*
X44297609Y-58791167D01*
X44335704Y-58714976D01*
X44335704Y-58486405D01*
X44297609Y-58410214D01*
X44259514Y-58372119D01*
X69316657Y-47396390D02*
X69354752Y-47510676D01*
X69392847Y-47548771D01*
X69469038Y-47586866D01*
X69583323Y-47586866D01*
X69659514Y-47548771D01*
X69697609Y-47510676D01*
X69735704Y-47434485D01*
X69735704Y-47129723D01*
X68935704Y-47129723D01*
X68935704Y-47396390D01*
X68973800Y-47472580D01*
X69011895Y-47510676D01*
X69088085Y-47548771D01*
X69164276Y-47548771D01*
X69240466Y-47510676D01*
X69278561Y-47472580D01*
X69316657Y-47396390D01*
X69316657Y-47129723D01*
X69011895Y-47891628D02*
X68973800Y-47929723D01*
X68935704Y-48005914D01*
X68935704Y-48196390D01*
X68973800Y-48272580D01*
X69011895Y-48310676D01*
X69088085Y-48348771D01*
X69164276Y-48348771D01*
X69278561Y-48310676D01*
X69735704Y-47853533D01*
X69735704Y-48348771D01*
X61696657Y-47453533D02*
X61696657Y-47186866D01*
X62115704Y-47186866D02*
X61315704Y-47186866D01*
X61315704Y-47567819D01*
X61315704Y-47796390D02*
X61315704Y-48329723D01*
X62115704Y-47986866D01*
X59156657Y-47453533D02*
X59156657Y-47186866D01*
X59575704Y-47186866D02*
X58775704Y-47186866D01*
X58775704Y-47567819D01*
X58775704Y-48215438D02*
X58775704Y-48063057D01*
X58813800Y-47986866D01*
X58851895Y-47948771D01*
X58966180Y-47872580D01*
X59118561Y-47834485D01*
X59423323Y-47834485D01*
X59499514Y-47872580D01*
X59537609Y-47910676D01*
X59575704Y-47986866D01*
X59575704Y-48139247D01*
X59537609Y-48215438D01*
X59499514Y-48253533D01*
X59423323Y-48291628D01*
X59232847Y-48291628D01*
X59156657Y-48253533D01*
X59118561Y-48215438D01*
X59080466Y-48139247D01*
X59080466Y-47986866D01*
X59118561Y-47910676D01*
X59156657Y-47872580D01*
X59232847Y-47834485D01*
X56616657Y-47453533D02*
X56616657Y-47186866D01*
X57035704Y-47186866D02*
X56235704Y-47186866D01*
X56235704Y-47567819D01*
X56235704Y-48253533D02*
X56235704Y-47872580D01*
X56616657Y-47834485D01*
X56578561Y-47872580D01*
X56540466Y-47948771D01*
X56540466Y-48139247D01*
X56578561Y-48215438D01*
X56616657Y-48253533D01*
X56692847Y-48291628D01*
X56883323Y-48291628D01*
X56959514Y-48253533D01*
X56997609Y-48215438D01*
X57035704Y-48139247D01*
X57035704Y-47948771D01*
X56997609Y-47872580D01*
X56959514Y-47834485D01*
X44335704Y-47167819D02*
X43954752Y-46901152D01*
X44335704Y-46710676D02*
X43535704Y-46710676D01*
X43535704Y-47015438D01*
X43573800Y-47091628D01*
X43611895Y-47129723D01*
X43688085Y-47167819D01*
X43802371Y-47167819D01*
X43878561Y-47129723D01*
X43916657Y-47091628D01*
X43954752Y-47015438D01*
X43954752Y-46710676D01*
X44107133Y-47472580D02*
X44107133Y-47853533D01*
X44335704Y-47396390D02*
X43535704Y-47663057D01*
X44335704Y-47929723D01*
X43535704Y-48120200D02*
X44335704Y-48310676D01*
X43764276Y-48463057D01*
X44335704Y-48615438D01*
X43535704Y-48805914D01*
X46113800Y-47110676D02*
X46075704Y-47034485D01*
X46075704Y-46920200D01*
X46113800Y-46805914D01*
X46189990Y-46729723D01*
X46266180Y-46691628D01*
X46418561Y-46653533D01*
X46532847Y-46653533D01*
X46685228Y-46691628D01*
X46761419Y-46729723D01*
X46837609Y-46805914D01*
X46875704Y-46920200D01*
X46875704Y-46996390D01*
X46837609Y-47110676D01*
X46799514Y-47148771D01*
X46532847Y-47148771D01*
X46532847Y-46996390D01*
X46875704Y-47491628D02*
X46075704Y-47491628D01*
X46875704Y-47948771D01*
X46075704Y-47948771D01*
X46875704Y-48329723D02*
X46075704Y-48329723D01*
X46075704Y-48520200D01*
X46113800Y-48634485D01*
X46189990Y-48710676D01*
X46266180Y-48748771D01*
X46418561Y-48786866D01*
X46532847Y-48786866D01*
X46685228Y-48748771D01*
X46761419Y-48710676D01*
X46837609Y-48634485D01*
X46875704Y-48520200D01*
X46875704Y-48329723D01*
X51155704Y-46653533D02*
X51955704Y-46920200D01*
X51155704Y-47186866D01*
X51879514Y-47910676D02*
X51917609Y-47872580D01*
X51955704Y-47758295D01*
X51955704Y-47682104D01*
X51917609Y-47567819D01*
X51841419Y-47491628D01*
X51765228Y-47453533D01*
X51612847Y-47415438D01*
X51498561Y-47415438D01*
X51346180Y-47453533D01*
X51269990Y-47491628D01*
X51193800Y-47567819D01*
X51155704Y-47682104D01*
X51155704Y-47758295D01*
X51193800Y-47872580D01*
X51231895Y-47910676D01*
X51879514Y-48710676D02*
X51917609Y-48672580D01*
X51955704Y-48558295D01*
X51955704Y-48482104D01*
X51917609Y-48367819D01*
X51841419Y-48291628D01*
X51765228Y-48253533D01*
X51612847Y-48215438D01*
X51498561Y-48215438D01*
X51346180Y-48253533D01*
X51269990Y-48291628D01*
X51193800Y-48367819D01*
X51155704Y-48482104D01*
X51155704Y-48558295D01*
X51193800Y-48672580D01*
X51231895Y-48710676D01*
X54076657Y-47453533D02*
X54076657Y-47186866D01*
X54495704Y-47186866D02*
X53695704Y-47186866D01*
X53695704Y-47567819D01*
X53962371Y-48215438D02*
X54495704Y-48215438D01*
X53657609Y-48024961D02*
X54229038Y-47834485D01*
X54229038Y-48329723D01*
X64236657Y-47396390D02*
X64274752Y-47510676D01*
X64312847Y-47548771D01*
X64389038Y-47586866D01*
X64503323Y-47586866D01*
X64579514Y-47548771D01*
X64617609Y-47510676D01*
X64655704Y-47434485D01*
X64655704Y-47129723D01*
X63855704Y-47129723D01*
X63855704Y-47396390D01*
X63893800Y-47472580D01*
X63931895Y-47510676D01*
X64008085Y-47548771D01*
X64084276Y-47548771D01*
X64160466Y-47510676D01*
X64198561Y-47472580D01*
X64236657Y-47396390D01*
X64236657Y-47129723D01*
X64655704Y-48348771D02*
X64655704Y-47891628D01*
X64655704Y-48120200D02*
X63855704Y-48120200D01*
X63969990Y-48044009D01*
X64046180Y-47967819D01*
X64084276Y-47891628D01*
X66776657Y-47396390D02*
X66814752Y-47510676D01*
X66852847Y-47548771D01*
X66929038Y-47586866D01*
X67043323Y-47586866D01*
X67119514Y-47548771D01*
X67157609Y-47510676D01*
X67195704Y-47434485D01*
X67195704Y-47129723D01*
X66395704Y-47129723D01*
X66395704Y-47396390D01*
X66433800Y-47472580D01*
X66471895Y-47510676D01*
X66548085Y-47548771D01*
X66624276Y-47548771D01*
X66700466Y-47510676D01*
X66738561Y-47472580D01*
X66776657Y-47396390D01*
X66776657Y-47129723D01*
X66395704Y-47853533D02*
X66395704Y-48348771D01*
X66700466Y-48082104D01*
X66700466Y-48196390D01*
X66738561Y-48272580D01*
X66776657Y-48310676D01*
X66852847Y-48348771D01*
X67043323Y-48348771D01*
X67119514Y-48310676D01*
X67157609Y-48272580D01*
X67195704Y-48196390D01*
X67195704Y-47967819D01*
X67157609Y-47891628D01*
X67119514Y-47853533D01*
X71856657Y-47396390D02*
X71894752Y-47510676D01*
X71932847Y-47548771D01*
X72009038Y-47586866D01*
X72123323Y-47586866D01*
X72199514Y-47548771D01*
X72237609Y-47510676D01*
X72275704Y-47434485D01*
X72275704Y-47129723D01*
X71475704Y-47129723D01*
X71475704Y-47396390D01*
X71513800Y-47472580D01*
X71551895Y-47510676D01*
X71628085Y-47548771D01*
X71704276Y-47548771D01*
X71780466Y-47510676D01*
X71818561Y-47472580D01*
X71856657Y-47396390D01*
X71856657Y-47129723D01*
X71475704Y-48272580D02*
X71475704Y-48120200D01*
X71513800Y-48044009D01*
X71551895Y-48005914D01*
X71666180Y-47929723D01*
X71818561Y-47891628D01*
X72123323Y-47891628D01*
X72199514Y-47929723D01*
X72237609Y-47967819D01*
X72275704Y-48044009D01*
X72275704Y-48196390D01*
X72237609Y-48272580D01*
X72199514Y-48310676D01*
X72123323Y-48348771D01*
X71932847Y-48348771D01*
X71856657Y-48310676D01*
X71818561Y-48272580D01*
X71780466Y-48196390D01*
X71780466Y-48044009D01*
X71818561Y-47967819D01*
X71856657Y-47929723D01*
X71932847Y-47891628D01*
X71856657Y-58318390D02*
X71894752Y-58432676D01*
X71932847Y-58470771D01*
X72009038Y-58508866D01*
X72123323Y-58508866D01*
X72199514Y-58470771D01*
X72237609Y-58432676D01*
X72275704Y-58356485D01*
X72275704Y-58051723D01*
X71475704Y-58051723D01*
X71475704Y-58318390D01*
X71513800Y-58394580D01*
X71551895Y-58432676D01*
X71628085Y-58470771D01*
X71704276Y-58470771D01*
X71780466Y-58432676D01*
X71818561Y-58394580D01*
X71856657Y-58318390D01*
X71856657Y-58051723D01*
X71475704Y-59232676D02*
X71475704Y-58851723D01*
X71856657Y-58813628D01*
X71818561Y-58851723D01*
X71780466Y-58927914D01*
X71780466Y-59118390D01*
X71818561Y-59194580D01*
X71856657Y-59232676D01*
X71932847Y-59270771D01*
X72123323Y-59270771D01*
X72199514Y-59232676D01*
X72237609Y-59194580D01*
X72275704Y-59118390D01*
X72275704Y-58927914D01*
X72237609Y-58851723D01*
X72199514Y-58813628D01*
X69316657Y-58318390D02*
X69354752Y-58432676D01*
X69392847Y-58470771D01*
X69469038Y-58508866D01*
X69583323Y-58508866D01*
X69659514Y-58470771D01*
X69697609Y-58432676D01*
X69735704Y-58356485D01*
X69735704Y-58051723D01*
X68935704Y-58051723D01*
X68935704Y-58318390D01*
X68973800Y-58394580D01*
X69011895Y-58432676D01*
X69088085Y-58470771D01*
X69164276Y-58470771D01*
X69240466Y-58432676D01*
X69278561Y-58394580D01*
X69316657Y-58318390D01*
X69316657Y-58051723D01*
X69202371Y-59194580D02*
X69735704Y-59194580D01*
X68897609Y-59004104D02*
X69469038Y-58813628D01*
X69469038Y-59308866D01*
X66776657Y-58089819D02*
X66776657Y-58356485D01*
X67195704Y-58470771D02*
X67195704Y-58089819D01*
X66395704Y-58089819D01*
X66395704Y-58470771D01*
X66395704Y-59156485D02*
X66395704Y-59004104D01*
X66433800Y-58927914D01*
X66471895Y-58889819D01*
X66586180Y-58813628D01*
X66738561Y-58775533D01*
X67043323Y-58775533D01*
X67119514Y-58813628D01*
X67157609Y-58851723D01*
X67195704Y-58927914D01*
X67195704Y-59080295D01*
X67157609Y-59156485D01*
X67119514Y-59194580D01*
X67043323Y-59232676D01*
X66852847Y-59232676D01*
X66776657Y-59194580D01*
X66738561Y-59156485D01*
X66700466Y-59080295D01*
X66700466Y-58927914D01*
X66738561Y-58851723D01*
X66776657Y-58813628D01*
X66852847Y-58775533D01*
X64655704Y-58051723D02*
X63855704Y-58051723D01*
X63855704Y-58242200D01*
X63893800Y-58356485D01*
X63969990Y-58432676D01*
X64046180Y-58470771D01*
X64198561Y-58508866D01*
X64312847Y-58508866D01*
X64465228Y-58470771D01*
X64541419Y-58432676D01*
X64617609Y-58356485D01*
X64655704Y-58242200D01*
X64655704Y-58051723D01*
X63855704Y-58775533D02*
X63855704Y-59308866D01*
X64655704Y-58966009D01*
X62039514Y-58508866D02*
X62077609Y-58470771D01*
X62115704Y-58356485D01*
X62115704Y-58280295D01*
X62077609Y-58166009D01*
X62001419Y-58089819D01*
X61925228Y-58051723D01*
X61772847Y-58013628D01*
X61658561Y-58013628D01*
X61506180Y-58051723D01*
X61429990Y-58089819D01*
X61353800Y-58166009D01*
X61315704Y-58280295D01*
X61315704Y-58356485D01*
X61353800Y-58470771D01*
X61391895Y-58508866D01*
X61315704Y-59194580D02*
X61315704Y-59042200D01*
X61353800Y-58966009D01*
X61391895Y-58927914D01*
X61506180Y-58851723D01*
X61658561Y-58813628D01*
X61963323Y-58813628D01*
X62039514Y-58851723D01*
X62077609Y-58889819D01*
X62115704Y-58966009D01*
X62115704Y-59118390D01*
X62077609Y-59194580D01*
X62039514Y-59232676D01*
X61963323Y-59270771D01*
X61772847Y-59270771D01*
X61696657Y-59232676D01*
X61658561Y-59194580D01*
X61620466Y-59118390D01*
X61620466Y-58966009D01*
X61658561Y-58889819D01*
X61696657Y-58851723D01*
X61772847Y-58813628D01*
X59575704Y-58051723D02*
X58775704Y-58051723D01*
X58775704Y-58242200D01*
X58813800Y-58356485D01*
X58889990Y-58432676D01*
X58966180Y-58470771D01*
X59118561Y-58508866D01*
X59232847Y-58508866D01*
X59385228Y-58470771D01*
X59461419Y-58432676D01*
X59537609Y-58356485D01*
X59575704Y-58242200D01*
X59575704Y-58051723D01*
X59042371Y-59194580D02*
X59575704Y-59194580D01*
X58737609Y-59004104D02*
X59309038Y-58813628D01*
X59309038Y-59308866D01*
X48653800Y-58032676D02*
X48615704Y-57956485D01*
X48615704Y-57842200D01*
X48653800Y-57727914D01*
X48729990Y-57651723D01*
X48806180Y-57613628D01*
X48958561Y-57575533D01*
X49072847Y-57575533D01*
X49225228Y-57613628D01*
X49301419Y-57651723D01*
X49377609Y-57727914D01*
X49415704Y-57842200D01*
X49415704Y-57918390D01*
X49377609Y-58032676D01*
X49339514Y-58070771D01*
X49072847Y-58070771D01*
X49072847Y-57918390D01*
X49415704Y-58413628D02*
X48615704Y-58413628D01*
X49415704Y-58870771D01*
X48615704Y-58870771D01*
X49415704Y-59251723D02*
X48615704Y-59251723D01*
X48615704Y-59442200D01*
X48653800Y-59556485D01*
X48729990Y-59632676D01*
X48806180Y-59670771D01*
X48958561Y-59708866D01*
X49072847Y-59708866D01*
X49225228Y-59670771D01*
X49301419Y-59632676D01*
X49377609Y-59556485D01*
X49415704Y-59442200D01*
X49415704Y-59251723D01*
X51193800Y-58032676D02*
X51155704Y-57956485D01*
X51155704Y-57842200D01*
X51193800Y-57727914D01*
X51269990Y-57651723D01*
X51346180Y-57613628D01*
X51498561Y-57575533D01*
X51612847Y-57575533D01*
X51765228Y-57613628D01*
X51841419Y-57651723D01*
X51917609Y-57727914D01*
X51955704Y-57842200D01*
X51955704Y-57918390D01*
X51917609Y-58032676D01*
X51879514Y-58070771D01*
X51612847Y-58070771D01*
X51612847Y-57918390D01*
X51955704Y-58413628D02*
X51155704Y-58413628D01*
X51955704Y-58870771D01*
X51155704Y-58870771D01*
X51955704Y-59251723D02*
X51155704Y-59251723D01*
X51155704Y-59442200D01*
X51193800Y-59556485D01*
X51269990Y-59632676D01*
X51346180Y-59670771D01*
X51498561Y-59708866D01*
X51612847Y-59708866D01*
X51765228Y-59670771D01*
X51841419Y-59632676D01*
X51917609Y-59556485D01*
X51955704Y-59442200D01*
X51955704Y-59251723D01*
X54495704Y-58051723D02*
X53695704Y-58051723D01*
X53695704Y-58242200D01*
X53733800Y-58356485D01*
X53809990Y-58432676D01*
X53886180Y-58470771D01*
X54038561Y-58508866D01*
X54152847Y-58508866D01*
X54305228Y-58470771D01*
X54381419Y-58432676D01*
X54457609Y-58356485D01*
X54495704Y-58242200D01*
X54495704Y-58051723D01*
X54495704Y-59270771D02*
X54495704Y-58813628D01*
X54495704Y-59042200D02*
X53695704Y-59042200D01*
X53809990Y-58966009D01*
X53886180Y-58889819D01*
X53924276Y-58813628D01*
X57035704Y-58051723D02*
X56235704Y-58051723D01*
X56235704Y-58242200D01*
X56273800Y-58356485D01*
X56349990Y-58432676D01*
X56426180Y-58470771D01*
X56578561Y-58508866D01*
X56692847Y-58508866D01*
X56845228Y-58470771D01*
X56921419Y-58432676D01*
X56997609Y-58356485D01*
X57035704Y-58242200D01*
X57035704Y-58051723D01*
X56235704Y-59004104D02*
X56235704Y-59080295D01*
X56273800Y-59156485D01*
X56311895Y-59194580D01*
X56388085Y-59232676D01*
X56540466Y-59270771D01*
X56730942Y-59270771D01*
X56883323Y-59232676D01*
X56959514Y-59194580D01*
X56997609Y-59156485D01*
X57035704Y-59080295D01*
X57035704Y-59004104D01*
X56997609Y-58927914D01*
X56959514Y-58889819D01*
X56883323Y-58851723D01*
X56730942Y-58813628D01*
X56540466Y-58813628D01*
X56388085Y-58851723D01*
X56311895Y-58889819D01*
X56273800Y-58927914D01*
X56235704Y-59004104D01*
X46875704Y-58051723D02*
X46075704Y-58051723D01*
X46075704Y-58242200D01*
X46113800Y-58356485D01*
X46189990Y-58432676D01*
X46266180Y-58470771D01*
X46418561Y-58508866D01*
X46532847Y-58508866D01*
X46685228Y-58470771D01*
X46761419Y-58432676D01*
X46837609Y-58356485D01*
X46875704Y-58242200D01*
X46875704Y-58051723D01*
X46151895Y-58813628D02*
X46113800Y-58851723D01*
X46075704Y-58927914D01*
X46075704Y-59118390D01*
X46113800Y-59194580D01*
X46151895Y-59232676D01*
X46228085Y-59270771D01*
X46304276Y-59270771D01*
X46418561Y-59232676D01*
X46875704Y-58775533D01*
X46875704Y-59270771D01*
G04 #@! TD*
%LPC*%
D12*
G04 #@! TO.C,SW19*
X139065000Y-125095000D03*
D13*
X136525000Y-130175000D03*
D12*
X132715000Y-127635000D03*
D14*
X131445000Y-130175000D03*
X141605000Y-130175000D03*
D15*
X124618750Y-137160000D03*
X148431250Y-137160000D03*
D13*
X124618750Y-121920000D03*
X148431250Y-121920000D03*
G04 #@! TD*
D12*
G04 #@! TO.C,SW26*
X179546000Y-125095000D03*
D13*
X177006000Y-130175000D03*
D12*
X173196000Y-127635000D03*
D14*
X171926000Y-130175000D03*
X182086000Y-130175000D03*
D15*
X165099750Y-137160000D03*
X188912250Y-137160000D03*
D13*
X165099750Y-121920000D03*
X188912250Y-121920000D03*
G04 #@! TD*
D12*
G04 #@! TO.C,SW46*
X267652000Y-67945000D03*
D13*
X265112000Y-73025000D03*
D12*
X261302000Y-70485000D03*
D14*
X260032000Y-73025000D03*
X270192000Y-73025000D03*
G04 #@! TD*
D12*
G04 #@! TO.C,SW40*
X267652000Y-125095000D03*
D13*
X265112000Y-130175000D03*
D12*
X261302000Y-127635000D03*
D14*
X260032000Y-130175000D03*
X270192000Y-130175000D03*
G04 #@! TD*
D12*
G04 #@! TO.C,SW3*
X58102500Y-106045000D03*
D13*
X55562500Y-111125000D03*
D12*
X51752500Y-108585000D03*
D14*
X50482500Y-111125000D03*
X60642500Y-111125000D03*
G04 #@! TD*
D12*
G04 #@! TO.C,SW47*
X270034000Y-86995000D03*
D13*
X267494000Y-92075000D03*
D12*
X263684000Y-89535000D03*
D14*
X262414000Y-92075000D03*
X272574000Y-92075000D03*
G04 #@! TD*
D12*
G04 #@! TO.C,SW35*
X236696000Y-125095000D03*
D13*
X234156000Y-130175000D03*
D12*
X230346000Y-127635000D03*
D14*
X229076000Y-130175000D03*
X239236000Y-130175000D03*
G04 #@! TD*
D12*
G04 #@! TO.C,SW31*
X212884000Y-125095000D03*
D13*
X210344000Y-130175000D03*
D12*
X206534000Y-127635000D03*
D14*
X205264000Y-130175000D03*
X215424000Y-130175000D03*
G04 #@! TD*
D12*
G04 #@! TO.C,SW8*
X79533800Y-125095000D03*
D13*
X76993800Y-130175000D03*
D12*
X73183800Y-127635000D03*
D14*
X71913800Y-130175000D03*
X82073800Y-130175000D03*
G04 #@! TD*
D12*
G04 #@! TO.C,SW30*
X210502000Y-125095000D03*
D13*
X207962000Y-130175000D03*
D12*
X204152000Y-127635000D03*
D14*
X202882000Y-130175000D03*
X213042000Y-130175000D03*
G04 #@! TD*
D12*
G04 #@! TO.C,SW12*
X105728000Y-125095000D03*
D13*
X103188000Y-130175000D03*
D12*
X99378000Y-127635000D03*
D14*
X98108000Y-130175000D03*
X108268000Y-130175000D03*
G04 #@! TD*
D12*
G04 #@! TO.C,SW4*
X53340000Y-125095000D03*
D13*
X50800000Y-130175000D03*
D12*
X46990000Y-127635000D03*
D14*
X45720000Y-130175000D03*
X55880000Y-130175000D03*
G04 #@! TD*
D12*
G04 #@! TO.C,SW2*
X53340000Y-86995000D03*
D13*
X50800000Y-92075000D03*
D12*
X46990000Y-89535000D03*
D14*
X45720000Y-92075000D03*
X55880000Y-92075000D03*
G04 #@! TD*
D12*
G04 #@! TO.C,SW53*
X108109000Y-125095000D03*
D13*
X105569000Y-130175000D03*
D12*
X101759000Y-127635000D03*
D14*
X100489000Y-130175000D03*
X110649000Y-130175000D03*
G04 #@! TD*
D12*
G04 #@! TO.C,SW52*
X89058800Y-125095000D03*
D13*
X86518800Y-130175000D03*
D12*
X82708800Y-127635000D03*
D14*
X81438800Y-130175000D03*
X91598800Y-130175000D03*
G04 #@! TD*
D12*
G04 #@! TO.C,SW51*
X70008800Y-125095000D03*
D13*
X67468800Y-130175000D03*
D12*
X63658800Y-127635000D03*
D14*
X62388800Y-130175000D03*
X72548800Y-130175000D03*
G04 #@! TD*
D12*
G04 #@! TO.C,SW50*
X50958800Y-125095000D03*
D13*
X48418800Y-130175000D03*
D12*
X44608800Y-127635000D03*
D14*
X43338800Y-130175000D03*
X53498800Y-130175000D03*
G04 #@! TD*
D12*
G04 #@! TO.C,SW48*
X274796000Y-106045000D03*
D13*
X272256000Y-111125000D03*
D12*
X268446000Y-108585000D03*
D14*
X267176000Y-111125000D03*
X277336000Y-111125000D03*
G04 #@! TD*
D12*
G04 #@! TO.C,SW45*
X241459000Y-67945000D03*
D13*
X238919000Y-73025000D03*
D12*
X235109000Y-70485000D03*
D14*
X233839000Y-73025000D03*
X243999000Y-73025000D03*
G04 #@! TD*
D12*
G04 #@! TO.C,SW44*
X274796000Y-125095000D03*
D13*
X272256000Y-130175000D03*
D12*
X268446000Y-127635000D03*
D14*
X267176000Y-130175000D03*
X277336000Y-130175000D03*
G04 #@! TD*
D12*
G04 #@! TO.C,SW43*
X255746000Y-106045000D03*
D13*
X253206000Y-111125000D03*
D12*
X249396000Y-108585000D03*
D14*
X248126000Y-111125000D03*
X258286000Y-111125000D03*
G04 #@! TD*
D12*
G04 #@! TO.C,SW42*
X246221000Y-86995000D03*
D13*
X243681000Y-92075000D03*
D12*
X239871000Y-89535000D03*
D14*
X238601000Y-92075000D03*
X248761000Y-92075000D03*
G04 #@! TD*
D12*
G04 #@! TO.C,SW41*
X255746000Y-125095000D03*
D13*
X253206000Y-130175000D03*
D12*
X249396000Y-127635000D03*
D14*
X248126000Y-130175000D03*
X258286000Y-130175000D03*
G04 #@! TD*
D12*
G04 #@! TO.C,SW39*
X236696000Y-106045000D03*
D13*
X234156000Y-111125000D03*
D12*
X230346000Y-108585000D03*
D14*
X229076000Y-111125000D03*
X239236000Y-111125000D03*
G04 #@! TD*
D12*
G04 #@! TO.C,SW38*
X227171000Y-86995000D03*
D13*
X224631000Y-92075000D03*
D12*
X220821000Y-89535000D03*
D14*
X219551000Y-92075000D03*
X229711000Y-92075000D03*
G04 #@! TD*
D12*
G04 #@! TO.C,SW37*
X222409000Y-67945000D03*
D13*
X219869000Y-73025000D03*
D12*
X216059000Y-70485000D03*
D14*
X214789000Y-73025000D03*
X224949000Y-73025000D03*
G04 #@! TD*
D12*
G04 #@! TO.C,SW36*
X236696000Y-125095000D03*
D13*
X234156000Y-130175000D03*
D12*
X230346000Y-127635000D03*
D14*
X229076000Y-130175000D03*
X239236000Y-130175000D03*
G04 #@! TD*
D12*
G04 #@! TO.C,SW34*
X217646000Y-106045000D03*
D13*
X215106000Y-111125000D03*
D12*
X211296000Y-108585000D03*
D14*
X210026000Y-111125000D03*
X220186000Y-111125000D03*
G04 #@! TD*
D12*
G04 #@! TO.C,SW33*
X208121000Y-86995000D03*
D13*
X205581000Y-92075000D03*
D12*
X201771000Y-89535000D03*
D14*
X200501000Y-92075000D03*
X210661000Y-92075000D03*
G04 #@! TD*
D12*
G04 #@! TO.C,SW32*
X203359000Y-67945000D03*
D13*
X200819000Y-73025000D03*
D12*
X197009000Y-70485000D03*
D14*
X195739000Y-73025000D03*
X205899000Y-73025000D03*
G04 #@! TD*
D12*
G04 #@! TO.C,SW29*
X198596000Y-106045000D03*
D13*
X196056000Y-111125000D03*
D12*
X192246000Y-108585000D03*
D14*
X190976000Y-111125000D03*
X201136000Y-111125000D03*
G04 #@! TD*
D12*
G04 #@! TO.C,SW28*
X189071000Y-86995000D03*
D13*
X186531000Y-92075000D03*
D12*
X182721000Y-89535000D03*
D14*
X181451000Y-92075000D03*
X191611000Y-92075000D03*
G04 #@! TD*
D12*
G04 #@! TO.C,SW27*
X184309000Y-67945000D03*
D13*
X181769000Y-73025000D03*
D12*
X177959000Y-70485000D03*
D14*
X176689000Y-73025000D03*
X186849000Y-73025000D03*
G04 #@! TD*
D12*
G04 #@! TO.C,SW25*
X179546000Y-106045000D03*
D13*
X177006000Y-111125000D03*
D12*
X173196000Y-108585000D03*
D14*
X171926000Y-111125000D03*
X182086000Y-111125000D03*
G04 #@! TD*
D12*
G04 #@! TO.C,SW24*
X170021000Y-86995000D03*
D13*
X167481000Y-92075000D03*
D12*
X163671000Y-89535000D03*
D14*
X162401000Y-92075000D03*
X172561000Y-92075000D03*
G04 #@! TD*
D12*
G04 #@! TO.C,SW23*
X165259000Y-67945000D03*
D13*
X162719000Y-73025000D03*
D12*
X158909000Y-70485000D03*
D14*
X157639000Y-73025000D03*
X167799000Y-73025000D03*
G04 #@! TD*
D12*
G04 #@! TO.C,SW22*
X160496000Y-106045000D03*
D13*
X157956000Y-111125000D03*
D12*
X154146000Y-108585000D03*
D14*
X152876000Y-111125000D03*
X163036000Y-111125000D03*
G04 #@! TD*
D12*
G04 #@! TO.C,SW21*
X150971000Y-86995000D03*
D13*
X148431000Y-92075000D03*
D12*
X144621000Y-89535000D03*
D14*
X143351000Y-92075000D03*
X153511000Y-92075000D03*
G04 #@! TD*
D12*
G04 #@! TO.C,SW20*
X146209000Y-67945000D03*
D13*
X143669000Y-73025000D03*
D12*
X139859000Y-70485000D03*
D14*
X138589000Y-73025000D03*
X148749000Y-73025000D03*
G04 #@! TD*
D12*
G04 #@! TO.C,SW18*
X141446000Y-106045000D03*
D13*
X138906000Y-111125000D03*
D12*
X135096000Y-108585000D03*
D14*
X133826000Y-111125000D03*
X143986000Y-111125000D03*
G04 #@! TD*
D12*
G04 #@! TO.C,SW17*
X131921000Y-86995000D03*
D13*
X129381000Y-92075000D03*
D12*
X125571000Y-89535000D03*
D14*
X124301000Y-92075000D03*
X134461000Y-92075000D03*
G04 #@! TD*
D12*
G04 #@! TO.C,SW16*
X127159000Y-67945000D03*
D13*
X124619000Y-73025000D03*
D12*
X120809000Y-70485000D03*
D14*
X119539000Y-73025000D03*
X129699000Y-73025000D03*
G04 #@! TD*
D12*
G04 #@! TO.C,SW15*
X122396000Y-106045000D03*
D13*
X119856000Y-111125000D03*
D12*
X116046000Y-108585000D03*
D14*
X114776000Y-111125000D03*
X124936000Y-111125000D03*
G04 #@! TD*
D12*
G04 #@! TO.C,SW14*
X112871000Y-86995000D03*
D13*
X110331000Y-92075000D03*
D12*
X106521000Y-89535000D03*
D14*
X105251000Y-92075000D03*
X115411000Y-92075000D03*
G04 #@! TD*
D12*
G04 #@! TO.C,SW13*
X108109000Y-67945000D03*
D13*
X105569000Y-73025000D03*
D12*
X101759000Y-70485000D03*
D14*
X100489000Y-73025000D03*
X110649000Y-73025000D03*
G04 #@! TD*
D12*
G04 #@! TO.C,SW11*
X103346000Y-106045000D03*
D13*
X100806000Y-111125000D03*
D12*
X96996000Y-108585000D03*
D14*
X95726000Y-111125000D03*
X105886000Y-111125000D03*
G04 #@! TD*
D12*
G04 #@! TO.C,SW10*
X93821200Y-86995000D03*
D13*
X91281200Y-92075000D03*
D12*
X87471200Y-89535000D03*
D14*
X86201200Y-92075000D03*
X96361200Y-92075000D03*
G04 #@! TD*
D12*
G04 #@! TO.C,SW9*
X89058800Y-67945000D03*
D13*
X86518800Y-73025000D03*
D12*
X82708800Y-70485000D03*
D14*
X81438800Y-73025000D03*
X91598800Y-73025000D03*
G04 #@! TD*
D12*
G04 #@! TO.C,SW7*
X84296200Y-106045000D03*
D13*
X81756200Y-111125000D03*
D12*
X77946200Y-108585000D03*
D14*
X76676200Y-111125000D03*
X86836200Y-111125000D03*
G04 #@! TD*
D12*
G04 #@! TO.C,SW6*
X74771200Y-86995000D03*
D13*
X72231200Y-92075000D03*
D12*
X68421200Y-89535000D03*
D14*
X67151200Y-92075000D03*
X77311200Y-92075000D03*
G04 #@! TD*
D12*
G04 #@! TO.C,SW5*
X70008800Y-67945000D03*
D13*
X67468800Y-73025000D03*
D12*
X63658800Y-70485000D03*
D14*
X62388800Y-73025000D03*
X72548800Y-73025000D03*
G04 #@! TD*
D12*
G04 #@! TO.C,SW1*
X50958800Y-67945000D03*
D13*
X48418800Y-73025000D03*
D12*
X44608800Y-70485000D03*
D14*
X43338800Y-73025000D03*
X53498800Y-73025000D03*
G04 #@! TD*
G04 #@! TO.C,D46*
G36*
G01*
X270608531Y-47565031D02*
X270608531Y-47565031D01*
G75*
G02*
X269477161Y-47565031I-565685J565685D01*
G01*
X269477161Y-47565031D01*
G75*
G02*
X269477161Y-46433661I565685J565685D01*
G01*
X269477161Y-46433661D01*
G75*
G02*
X270608531Y-46433661I565685J-565685D01*
G01*
X270608531Y-46433661D01*
G75*
G02*
X270608531Y-47565031I-565685J-565685D01*
G01*
G37*
D16*
G36*
X276562371Y-52387500D02*
G01*
X275431000Y-53518871D01*
X274299629Y-52387500D01*
X275431000Y-51256129D01*
X276562371Y-52387500D01*
G37*
G04 #@! TD*
D17*
G04 #@! TO.C,U1*
X43973800Y-45561200D03*
X71913800Y-60801200D03*
X46513800Y-45561200D03*
X49053800Y-45561200D03*
X51593800Y-45561200D03*
X54133800Y-45561200D03*
X56673800Y-45561200D03*
X59213800Y-45561200D03*
X61753800Y-45561200D03*
X64293800Y-45561200D03*
X66833800Y-45561200D03*
X69373800Y-45561200D03*
X71913800Y-45561200D03*
X69373800Y-60801200D03*
X66833800Y-60801200D03*
X64293800Y-60801200D03*
X61753800Y-60801200D03*
X59213800Y-60801200D03*
X56673800Y-60801200D03*
X54133800Y-60801200D03*
X51593800Y-60801200D03*
X49053800Y-60801200D03*
X46513800Y-60801200D03*
D18*
X43973800Y-60801200D03*
G04 #@! TD*
G04 #@! TO.C,D45*
G36*
G01*
X270608531Y-60384969D02*
X270608531Y-60384969D01*
G75*
G02*
X270608531Y-61516339I-565685J-565685D01*
G01*
X270608531Y-61516339D01*
G75*
G02*
X269477161Y-61516339I-565685J565685D01*
G01*
X269477161Y-61516339D01*
G75*
G02*
X269477161Y-60384969I565685J565685D01*
G01*
X269477161Y-60384969D01*
G75*
G02*
X270608531Y-60384969I565685J-565685D01*
G01*
G37*
D16*
G36*
X275431000Y-54431129D02*
G01*
X276562371Y-55562500D01*
X275431000Y-56693871D01*
X274299629Y-55562500D01*
X275431000Y-54431129D01*
G37*
G04 #@! TD*
G04 #@! TO.C,D44*
G36*
G01*
X265966469Y-47565031D02*
X265966469Y-47565031D01*
G75*
G02*
X265966469Y-46433661I565685J565685D01*
G01*
X265966469Y-46433661D01*
G75*
G02*
X267097839Y-46433661I565685J-565685D01*
G01*
X267097839Y-46433661D01*
G75*
G02*
X267097839Y-47565031I-565685J-565685D01*
G01*
X267097839Y-47565031D01*
G75*
G02*
X265966469Y-47565031I-565685J565685D01*
G01*
G37*
G36*
X261144000Y-53518871D02*
G01*
X260012629Y-52387500D01*
X261144000Y-51256129D01*
X262275371Y-52387500D01*
X261144000Y-53518871D01*
G37*
G04 #@! TD*
G04 #@! TO.C,D43*
G36*
G01*
X253146531Y-60384969D02*
X253146531Y-60384969D01*
G75*
G02*
X253146531Y-61516339I-565685J-565685D01*
G01*
X253146531Y-61516339D01*
G75*
G02*
X252015161Y-61516339I-565685J565685D01*
G01*
X252015161Y-61516339D01*
G75*
G02*
X252015161Y-60384969I565685J565685D01*
G01*
X252015161Y-60384969D01*
G75*
G02*
X253146531Y-60384969I565685J-565685D01*
G01*
G37*
G36*
X257969000Y-54431129D02*
G01*
X259100371Y-55562500D01*
X257969000Y-56693871D01*
X256837629Y-55562500D01*
X257969000Y-54431129D01*
G37*
G04 #@! TD*
G04 #@! TO.C,D42*
G36*
G01*
X265966469Y-60384969D02*
X265966469Y-60384969D01*
G75*
G02*
X267097839Y-60384969I565685J-565685D01*
G01*
X267097839Y-60384969D01*
G75*
G02*
X267097839Y-61516339I-565685J-565685D01*
G01*
X267097839Y-61516339D01*
G75*
G02*
X265966469Y-61516339I-565685J565685D01*
G01*
X265966469Y-61516339D01*
G75*
G02*
X265966469Y-60384969I565685J565685D01*
G01*
G37*
G36*
X260012629Y-55562500D02*
G01*
X261144000Y-54431129D01*
X262275371Y-55562500D01*
X261144000Y-56693871D01*
X260012629Y-55562500D01*
G37*
G04 #@! TD*
G04 #@! TO.C,D41*
G36*
G01*
X253146531Y-47565031D02*
X253146531Y-47565031D01*
G75*
G02*
X252015161Y-47565031I-565685J565685D01*
G01*
X252015161Y-47565031D01*
G75*
G02*
X252015161Y-46433661I565685J565685D01*
G01*
X252015161Y-46433661D01*
G75*
G02*
X253146531Y-46433661I565685J-565685D01*
G01*
X253146531Y-46433661D01*
G75*
G02*
X253146531Y-47565031I-565685J-565685D01*
G01*
G37*
G36*
X259100371Y-52387500D02*
G01*
X257969000Y-53518871D01*
X256837629Y-52387500D01*
X257969000Y-51256129D01*
X259100371Y-52387500D01*
G37*
G04 #@! TD*
G04 #@! TO.C,D40*
G36*
G01*
X248503469Y-47565031D02*
X248503469Y-47565031D01*
G75*
G02*
X248503469Y-46433661I565685J565685D01*
G01*
X248503469Y-46433661D01*
G75*
G02*
X249634839Y-46433661I565685J-565685D01*
G01*
X249634839Y-46433661D01*
G75*
G02*
X249634839Y-47565031I-565685J-565685D01*
G01*
X249634839Y-47565031D01*
G75*
G02*
X248503469Y-47565031I-565685J565685D01*
G01*
G37*
G36*
X243681000Y-53518871D02*
G01*
X242549629Y-52387500D01*
X243681000Y-51256129D01*
X244812371Y-52387500D01*
X243681000Y-53518871D01*
G37*
G04 #@! TD*
G04 #@! TO.C,D39*
G36*
G01*
X235683531Y-60384969D02*
X235683531Y-60384969D01*
G75*
G02*
X235683531Y-61516339I-565685J-565685D01*
G01*
X235683531Y-61516339D01*
G75*
G02*
X234552161Y-61516339I-565685J565685D01*
G01*
X234552161Y-61516339D01*
G75*
G02*
X234552161Y-60384969I565685J565685D01*
G01*
X234552161Y-60384969D01*
G75*
G02*
X235683531Y-60384969I565685J-565685D01*
G01*
G37*
G36*
X240506000Y-54431129D02*
G01*
X241637371Y-55562500D01*
X240506000Y-56693871D01*
X239374629Y-55562500D01*
X240506000Y-54431129D01*
G37*
G04 #@! TD*
G04 #@! TO.C,D38*
G36*
G01*
X248503469Y-60384969D02*
X248503469Y-60384969D01*
G75*
G02*
X249634839Y-60384969I565685J-565685D01*
G01*
X249634839Y-60384969D01*
G75*
G02*
X249634839Y-61516339I-565685J-565685D01*
G01*
X249634839Y-61516339D01*
G75*
G02*
X248503469Y-61516339I-565685J565685D01*
G01*
X248503469Y-61516339D01*
G75*
G02*
X248503469Y-60384969I565685J565685D01*
G01*
G37*
G36*
X242549629Y-55562500D02*
G01*
X243681000Y-54431129D01*
X244812371Y-55562500D01*
X243681000Y-56693871D01*
X242549629Y-55562500D01*
G37*
G04 #@! TD*
G04 #@! TO.C,D37*
G36*
G01*
X235683531Y-47565031D02*
X235683531Y-47565031D01*
G75*
G02*
X234552161Y-47565031I-565685J565685D01*
G01*
X234552161Y-47565031D01*
G75*
G02*
X234552161Y-46433661I565685J565685D01*
G01*
X234552161Y-46433661D01*
G75*
G02*
X235683531Y-46433661I565685J-565685D01*
G01*
X235683531Y-46433661D01*
G75*
G02*
X235683531Y-47565031I-565685J-565685D01*
G01*
G37*
G36*
X241637371Y-52387500D02*
G01*
X240506000Y-53518871D01*
X239374629Y-52387500D01*
X240506000Y-51256129D01*
X241637371Y-52387500D01*
G37*
G04 #@! TD*
G04 #@! TO.C,D36*
G36*
G01*
X231041469Y-47565031D02*
X231041469Y-47565031D01*
G75*
G02*
X231041469Y-46433661I565685J565685D01*
G01*
X231041469Y-46433661D01*
G75*
G02*
X232172839Y-46433661I565685J-565685D01*
G01*
X232172839Y-46433661D01*
G75*
G02*
X232172839Y-47565031I-565685J-565685D01*
G01*
X232172839Y-47565031D01*
G75*
G02*
X231041469Y-47565031I-565685J565685D01*
G01*
G37*
G36*
X226219000Y-53518871D02*
G01*
X225087629Y-52387500D01*
X226219000Y-51256129D01*
X227350371Y-52387500D01*
X226219000Y-53518871D01*
G37*
G04 #@! TD*
G04 #@! TO.C,D35*
G36*
G01*
X218221531Y-60384969D02*
X218221531Y-60384969D01*
G75*
G02*
X218221531Y-61516339I-565685J-565685D01*
G01*
X218221531Y-61516339D01*
G75*
G02*
X217090161Y-61516339I-565685J565685D01*
G01*
X217090161Y-61516339D01*
G75*
G02*
X217090161Y-60384969I565685J565685D01*
G01*
X217090161Y-60384969D01*
G75*
G02*
X218221531Y-60384969I565685J-565685D01*
G01*
G37*
G36*
X223044000Y-54431129D02*
G01*
X224175371Y-55562500D01*
X223044000Y-56693871D01*
X221912629Y-55562500D01*
X223044000Y-54431129D01*
G37*
G04 #@! TD*
G04 #@! TO.C,D34*
G36*
G01*
X231041469Y-60384969D02*
X231041469Y-60384969D01*
G75*
G02*
X232172839Y-60384969I565685J-565685D01*
G01*
X232172839Y-60384969D01*
G75*
G02*
X232172839Y-61516339I-565685J-565685D01*
G01*
X232172839Y-61516339D01*
G75*
G02*
X231041469Y-61516339I-565685J565685D01*
G01*
X231041469Y-61516339D01*
G75*
G02*
X231041469Y-60384969I565685J565685D01*
G01*
G37*
G36*
X225087629Y-55562500D02*
G01*
X226219000Y-54431129D01*
X227350371Y-55562500D01*
X226219000Y-56693871D01*
X225087629Y-55562500D01*
G37*
G04 #@! TD*
G04 #@! TO.C,D33*
G36*
G01*
X218221531Y-47565031D02*
X218221531Y-47565031D01*
G75*
G02*
X217090161Y-47565031I-565685J565685D01*
G01*
X217090161Y-47565031D01*
G75*
G02*
X217090161Y-46433661I565685J565685D01*
G01*
X217090161Y-46433661D01*
G75*
G02*
X218221531Y-46433661I565685J-565685D01*
G01*
X218221531Y-46433661D01*
G75*
G02*
X218221531Y-47565031I-565685J-565685D01*
G01*
G37*
G36*
X224175371Y-52387500D02*
G01*
X223044000Y-53518871D01*
X221912629Y-52387500D01*
X223044000Y-51256129D01*
X224175371Y-52387500D01*
G37*
G04 #@! TD*
G04 #@! TO.C,D32*
G36*
G01*
X213578469Y-47565031D02*
X213578469Y-47565031D01*
G75*
G02*
X213578469Y-46433661I565685J565685D01*
G01*
X213578469Y-46433661D01*
G75*
G02*
X214709839Y-46433661I565685J-565685D01*
G01*
X214709839Y-46433661D01*
G75*
G02*
X214709839Y-47565031I-565685J-565685D01*
G01*
X214709839Y-47565031D01*
G75*
G02*
X213578469Y-47565031I-565685J565685D01*
G01*
G37*
G36*
X208756000Y-53518871D02*
G01*
X207624629Y-52387500D01*
X208756000Y-51256129D01*
X209887371Y-52387500D01*
X208756000Y-53518871D01*
G37*
G04 #@! TD*
G04 #@! TO.C,D31*
G36*
G01*
X200758531Y-60384969D02*
X200758531Y-60384969D01*
G75*
G02*
X200758531Y-61516339I-565685J-565685D01*
G01*
X200758531Y-61516339D01*
G75*
G02*
X199627161Y-61516339I-565685J565685D01*
G01*
X199627161Y-61516339D01*
G75*
G02*
X199627161Y-60384969I565685J565685D01*
G01*
X199627161Y-60384969D01*
G75*
G02*
X200758531Y-60384969I565685J-565685D01*
G01*
G37*
G36*
X205581000Y-54431129D02*
G01*
X206712371Y-55562500D01*
X205581000Y-56693871D01*
X204449629Y-55562500D01*
X205581000Y-54431129D01*
G37*
G04 #@! TD*
G04 #@! TO.C,D30*
G36*
G01*
X213578469Y-60384969D02*
X213578469Y-60384969D01*
G75*
G02*
X214709839Y-60384969I565685J-565685D01*
G01*
X214709839Y-60384969D01*
G75*
G02*
X214709839Y-61516339I-565685J-565685D01*
G01*
X214709839Y-61516339D01*
G75*
G02*
X213578469Y-61516339I-565685J565685D01*
G01*
X213578469Y-61516339D01*
G75*
G02*
X213578469Y-60384969I565685J565685D01*
G01*
G37*
G36*
X207624629Y-55562500D02*
G01*
X208756000Y-54431129D01*
X209887371Y-55562500D01*
X208756000Y-56693871D01*
X207624629Y-55562500D01*
G37*
G04 #@! TD*
G04 #@! TO.C,D29*
G36*
G01*
X200758531Y-47565031D02*
X200758531Y-47565031D01*
G75*
G02*
X199627161Y-47565031I-565685J565685D01*
G01*
X199627161Y-47565031D01*
G75*
G02*
X199627161Y-46433661I565685J565685D01*
G01*
X199627161Y-46433661D01*
G75*
G02*
X200758531Y-46433661I565685J-565685D01*
G01*
X200758531Y-46433661D01*
G75*
G02*
X200758531Y-47565031I-565685J-565685D01*
G01*
G37*
G36*
X206712371Y-52387500D02*
G01*
X205581000Y-53518871D01*
X204449629Y-52387500D01*
X205581000Y-51256129D01*
X206712371Y-52387500D01*
G37*
G04 #@! TD*
G04 #@! TO.C,D28*
G36*
G01*
X196116469Y-47565031D02*
X196116469Y-47565031D01*
G75*
G02*
X196116469Y-46433661I565685J565685D01*
G01*
X196116469Y-46433661D01*
G75*
G02*
X197247839Y-46433661I565685J-565685D01*
G01*
X197247839Y-46433661D01*
G75*
G02*
X197247839Y-47565031I-565685J-565685D01*
G01*
X197247839Y-47565031D01*
G75*
G02*
X196116469Y-47565031I-565685J565685D01*
G01*
G37*
G36*
X191294000Y-53518871D02*
G01*
X190162629Y-52387500D01*
X191294000Y-51256129D01*
X192425371Y-52387500D01*
X191294000Y-53518871D01*
G37*
G04 #@! TD*
G04 #@! TO.C,D27*
G36*
G01*
X183296531Y-60384969D02*
X183296531Y-60384969D01*
G75*
G02*
X183296531Y-61516339I-565685J-565685D01*
G01*
X183296531Y-61516339D01*
G75*
G02*
X182165161Y-61516339I-565685J565685D01*
G01*
X182165161Y-61516339D01*
G75*
G02*
X182165161Y-60384969I565685J565685D01*
G01*
X182165161Y-60384969D01*
G75*
G02*
X183296531Y-60384969I565685J-565685D01*
G01*
G37*
G36*
X188119000Y-54431129D02*
G01*
X189250371Y-55562500D01*
X188119000Y-56693871D01*
X186987629Y-55562500D01*
X188119000Y-54431129D01*
G37*
G04 #@! TD*
G04 #@! TO.C,D26*
G36*
G01*
X196116469Y-60384969D02*
X196116469Y-60384969D01*
G75*
G02*
X197247839Y-60384969I565685J-565685D01*
G01*
X197247839Y-60384969D01*
G75*
G02*
X197247839Y-61516339I-565685J-565685D01*
G01*
X197247839Y-61516339D01*
G75*
G02*
X196116469Y-61516339I-565685J565685D01*
G01*
X196116469Y-61516339D01*
G75*
G02*
X196116469Y-60384969I565685J565685D01*
G01*
G37*
G36*
X190162629Y-55562500D02*
G01*
X191294000Y-54431129D01*
X192425371Y-55562500D01*
X191294000Y-56693871D01*
X190162629Y-55562500D01*
G37*
G04 #@! TD*
G04 #@! TO.C,D25*
G36*
G01*
X183296531Y-47565031D02*
X183296531Y-47565031D01*
G75*
G02*
X182165161Y-47565031I-565685J565685D01*
G01*
X182165161Y-47565031D01*
G75*
G02*
X182165161Y-46433661I565685J565685D01*
G01*
X182165161Y-46433661D01*
G75*
G02*
X183296531Y-46433661I565685J-565685D01*
G01*
X183296531Y-46433661D01*
G75*
G02*
X183296531Y-47565031I-565685J-565685D01*
G01*
G37*
G36*
X189250371Y-52387500D02*
G01*
X188119000Y-53518871D01*
X186987629Y-52387500D01*
X188119000Y-51256129D01*
X189250371Y-52387500D01*
G37*
G04 #@! TD*
G04 #@! TO.C,D24*
G36*
G01*
X178653469Y-47565031D02*
X178653469Y-47565031D01*
G75*
G02*
X178653469Y-46433661I565685J565685D01*
G01*
X178653469Y-46433661D01*
G75*
G02*
X179784839Y-46433661I565685J-565685D01*
G01*
X179784839Y-46433661D01*
G75*
G02*
X179784839Y-47565031I-565685J-565685D01*
G01*
X179784839Y-47565031D01*
G75*
G02*
X178653469Y-47565031I-565685J565685D01*
G01*
G37*
G36*
X173831000Y-53518871D02*
G01*
X172699629Y-52387500D01*
X173831000Y-51256129D01*
X174962371Y-52387500D01*
X173831000Y-53518871D01*
G37*
G04 #@! TD*
G04 #@! TO.C,D23*
G36*
G01*
X165833531Y-60384969D02*
X165833531Y-60384969D01*
G75*
G02*
X165833531Y-61516339I-565685J-565685D01*
G01*
X165833531Y-61516339D01*
G75*
G02*
X164702161Y-61516339I-565685J565685D01*
G01*
X164702161Y-61516339D01*
G75*
G02*
X164702161Y-60384969I565685J565685D01*
G01*
X164702161Y-60384969D01*
G75*
G02*
X165833531Y-60384969I565685J-565685D01*
G01*
G37*
G36*
X170656000Y-54431129D02*
G01*
X171787371Y-55562500D01*
X170656000Y-56693871D01*
X169524629Y-55562500D01*
X170656000Y-54431129D01*
G37*
G04 #@! TD*
G04 #@! TO.C,D22*
G36*
G01*
X178653469Y-60384969D02*
X178653469Y-60384969D01*
G75*
G02*
X179784839Y-60384969I565685J-565685D01*
G01*
X179784839Y-60384969D01*
G75*
G02*
X179784839Y-61516339I-565685J-565685D01*
G01*
X179784839Y-61516339D01*
G75*
G02*
X178653469Y-61516339I-565685J565685D01*
G01*
X178653469Y-61516339D01*
G75*
G02*
X178653469Y-60384969I565685J565685D01*
G01*
G37*
G36*
X172699629Y-55562500D02*
G01*
X173831000Y-54431129D01*
X174962371Y-55562500D01*
X173831000Y-56693871D01*
X172699629Y-55562500D01*
G37*
G04 #@! TD*
G04 #@! TO.C,D21*
G36*
G01*
X165833531Y-47565031D02*
X165833531Y-47565031D01*
G75*
G02*
X164702161Y-47565031I-565685J565685D01*
G01*
X164702161Y-47565031D01*
G75*
G02*
X164702161Y-46433661I565685J565685D01*
G01*
X164702161Y-46433661D01*
G75*
G02*
X165833531Y-46433661I565685J-565685D01*
G01*
X165833531Y-46433661D01*
G75*
G02*
X165833531Y-47565031I-565685J-565685D01*
G01*
G37*
G36*
X171787371Y-52387500D02*
G01*
X170656000Y-53518871D01*
X169524629Y-52387500D01*
X170656000Y-51256129D01*
X171787371Y-52387500D01*
G37*
G04 #@! TD*
G04 #@! TO.C,D20*
G36*
G01*
X161191469Y-47565031D02*
X161191469Y-47565031D01*
G75*
G02*
X161191469Y-46433661I565685J565685D01*
G01*
X161191469Y-46433661D01*
G75*
G02*
X162322839Y-46433661I565685J-565685D01*
G01*
X162322839Y-46433661D01*
G75*
G02*
X162322839Y-47565031I-565685J-565685D01*
G01*
X162322839Y-47565031D01*
G75*
G02*
X161191469Y-47565031I-565685J565685D01*
G01*
G37*
G36*
X156369000Y-53518871D02*
G01*
X155237629Y-52387500D01*
X156369000Y-51256129D01*
X157500371Y-52387500D01*
X156369000Y-53518871D01*
G37*
G04 #@! TD*
G04 #@! TO.C,D19*
G36*
G01*
X148371531Y-60384969D02*
X148371531Y-60384969D01*
G75*
G02*
X148371531Y-61516339I-565685J-565685D01*
G01*
X148371531Y-61516339D01*
G75*
G02*
X147240161Y-61516339I-565685J565685D01*
G01*
X147240161Y-61516339D01*
G75*
G02*
X147240161Y-60384969I565685J565685D01*
G01*
X147240161Y-60384969D01*
G75*
G02*
X148371531Y-60384969I565685J-565685D01*
G01*
G37*
G36*
X153194000Y-54431129D02*
G01*
X154325371Y-55562500D01*
X153194000Y-56693871D01*
X152062629Y-55562500D01*
X153194000Y-54431129D01*
G37*
G04 #@! TD*
G04 #@! TO.C,D18*
G36*
G01*
X161191469Y-60384969D02*
X161191469Y-60384969D01*
G75*
G02*
X162322839Y-60384969I565685J-565685D01*
G01*
X162322839Y-60384969D01*
G75*
G02*
X162322839Y-61516339I-565685J-565685D01*
G01*
X162322839Y-61516339D01*
G75*
G02*
X161191469Y-61516339I-565685J565685D01*
G01*
X161191469Y-61516339D01*
G75*
G02*
X161191469Y-60384969I565685J565685D01*
G01*
G37*
G36*
X155237629Y-55562500D02*
G01*
X156369000Y-54431129D01*
X157500371Y-55562500D01*
X156369000Y-56693871D01*
X155237629Y-55562500D01*
G37*
G04 #@! TD*
G04 #@! TO.C,D17*
G36*
G01*
X148371531Y-47565031D02*
X148371531Y-47565031D01*
G75*
G02*
X147240161Y-47565031I-565685J565685D01*
G01*
X147240161Y-47565031D01*
G75*
G02*
X147240161Y-46433661I565685J565685D01*
G01*
X147240161Y-46433661D01*
G75*
G02*
X148371531Y-46433661I565685J-565685D01*
G01*
X148371531Y-46433661D01*
G75*
G02*
X148371531Y-47565031I-565685J-565685D01*
G01*
G37*
G36*
X154325371Y-52387500D02*
G01*
X153194000Y-53518871D01*
X152062629Y-52387500D01*
X153194000Y-51256129D01*
X154325371Y-52387500D01*
G37*
G04 #@! TD*
G04 #@! TO.C,D16*
G36*
G01*
X143728469Y-47565031D02*
X143728469Y-47565031D01*
G75*
G02*
X143728469Y-46433661I565685J565685D01*
G01*
X143728469Y-46433661D01*
G75*
G02*
X144859839Y-46433661I565685J-565685D01*
G01*
X144859839Y-46433661D01*
G75*
G02*
X144859839Y-47565031I-565685J-565685D01*
G01*
X144859839Y-47565031D01*
G75*
G02*
X143728469Y-47565031I-565685J565685D01*
G01*
G37*
G36*
X138906000Y-53518871D02*
G01*
X137774629Y-52387500D01*
X138906000Y-51256129D01*
X140037371Y-52387500D01*
X138906000Y-53518871D01*
G37*
G04 #@! TD*
G04 #@! TO.C,D15*
G36*
G01*
X130908531Y-60384969D02*
X130908531Y-60384969D01*
G75*
G02*
X130908531Y-61516339I-565685J-565685D01*
G01*
X130908531Y-61516339D01*
G75*
G02*
X129777161Y-61516339I-565685J565685D01*
G01*
X129777161Y-61516339D01*
G75*
G02*
X129777161Y-60384969I565685J565685D01*
G01*
X129777161Y-60384969D01*
G75*
G02*
X130908531Y-60384969I565685J-565685D01*
G01*
G37*
G36*
X135731000Y-54431129D02*
G01*
X136862371Y-55562500D01*
X135731000Y-56693871D01*
X134599629Y-55562500D01*
X135731000Y-54431129D01*
G37*
G04 #@! TD*
G04 #@! TO.C,D14*
G36*
G01*
X143728469Y-60384969D02*
X143728469Y-60384969D01*
G75*
G02*
X144859839Y-60384969I565685J-565685D01*
G01*
X144859839Y-60384969D01*
G75*
G02*
X144859839Y-61516339I-565685J-565685D01*
G01*
X144859839Y-61516339D01*
G75*
G02*
X143728469Y-61516339I-565685J565685D01*
G01*
X143728469Y-61516339D01*
G75*
G02*
X143728469Y-60384969I565685J565685D01*
G01*
G37*
G36*
X137774629Y-55562500D02*
G01*
X138906000Y-54431129D01*
X140037371Y-55562500D01*
X138906000Y-56693871D01*
X137774629Y-55562500D01*
G37*
G04 #@! TD*
G04 #@! TO.C,D13*
G36*
G01*
X130908531Y-47565031D02*
X130908531Y-47565031D01*
G75*
G02*
X129777161Y-47565031I-565685J565685D01*
G01*
X129777161Y-47565031D01*
G75*
G02*
X129777161Y-46433661I565685J565685D01*
G01*
X129777161Y-46433661D01*
G75*
G02*
X130908531Y-46433661I565685J-565685D01*
G01*
X130908531Y-46433661D01*
G75*
G02*
X130908531Y-47565031I-565685J-565685D01*
G01*
G37*
G36*
X136862371Y-52387500D02*
G01*
X135731000Y-53518871D01*
X134599629Y-52387500D01*
X135731000Y-51256129D01*
X136862371Y-52387500D01*
G37*
G04 #@! TD*
G04 #@! TO.C,D12*
G36*
G01*
X126266469Y-47565031D02*
X126266469Y-47565031D01*
G75*
G02*
X126266469Y-46433661I565685J565685D01*
G01*
X126266469Y-46433661D01*
G75*
G02*
X127397839Y-46433661I565685J-565685D01*
G01*
X127397839Y-46433661D01*
G75*
G02*
X127397839Y-47565031I-565685J-565685D01*
G01*
X127397839Y-47565031D01*
G75*
G02*
X126266469Y-47565031I-565685J565685D01*
G01*
G37*
G36*
X121444000Y-53518871D02*
G01*
X120312629Y-52387500D01*
X121444000Y-51256129D01*
X122575371Y-52387500D01*
X121444000Y-53518871D01*
G37*
G04 #@! TD*
G04 #@! TO.C,D11*
G36*
G01*
X113446531Y-60384969D02*
X113446531Y-60384969D01*
G75*
G02*
X113446531Y-61516339I-565685J-565685D01*
G01*
X113446531Y-61516339D01*
G75*
G02*
X112315161Y-61516339I-565685J565685D01*
G01*
X112315161Y-61516339D01*
G75*
G02*
X112315161Y-60384969I565685J565685D01*
G01*
X112315161Y-60384969D01*
G75*
G02*
X113446531Y-60384969I565685J-565685D01*
G01*
G37*
G36*
X118269000Y-54431129D02*
G01*
X119400371Y-55562500D01*
X118269000Y-56693871D01*
X117137629Y-55562500D01*
X118269000Y-54431129D01*
G37*
G04 #@! TD*
G04 #@! TO.C,D10*
G36*
G01*
X126266469Y-60384969D02*
X126266469Y-60384969D01*
G75*
G02*
X127397839Y-60384969I565685J-565685D01*
G01*
X127397839Y-60384969D01*
G75*
G02*
X127397839Y-61516339I-565685J-565685D01*
G01*
X127397839Y-61516339D01*
G75*
G02*
X126266469Y-61516339I-565685J565685D01*
G01*
X126266469Y-61516339D01*
G75*
G02*
X126266469Y-60384969I565685J565685D01*
G01*
G37*
G36*
X120312629Y-55562500D02*
G01*
X121444000Y-54431129D01*
X122575371Y-55562500D01*
X121444000Y-56693871D01*
X120312629Y-55562500D01*
G37*
G04 #@! TD*
G04 #@! TO.C,D9*
G36*
G01*
X113446531Y-47565031D02*
X113446531Y-47565031D01*
G75*
G02*
X112315161Y-47565031I-565685J565685D01*
G01*
X112315161Y-47565031D01*
G75*
G02*
X112315161Y-46433661I565685J565685D01*
G01*
X112315161Y-46433661D01*
G75*
G02*
X113446531Y-46433661I565685J-565685D01*
G01*
X113446531Y-46433661D01*
G75*
G02*
X113446531Y-47565031I-565685J-565685D01*
G01*
G37*
G36*
X119400371Y-52387500D02*
G01*
X118269000Y-53518871D01*
X117137629Y-52387500D01*
X118269000Y-51256129D01*
X119400371Y-52387500D01*
G37*
G04 #@! TD*
G04 #@! TO.C,D8*
G36*
G01*
X108803469Y-47565031D02*
X108803469Y-47565031D01*
G75*
G02*
X108803469Y-46433661I565685J565685D01*
G01*
X108803469Y-46433661D01*
G75*
G02*
X109934839Y-46433661I565685J-565685D01*
G01*
X109934839Y-46433661D01*
G75*
G02*
X109934839Y-47565031I-565685J-565685D01*
G01*
X109934839Y-47565031D01*
G75*
G02*
X108803469Y-47565031I-565685J565685D01*
G01*
G37*
G36*
X103981000Y-53518871D02*
G01*
X102849629Y-52387500D01*
X103981000Y-51256129D01*
X105112371Y-52387500D01*
X103981000Y-53518871D01*
G37*
G04 #@! TD*
G04 #@! TO.C,D7*
G36*
G01*
X95983531Y-60384969D02*
X95983531Y-60384969D01*
G75*
G02*
X95983531Y-61516339I-565685J-565685D01*
G01*
X95983531Y-61516339D01*
G75*
G02*
X94852161Y-61516339I-565685J565685D01*
G01*
X94852161Y-61516339D01*
G75*
G02*
X94852161Y-60384969I565685J565685D01*
G01*
X94852161Y-60384969D01*
G75*
G02*
X95983531Y-60384969I565685J-565685D01*
G01*
G37*
G36*
X100806000Y-54431129D02*
G01*
X101937371Y-55562500D01*
X100806000Y-56693871D01*
X99674629Y-55562500D01*
X100806000Y-54431129D01*
G37*
G04 #@! TD*
G04 #@! TO.C,D6*
G36*
G01*
X108803469Y-60384969D02*
X108803469Y-60384969D01*
G75*
G02*
X109934839Y-60384969I565685J-565685D01*
G01*
X109934839Y-60384969D01*
G75*
G02*
X109934839Y-61516339I-565685J-565685D01*
G01*
X109934839Y-61516339D01*
G75*
G02*
X108803469Y-61516339I-565685J565685D01*
G01*
X108803469Y-61516339D01*
G75*
G02*
X108803469Y-60384969I565685J565685D01*
G01*
G37*
G36*
X102849629Y-55562500D02*
G01*
X103981000Y-54431129D01*
X105112371Y-55562500D01*
X103981000Y-56693871D01*
X102849629Y-55562500D01*
G37*
G04 #@! TD*
G04 #@! TO.C,D5*
G36*
G01*
X95983531Y-47565031D02*
X95983531Y-47565031D01*
G75*
G02*
X94852161Y-47565031I-565685J565685D01*
G01*
X94852161Y-47565031D01*
G75*
G02*
X94852161Y-46433661I565685J565685D01*
G01*
X94852161Y-46433661D01*
G75*
G02*
X95983531Y-46433661I565685J-565685D01*
G01*
X95983531Y-46433661D01*
G75*
G02*
X95983531Y-47565031I-565685J-565685D01*
G01*
G37*
G36*
X101937371Y-52387500D02*
G01*
X100806000Y-53518871D01*
X99674629Y-52387500D01*
X100806000Y-51256129D01*
X101937371Y-52387500D01*
G37*
G04 #@! TD*
G04 #@! TO.C,D4*
G36*
G01*
X91341269Y-47565031D02*
X91341269Y-47565031D01*
G75*
G02*
X91341269Y-46433661I565685J565685D01*
G01*
X91341269Y-46433661D01*
G75*
G02*
X92472639Y-46433661I565685J-565685D01*
G01*
X92472639Y-46433661D01*
G75*
G02*
X92472639Y-47565031I-565685J-565685D01*
G01*
X92472639Y-47565031D01*
G75*
G02*
X91341269Y-47565031I-565685J565685D01*
G01*
G37*
G36*
X86518800Y-53518871D02*
G01*
X85387429Y-52387500D01*
X86518800Y-51256129D01*
X87650171Y-52387500D01*
X86518800Y-53518871D01*
G37*
G04 #@! TD*
G04 #@! TO.C,D3*
G36*
G01*
X78521331Y-60384969D02*
X78521331Y-60384969D01*
G75*
G02*
X78521331Y-61516339I-565685J-565685D01*
G01*
X78521331Y-61516339D01*
G75*
G02*
X77389961Y-61516339I-565685J565685D01*
G01*
X77389961Y-61516339D01*
G75*
G02*
X77389961Y-60384969I565685J565685D01*
G01*
X77389961Y-60384969D01*
G75*
G02*
X78521331Y-60384969I565685J-565685D01*
G01*
G37*
G36*
X83343800Y-54431129D02*
G01*
X84475171Y-55562500D01*
X83343800Y-56693871D01*
X82212429Y-55562500D01*
X83343800Y-54431129D01*
G37*
G04 #@! TD*
G04 #@! TO.C,D2*
G36*
G01*
X91341269Y-60384969D02*
X91341269Y-60384969D01*
G75*
G02*
X92472639Y-60384969I565685J-565685D01*
G01*
X92472639Y-60384969D01*
G75*
G02*
X92472639Y-61516339I-565685J-565685D01*
G01*
X92472639Y-61516339D01*
G75*
G02*
X91341269Y-61516339I-565685J565685D01*
G01*
X91341269Y-61516339D01*
G75*
G02*
X91341269Y-60384969I565685J565685D01*
G01*
G37*
G36*
X85387429Y-55562500D02*
G01*
X86518800Y-54431129D01*
X87650171Y-55562500D01*
X86518800Y-56693871D01*
X85387429Y-55562500D01*
G37*
G04 #@! TD*
G04 #@! TO.C,D1*
G36*
G01*
X78521331Y-47565031D02*
X78521331Y-47565031D01*
G75*
G02*
X77389961Y-47565031I-565685J565685D01*
G01*
X77389961Y-47565031D01*
G75*
G02*
X77389961Y-46433661I565685J565685D01*
G01*
X77389961Y-46433661D01*
G75*
G02*
X78521331Y-46433661I565685J-565685D01*
G01*
X78521331Y-46433661D01*
G75*
G02*
X78521331Y-47565031I-565685J-565685D01*
G01*
G37*
G36*
X84475171Y-52387500D02*
G01*
X83343800Y-53518871D01*
X82212429Y-52387500D01*
X83343800Y-51256129D01*
X84475171Y-52387500D01*
G37*
G04 #@! TD*
M02*
