G04 #@! TF.GenerationSoftware,KiCad,Pcbnew,5.1.7*
G04 #@! TF.CreationDate,2020-11-29T13:06:50+02:00*
G04 #@! TF.ProjectId,PM THT Van,504d2054-4854-4205-9661-6e2e6b696361,rev?*
G04 #@! TF.SameCoordinates,Original*
G04 #@! TF.FileFunction,Copper,L1,Top*
G04 #@! TF.FilePolarity,Positive*
%FSLAX46Y46*%
G04 Gerber Fmt 4.6, Leading zero omitted, Abs format (unit mm)*
G04 Created by KiCad (PCBNEW 5.1.7) date 2020-11-29 13:06:50*
%MOMM*%
%LPD*%
G01*
G04 APERTURE LIST*
G04 #@! TA.AperFunction,ComponentPad*
%ADD10C,2.250000*%
G04 #@! TD*
G04 #@! TA.AperFunction,ComponentPad*
%ADD11C,0.100000*%
G04 #@! TD*
G04 #@! TA.AperFunction,ComponentPad*
%ADD12C,1.752600*%
G04 #@! TD*
G04 #@! TA.AperFunction,ComponentPad*
%ADD13R,1.752600X1.752600*%
G04 #@! TD*
G04 #@! TA.AperFunction,ViaPad*
%ADD14C,0.800000*%
G04 #@! TD*
G04 #@! TA.AperFunction,Conductor*
%ADD15C,0.250000*%
G04 #@! TD*
G04 APERTURE END LIST*
D10*
G04 #@! TO.P,SW19,2*
G04 #@! TO.N,COL4*
X139065000Y-125095000D03*
G04 #@! TO.P,SW19,1*
G04 #@! TO.N,Net-(D19-Pad2)*
X132715000Y-127635000D03*
G04 #@! TD*
G04 #@! TO.P,SW26,2*
G04 #@! TO.N,COL6*
X179546000Y-125095000D03*
G04 #@! TO.P,SW26,1*
G04 #@! TO.N,Net-(D26-Pad2)*
X173196000Y-127635000D03*
G04 #@! TD*
G04 #@! TO.P,SW46,2*
G04 #@! TO.N,COL11*
X267652000Y-67945000D03*
G04 #@! TO.P,SW46,1*
G04 #@! TO.N,Net-(D43-Pad2)*
X261302000Y-70485000D03*
G04 #@! TD*
G04 #@! TO.P,SW40,2*
G04 #@! TO.N,COL11*
X267652000Y-125095000D03*
G04 #@! TO.P,SW40,1*
G04 #@! TO.N,Net-(D41-Pad2)*
X261302000Y-127635000D03*
G04 #@! TD*
G04 #@! TO.P,SW3,2*
G04 #@! TO.N,COL0*
X58102500Y-106045000D03*
G04 #@! TO.P,SW3,1*
G04 #@! TO.N,Net-(D3-Pad2)*
X51752500Y-108585000D03*
G04 #@! TD*
G04 #@! TO.P,SW47,2*
G04 #@! TO.N,COL11*
X270034000Y-86995000D03*
G04 #@! TO.P,SW47,1*
G04 #@! TO.N,Net-(D44-Pad2)*
X263684000Y-89535000D03*
G04 #@! TD*
G04 #@! TO.P,SW35,2*
G04 #@! TO.N,COL8*
X236696000Y-125095000D03*
G04 #@! TO.P,SW35,1*
G04 #@! TO.N,Net-(D34-Pad2)*
X230346000Y-127635000D03*
G04 #@! TD*
G04 #@! TO.P,SW31,2*
G04 #@! TO.N,COL7*
X212884000Y-125095000D03*
G04 #@! TO.P,SW31,1*
G04 #@! TO.N,Net-(D30-Pad2)*
X206534000Y-127635000D03*
G04 #@! TD*
G04 #@! TO.P,SW8,2*
G04 #@! TO.N,COL1*
X79533800Y-125095000D03*
G04 #@! TO.P,SW8,1*
G04 #@! TO.N,Net-(D8-Pad2)*
X73183800Y-127635000D03*
G04 #@! TD*
G04 #@! TO.P,SW30,2*
G04 #@! TO.N,COL7*
X210502000Y-125095000D03*
G04 #@! TO.P,SW30,1*
G04 #@! TO.N,Net-(D30-Pad2)*
X204152000Y-127635000D03*
G04 #@! TD*
G04 #@! TO.P,SW12,2*
G04 #@! TO.N,COL3*
X105728000Y-125095000D03*
G04 #@! TO.P,SW12,1*
G04 #@! TO.N,N/C*
X99378000Y-127635000D03*
G04 #@! TD*
G04 #@! TO.P,SW4,2*
G04 #@! TO.N,COL0*
X53340000Y-125095000D03*
G04 #@! TO.P,SW4,1*
G04 #@! TO.N,Net-(D4-Pad2)*
X46990000Y-127635000D03*
G04 #@! TD*
G04 #@! TO.P,SW2,2*
G04 #@! TO.N,COL0*
X53340000Y-86995000D03*
G04 #@! TO.P,SW2,1*
G04 #@! TO.N,Net-(D2-Pad2)*
X46990000Y-89535000D03*
G04 #@! TD*
G04 #@! TO.P,SW53,2*
G04 #@! TO.N,COL3*
X108109000Y-125095000D03*
G04 #@! TO.P,SW53,1*
G04 #@! TO.N,N/C*
X101759000Y-127635000D03*
G04 #@! TD*
G04 #@! TO.P,SW52,2*
G04 #@! TO.N,COL2*
X89058800Y-125095000D03*
G04 #@! TO.P,SW52,1*
G04 #@! TO.N,Net-(D12-Pad2)*
X82708800Y-127635000D03*
G04 #@! TD*
G04 #@! TO.P,SW51,2*
G04 #@! TO.N,COL1*
X70008800Y-125095000D03*
G04 #@! TO.P,SW51,1*
G04 #@! TO.N,Net-(D8-Pad2)*
X63658800Y-127635000D03*
G04 #@! TD*
G04 #@! TO.P,SW50,2*
G04 #@! TO.N,COL0*
X50958800Y-125095000D03*
G04 #@! TO.P,SW50,1*
G04 #@! TO.N,Net-(D4-Pad2)*
X44608800Y-127635000D03*
G04 #@! TD*
G04 #@! TO.P,SW48,2*
G04 #@! TO.N,COL11*
X274796000Y-106045000D03*
G04 #@! TO.P,SW48,1*
G04 #@! TO.N,Net-(D45-Pad2)*
X268446000Y-108585000D03*
G04 #@! TD*
G04 #@! TO.P,SW45,2*
G04 #@! TO.N,COL10*
X241459000Y-67945000D03*
G04 #@! TO.P,SW45,1*
G04 #@! TO.N,Net-(D42-Pad2)*
X235109000Y-70485000D03*
G04 #@! TD*
G04 #@! TO.P,SW44,2*
G04 #@! TO.N,COL11*
X274796000Y-125095000D03*
G04 #@! TO.P,SW44,1*
G04 #@! TO.N,Net-(D41-Pad2)*
X268446000Y-127635000D03*
G04 #@! TD*
G04 #@! TO.P,SW43,2*
G04 #@! TO.N,COL10*
X255746000Y-106045000D03*
G04 #@! TO.P,SW43,1*
G04 #@! TO.N,Net-(D40-Pad2)*
X249396000Y-108585000D03*
G04 #@! TD*
G04 #@! TO.P,SW42,2*
G04 #@! TO.N,COL10*
X246221000Y-86995000D03*
G04 #@! TO.P,SW42,1*
G04 #@! TO.N,Net-(D39-Pad2)*
X239871000Y-89535000D03*
G04 #@! TD*
G04 #@! TO.P,SW41,2*
G04 #@! TO.N,COL9*
X255746000Y-125095000D03*
G04 #@! TO.P,SW41,1*
G04 #@! TO.N,Net-(D38-Pad2)*
X249396000Y-127635000D03*
G04 #@! TD*
G04 #@! TO.P,SW39,2*
G04 #@! TO.N,COL9*
X236696000Y-106045000D03*
G04 #@! TO.P,SW39,1*
G04 #@! TO.N,Net-(D37-Pad2)*
X230346000Y-108585000D03*
G04 #@! TD*
G04 #@! TO.P,SW38,2*
G04 #@! TO.N,COL9*
X227171000Y-86995000D03*
G04 #@! TO.P,SW38,1*
G04 #@! TO.N,Net-(D36-Pad2)*
X220821000Y-89535000D03*
G04 #@! TD*
G04 #@! TO.P,SW37,2*
G04 #@! TO.N,COL9*
X222409000Y-67945000D03*
G04 #@! TO.P,SW37,1*
G04 #@! TO.N,Net-(D35-Pad2)*
X216059000Y-70485000D03*
G04 #@! TD*
G04 #@! TO.P,SW36,2*
G04 #@! TO.N,COL8*
X236696000Y-125095000D03*
G04 #@! TO.P,SW36,1*
G04 #@! TO.N,Net-(D34-Pad2)*
X230346000Y-127635000D03*
G04 #@! TD*
G04 #@! TO.P,SW34,2*
G04 #@! TO.N,COL8*
X217646000Y-106045000D03*
G04 #@! TO.P,SW34,1*
G04 #@! TO.N,Net-(D33-Pad2)*
X211296000Y-108585000D03*
G04 #@! TD*
G04 #@! TO.P,SW33,2*
G04 #@! TO.N,COL8*
X208121000Y-86995000D03*
G04 #@! TO.P,SW33,1*
G04 #@! TO.N,Net-(D32-Pad2)*
X201771000Y-89535000D03*
G04 #@! TD*
G04 #@! TO.P,SW32,2*
G04 #@! TO.N,COL8*
X203359000Y-67945000D03*
G04 #@! TO.P,SW32,1*
G04 #@! TO.N,Net-(D31-Pad2)*
X197009000Y-70485000D03*
G04 #@! TD*
G04 #@! TO.P,SW29,2*
G04 #@! TO.N,COL7*
X198596000Y-106045000D03*
G04 #@! TO.P,SW29,1*
G04 #@! TO.N,Net-(D29-Pad2)*
X192246000Y-108585000D03*
G04 #@! TD*
G04 #@! TO.P,SW28,2*
G04 #@! TO.N,COL7*
X189071000Y-86995000D03*
G04 #@! TO.P,SW28,1*
G04 #@! TO.N,Net-(D28-Pad2)*
X182721000Y-89535000D03*
G04 #@! TD*
G04 #@! TO.P,SW27,2*
G04 #@! TO.N,COL7*
X184309000Y-67945000D03*
G04 #@! TO.P,SW27,1*
G04 #@! TO.N,Net-(D27-Pad2)*
X177959000Y-70485000D03*
G04 #@! TD*
G04 #@! TO.P,SW25,2*
G04 #@! TO.N,COL6*
X179546000Y-106045000D03*
G04 #@! TO.P,SW25,1*
G04 #@! TO.N,Net-(D25-Pad2)*
X173196000Y-108585000D03*
G04 #@! TD*
G04 #@! TO.P,SW24,2*
G04 #@! TO.N,COL6*
X170021000Y-86995000D03*
G04 #@! TO.P,SW24,1*
G04 #@! TO.N,Net-(D24-Pad2)*
X163671000Y-89535000D03*
G04 #@! TD*
G04 #@! TO.P,SW23,2*
G04 #@! TO.N,COL6*
X165259000Y-67945000D03*
G04 #@! TO.P,SW23,1*
G04 #@! TO.N,Net-(D23-Pad2)*
X158909000Y-70485000D03*
G04 #@! TD*
G04 #@! TO.P,SW22,2*
G04 #@! TO.N,COL5*
X160496000Y-106045000D03*
G04 #@! TO.P,SW22,1*
G04 #@! TO.N,Net-(D22-Pad2)*
X154146000Y-108585000D03*
G04 #@! TD*
G04 #@! TO.P,SW21,2*
G04 #@! TO.N,COL5*
X150971000Y-86995000D03*
G04 #@! TO.P,SW21,1*
G04 #@! TO.N,Net-(D21-Pad2)*
X144621000Y-89535000D03*
G04 #@! TD*
G04 #@! TO.P,SW20,2*
G04 #@! TO.N,COL5*
X146209000Y-67945000D03*
G04 #@! TO.P,SW20,1*
G04 #@! TO.N,Net-(D20-Pad2)*
X139859000Y-70485000D03*
G04 #@! TD*
G04 #@! TO.P,SW18,2*
G04 #@! TO.N,COL4*
X141446000Y-106045000D03*
G04 #@! TO.P,SW18,1*
G04 #@! TO.N,Net-(D18-Pad2)*
X135096000Y-108585000D03*
G04 #@! TD*
G04 #@! TO.P,SW17,2*
G04 #@! TO.N,COL4*
X131921000Y-86995000D03*
G04 #@! TO.P,SW17,1*
G04 #@! TO.N,Net-(D17-Pad2)*
X125571000Y-89535000D03*
G04 #@! TD*
G04 #@! TO.P,SW16,2*
G04 #@! TO.N,COL4*
X127159000Y-67945000D03*
G04 #@! TO.P,SW16,1*
G04 #@! TO.N,Net-(D16-Pad2)*
X120809000Y-70485000D03*
G04 #@! TD*
G04 #@! TO.P,SW15,2*
G04 #@! TO.N,COL3*
X122396000Y-106045000D03*
G04 #@! TO.P,SW15,1*
G04 #@! TO.N,Net-(D15-Pad2)*
X116046000Y-108585000D03*
G04 #@! TD*
G04 #@! TO.P,SW14,2*
G04 #@! TO.N,COL3*
X112871000Y-86995000D03*
G04 #@! TO.P,SW14,1*
G04 #@! TO.N,Net-(D14-Pad2)*
X106521000Y-89535000D03*
G04 #@! TD*
G04 #@! TO.P,SW13,2*
G04 #@! TO.N,COL3*
X108109000Y-67945000D03*
G04 #@! TO.P,SW13,1*
G04 #@! TO.N,Net-(D13-Pad2)*
X101759000Y-70485000D03*
G04 #@! TD*
G04 #@! TO.P,SW11,2*
G04 #@! TO.N,COL2*
X103346000Y-106045000D03*
G04 #@! TO.P,SW11,1*
G04 #@! TO.N,Net-(D11-Pad2)*
X96996000Y-108585000D03*
G04 #@! TD*
G04 #@! TO.P,SW10,2*
G04 #@! TO.N,COL2*
X93821200Y-86995000D03*
G04 #@! TO.P,SW10,1*
G04 #@! TO.N,Net-(D10-Pad2)*
X87471200Y-89535000D03*
G04 #@! TD*
G04 #@! TO.P,SW9,2*
G04 #@! TO.N,COL2*
X89058800Y-67945000D03*
G04 #@! TO.P,SW9,1*
G04 #@! TO.N,Net-(D9-Pad2)*
X82708800Y-70485000D03*
G04 #@! TD*
G04 #@! TO.P,SW7,2*
G04 #@! TO.N,COL1*
X84296200Y-106045000D03*
G04 #@! TO.P,SW7,1*
G04 #@! TO.N,Net-(D7-Pad2)*
X77946200Y-108585000D03*
G04 #@! TD*
G04 #@! TO.P,SW6,2*
G04 #@! TO.N,COL1*
X74771200Y-86995000D03*
G04 #@! TO.P,SW6,1*
G04 #@! TO.N,Net-(D6-Pad2)*
X68421200Y-89535000D03*
G04 #@! TD*
G04 #@! TO.P,SW5,2*
G04 #@! TO.N,COL1*
X70008800Y-67945000D03*
G04 #@! TO.P,SW5,1*
G04 #@! TO.N,Net-(D5-Pad2)*
X63658800Y-70485000D03*
G04 #@! TD*
G04 #@! TO.P,SW1,2*
G04 #@! TO.N,COL0*
X50958800Y-67945000D03*
G04 #@! TO.P,SW1,1*
G04 #@! TO.N,Net-(D1-Pad2)*
X44608800Y-70485000D03*
G04 #@! TD*
G04 #@! TO.P,D46,2*
G04 #@! TO.N,N/C*
G04 #@! TA.AperFunction,ComponentPad*
G36*
G01*
X270608531Y-47565031D02*
X270608531Y-47565031D01*
G75*
G02*
X269477161Y-47565031I-565685J565685D01*
G01*
X269477161Y-47565031D01*
G75*
G02*
X269477161Y-46433661I565685J565685D01*
G01*
X269477161Y-46433661D01*
G75*
G02*
X270608531Y-46433661I565685J-565685D01*
G01*
X270608531Y-46433661D01*
G75*
G02*
X270608531Y-47565031I-565685J-565685D01*
G01*
G37*
G04 #@! TD.AperFunction*
G04 #@! TA.AperFunction,ComponentPad*
D11*
G04 #@! TO.P,D46,1*
G04 #@! TO.N,ROW3*
G36*
X276562371Y-52387500D02*
G01*
X275431000Y-53518871D01*
X274299629Y-52387500D01*
X275431000Y-51256129D01*
X276562371Y-52387500D01*
G37*
G04 #@! TD.AperFunction*
G04 #@! TD*
D12*
G04 #@! TO.P,U1,24*
G04 #@! TO.N,Net-(U1-Pad24)*
X43973800Y-45561200D03*
G04 #@! TO.P,U1,12*
G04 #@! TO.N,COL3*
X71913800Y-60801200D03*
G04 #@! TO.P,U1,23*
G04 #@! TO.N,Net-(U1-Pad23)*
X46513800Y-45561200D03*
G04 #@! TO.P,U1,22*
G04 #@! TO.N,Net-(U1-Pad22)*
X49053800Y-45561200D03*
G04 #@! TO.P,U1,21*
G04 #@! TO.N,Net-(U1-Pad21)*
X51593800Y-45561200D03*
G04 #@! TO.P,U1,20*
G04 #@! TO.N,COL4*
X54133800Y-45561200D03*
G04 #@! TO.P,U1,19*
G04 #@! TO.N,COL5*
X56673800Y-45561200D03*
G04 #@! TO.P,U1,18*
G04 #@! TO.N,COL6*
X59213800Y-45561200D03*
G04 #@! TO.P,U1,17*
G04 #@! TO.N,COL7*
X61753800Y-45561200D03*
G04 #@! TO.P,U1,16*
G04 #@! TO.N,COL8*
X64293800Y-45561200D03*
G04 #@! TO.P,U1,15*
G04 #@! TO.N,COL9*
X66833800Y-45561200D03*
G04 #@! TO.P,U1,14*
G04 #@! TO.N,COL10*
X69373800Y-45561200D03*
G04 #@! TO.P,U1,13*
G04 #@! TO.N,COL11*
X71913800Y-45561200D03*
G04 #@! TO.P,U1,11*
G04 #@! TO.N,COL2*
X69373800Y-60801200D03*
G04 #@! TO.P,U1,10*
G04 #@! TO.N,COL1*
X66833800Y-60801200D03*
G04 #@! TO.P,U1,9*
G04 #@! TO.N,COL0*
X64293800Y-60801200D03*
G04 #@! TO.P,U1,8*
G04 #@! TO.N,ROW3*
X61753800Y-60801200D03*
G04 #@! TO.P,U1,7*
G04 #@! TO.N,ROW2*
X59213800Y-60801200D03*
G04 #@! TO.P,U1,6*
G04 #@! TO.N,ROW1*
X56673800Y-60801200D03*
G04 #@! TO.P,U1,5*
G04 #@! TO.N,ROW0*
X54133800Y-60801200D03*
G04 #@! TO.P,U1,4*
G04 #@! TO.N,Net-(U1-Pad4)*
X51593800Y-60801200D03*
G04 #@! TO.P,U1,3*
G04 #@! TO.N,Net-(U1-Pad3)*
X49053800Y-60801200D03*
G04 #@! TO.P,U1,2*
G04 #@! TO.N,Net-(U1-Pad2)*
X46513800Y-60801200D03*
D13*
G04 #@! TO.P,U1,1*
G04 #@! TO.N,Net-(U1-Pad1)*
X43973800Y-60801200D03*
G04 #@! TD*
G04 #@! TO.P,D45,2*
G04 #@! TO.N,Net-(D45-Pad2)*
G04 #@! TA.AperFunction,ComponentPad*
G36*
G01*
X270608531Y-60384969D02*
X270608531Y-60384969D01*
G75*
G02*
X270608531Y-61516339I-565685J-565685D01*
G01*
X270608531Y-61516339D01*
G75*
G02*
X269477161Y-61516339I-565685J565685D01*
G01*
X269477161Y-61516339D01*
G75*
G02*
X269477161Y-60384969I565685J565685D01*
G01*
X269477161Y-60384969D01*
G75*
G02*
X270608531Y-60384969I565685J-565685D01*
G01*
G37*
G04 #@! TD.AperFunction*
G04 #@! TA.AperFunction,ComponentPad*
D11*
G04 #@! TO.P,D45,1*
G04 #@! TO.N,ROW2*
G36*
X275431000Y-54431129D02*
G01*
X276562371Y-55562500D01*
X275431000Y-56693871D01*
X274299629Y-55562500D01*
X275431000Y-54431129D01*
G37*
G04 #@! TD.AperFunction*
G04 #@! TD*
G04 #@! TO.P,D44,2*
G04 #@! TO.N,Net-(D44-Pad2)*
G04 #@! TA.AperFunction,ComponentPad*
G36*
G01*
X265966469Y-47565031D02*
X265966469Y-47565031D01*
G75*
G02*
X265966469Y-46433661I565685J565685D01*
G01*
X265966469Y-46433661D01*
G75*
G02*
X267097839Y-46433661I565685J-565685D01*
G01*
X267097839Y-46433661D01*
G75*
G02*
X267097839Y-47565031I-565685J-565685D01*
G01*
X267097839Y-47565031D01*
G75*
G02*
X265966469Y-47565031I-565685J565685D01*
G01*
G37*
G04 #@! TD.AperFunction*
G04 #@! TA.AperFunction,ComponentPad*
G04 #@! TO.P,D44,1*
G04 #@! TO.N,ROW1*
G36*
X261144000Y-53518871D02*
G01*
X260012629Y-52387500D01*
X261144000Y-51256129D01*
X262275371Y-52387500D01*
X261144000Y-53518871D01*
G37*
G04 #@! TD.AperFunction*
G04 #@! TD*
G04 #@! TO.P,D43,2*
G04 #@! TO.N,Net-(D43-Pad2)*
G04 #@! TA.AperFunction,ComponentPad*
G36*
G01*
X253146531Y-60384969D02*
X253146531Y-60384969D01*
G75*
G02*
X253146531Y-61516339I-565685J-565685D01*
G01*
X253146531Y-61516339D01*
G75*
G02*
X252015161Y-61516339I-565685J565685D01*
G01*
X252015161Y-61516339D01*
G75*
G02*
X252015161Y-60384969I565685J565685D01*
G01*
X252015161Y-60384969D01*
G75*
G02*
X253146531Y-60384969I565685J-565685D01*
G01*
G37*
G04 #@! TD.AperFunction*
G04 #@! TA.AperFunction,ComponentPad*
G04 #@! TO.P,D43,1*
G04 #@! TO.N,ROW0*
G36*
X257969000Y-54431129D02*
G01*
X259100371Y-55562500D01*
X257969000Y-56693871D01*
X256837629Y-55562500D01*
X257969000Y-54431129D01*
G37*
G04 #@! TD.AperFunction*
G04 #@! TD*
G04 #@! TO.P,D42,2*
G04 #@! TO.N,Net-(D42-Pad2)*
G04 #@! TA.AperFunction,ComponentPad*
G36*
G01*
X265966469Y-60384969D02*
X265966469Y-60384969D01*
G75*
G02*
X267097839Y-60384969I565685J-565685D01*
G01*
X267097839Y-60384969D01*
G75*
G02*
X267097839Y-61516339I-565685J-565685D01*
G01*
X267097839Y-61516339D01*
G75*
G02*
X265966469Y-61516339I-565685J565685D01*
G01*
X265966469Y-61516339D01*
G75*
G02*
X265966469Y-60384969I565685J565685D01*
G01*
G37*
G04 #@! TD.AperFunction*
G04 #@! TA.AperFunction,ComponentPad*
G04 #@! TO.P,D42,1*
G04 #@! TO.N,ROW0*
G36*
X260012629Y-55562500D02*
G01*
X261144000Y-54431129D01*
X262275371Y-55562500D01*
X261144000Y-56693871D01*
X260012629Y-55562500D01*
G37*
G04 #@! TD.AperFunction*
G04 #@! TD*
G04 #@! TO.P,D41,2*
G04 #@! TO.N,Net-(D41-Pad2)*
G04 #@! TA.AperFunction,ComponentPad*
G36*
G01*
X253146531Y-47565031D02*
X253146531Y-47565031D01*
G75*
G02*
X252015161Y-47565031I-565685J565685D01*
G01*
X252015161Y-47565031D01*
G75*
G02*
X252015161Y-46433661I565685J565685D01*
G01*
X252015161Y-46433661D01*
G75*
G02*
X253146531Y-46433661I565685J-565685D01*
G01*
X253146531Y-46433661D01*
G75*
G02*
X253146531Y-47565031I-565685J-565685D01*
G01*
G37*
G04 #@! TD.AperFunction*
G04 #@! TA.AperFunction,ComponentPad*
G04 #@! TO.P,D41,1*
G04 #@! TO.N,ROW3*
G36*
X259100371Y-52387500D02*
G01*
X257969000Y-53518871D01*
X256837629Y-52387500D01*
X257969000Y-51256129D01*
X259100371Y-52387500D01*
G37*
G04 #@! TD.AperFunction*
G04 #@! TD*
G04 #@! TO.P,D40,2*
G04 #@! TO.N,Net-(D40-Pad2)*
G04 #@! TA.AperFunction,ComponentPad*
G36*
G01*
X248503469Y-47565031D02*
X248503469Y-47565031D01*
G75*
G02*
X248503469Y-46433661I565685J565685D01*
G01*
X248503469Y-46433661D01*
G75*
G02*
X249634839Y-46433661I565685J-565685D01*
G01*
X249634839Y-46433661D01*
G75*
G02*
X249634839Y-47565031I-565685J-565685D01*
G01*
X249634839Y-47565031D01*
G75*
G02*
X248503469Y-47565031I-565685J565685D01*
G01*
G37*
G04 #@! TD.AperFunction*
G04 #@! TA.AperFunction,ComponentPad*
G04 #@! TO.P,D40,1*
G04 #@! TO.N,ROW2*
G36*
X243681000Y-53518871D02*
G01*
X242549629Y-52387500D01*
X243681000Y-51256129D01*
X244812371Y-52387500D01*
X243681000Y-53518871D01*
G37*
G04 #@! TD.AperFunction*
G04 #@! TD*
G04 #@! TO.P,D39,2*
G04 #@! TO.N,Net-(D39-Pad2)*
G04 #@! TA.AperFunction,ComponentPad*
G36*
G01*
X235683531Y-60384969D02*
X235683531Y-60384969D01*
G75*
G02*
X235683531Y-61516339I-565685J-565685D01*
G01*
X235683531Y-61516339D01*
G75*
G02*
X234552161Y-61516339I-565685J565685D01*
G01*
X234552161Y-61516339D01*
G75*
G02*
X234552161Y-60384969I565685J565685D01*
G01*
X234552161Y-60384969D01*
G75*
G02*
X235683531Y-60384969I565685J-565685D01*
G01*
G37*
G04 #@! TD.AperFunction*
G04 #@! TA.AperFunction,ComponentPad*
G04 #@! TO.P,D39,1*
G04 #@! TO.N,ROW1*
G36*
X240506000Y-54431129D02*
G01*
X241637371Y-55562500D01*
X240506000Y-56693871D01*
X239374629Y-55562500D01*
X240506000Y-54431129D01*
G37*
G04 #@! TD.AperFunction*
G04 #@! TD*
G04 #@! TO.P,D38,2*
G04 #@! TO.N,Net-(D38-Pad2)*
G04 #@! TA.AperFunction,ComponentPad*
G36*
G01*
X248503469Y-60384969D02*
X248503469Y-60384969D01*
G75*
G02*
X249634839Y-60384969I565685J-565685D01*
G01*
X249634839Y-60384969D01*
G75*
G02*
X249634839Y-61516339I-565685J-565685D01*
G01*
X249634839Y-61516339D01*
G75*
G02*
X248503469Y-61516339I-565685J565685D01*
G01*
X248503469Y-61516339D01*
G75*
G02*
X248503469Y-60384969I565685J565685D01*
G01*
G37*
G04 #@! TD.AperFunction*
G04 #@! TA.AperFunction,ComponentPad*
G04 #@! TO.P,D38,1*
G04 #@! TO.N,ROW3*
G36*
X242549629Y-55562500D02*
G01*
X243681000Y-54431129D01*
X244812371Y-55562500D01*
X243681000Y-56693871D01*
X242549629Y-55562500D01*
G37*
G04 #@! TD.AperFunction*
G04 #@! TD*
G04 #@! TO.P,D37,2*
G04 #@! TO.N,Net-(D37-Pad2)*
G04 #@! TA.AperFunction,ComponentPad*
G36*
G01*
X235683531Y-47565031D02*
X235683531Y-47565031D01*
G75*
G02*
X234552161Y-47565031I-565685J565685D01*
G01*
X234552161Y-47565031D01*
G75*
G02*
X234552161Y-46433661I565685J565685D01*
G01*
X234552161Y-46433661D01*
G75*
G02*
X235683531Y-46433661I565685J-565685D01*
G01*
X235683531Y-46433661D01*
G75*
G02*
X235683531Y-47565031I-565685J-565685D01*
G01*
G37*
G04 #@! TD.AperFunction*
G04 #@! TA.AperFunction,ComponentPad*
G04 #@! TO.P,D37,1*
G04 #@! TO.N,ROW2*
G36*
X241637371Y-52387500D02*
G01*
X240506000Y-53518871D01*
X239374629Y-52387500D01*
X240506000Y-51256129D01*
X241637371Y-52387500D01*
G37*
G04 #@! TD.AperFunction*
G04 #@! TD*
G04 #@! TO.P,D36,2*
G04 #@! TO.N,Net-(D36-Pad2)*
G04 #@! TA.AperFunction,ComponentPad*
G36*
G01*
X231041469Y-47565031D02*
X231041469Y-47565031D01*
G75*
G02*
X231041469Y-46433661I565685J565685D01*
G01*
X231041469Y-46433661D01*
G75*
G02*
X232172839Y-46433661I565685J-565685D01*
G01*
X232172839Y-46433661D01*
G75*
G02*
X232172839Y-47565031I-565685J-565685D01*
G01*
X232172839Y-47565031D01*
G75*
G02*
X231041469Y-47565031I-565685J565685D01*
G01*
G37*
G04 #@! TD.AperFunction*
G04 #@! TA.AperFunction,ComponentPad*
G04 #@! TO.P,D36,1*
G04 #@! TO.N,ROW1*
G36*
X226219000Y-53518871D02*
G01*
X225087629Y-52387500D01*
X226219000Y-51256129D01*
X227350371Y-52387500D01*
X226219000Y-53518871D01*
G37*
G04 #@! TD.AperFunction*
G04 #@! TD*
G04 #@! TO.P,D35,2*
G04 #@! TO.N,Net-(D35-Pad2)*
G04 #@! TA.AperFunction,ComponentPad*
G36*
G01*
X218221531Y-60384969D02*
X218221531Y-60384969D01*
G75*
G02*
X218221531Y-61516339I-565685J-565685D01*
G01*
X218221531Y-61516339D01*
G75*
G02*
X217090161Y-61516339I-565685J565685D01*
G01*
X217090161Y-61516339D01*
G75*
G02*
X217090161Y-60384969I565685J565685D01*
G01*
X217090161Y-60384969D01*
G75*
G02*
X218221531Y-60384969I565685J-565685D01*
G01*
G37*
G04 #@! TD.AperFunction*
G04 #@! TA.AperFunction,ComponentPad*
G04 #@! TO.P,D35,1*
G04 #@! TO.N,ROW0*
G36*
X223044000Y-54431129D02*
G01*
X224175371Y-55562500D01*
X223044000Y-56693871D01*
X221912629Y-55562500D01*
X223044000Y-54431129D01*
G37*
G04 #@! TD.AperFunction*
G04 #@! TD*
G04 #@! TO.P,D34,2*
G04 #@! TO.N,Net-(D34-Pad2)*
G04 #@! TA.AperFunction,ComponentPad*
G36*
G01*
X231041469Y-60384969D02*
X231041469Y-60384969D01*
G75*
G02*
X232172839Y-60384969I565685J-565685D01*
G01*
X232172839Y-60384969D01*
G75*
G02*
X232172839Y-61516339I-565685J-565685D01*
G01*
X232172839Y-61516339D01*
G75*
G02*
X231041469Y-61516339I-565685J565685D01*
G01*
X231041469Y-61516339D01*
G75*
G02*
X231041469Y-60384969I565685J565685D01*
G01*
G37*
G04 #@! TD.AperFunction*
G04 #@! TA.AperFunction,ComponentPad*
G04 #@! TO.P,D34,1*
G04 #@! TO.N,ROW3*
G36*
X225087629Y-55562500D02*
G01*
X226219000Y-54431129D01*
X227350371Y-55562500D01*
X226219000Y-56693871D01*
X225087629Y-55562500D01*
G37*
G04 #@! TD.AperFunction*
G04 #@! TD*
G04 #@! TO.P,D33,2*
G04 #@! TO.N,Net-(D33-Pad2)*
G04 #@! TA.AperFunction,ComponentPad*
G36*
G01*
X218221531Y-47565031D02*
X218221531Y-47565031D01*
G75*
G02*
X217090161Y-47565031I-565685J565685D01*
G01*
X217090161Y-47565031D01*
G75*
G02*
X217090161Y-46433661I565685J565685D01*
G01*
X217090161Y-46433661D01*
G75*
G02*
X218221531Y-46433661I565685J-565685D01*
G01*
X218221531Y-46433661D01*
G75*
G02*
X218221531Y-47565031I-565685J-565685D01*
G01*
G37*
G04 #@! TD.AperFunction*
G04 #@! TA.AperFunction,ComponentPad*
G04 #@! TO.P,D33,1*
G04 #@! TO.N,ROW2*
G36*
X224175371Y-52387500D02*
G01*
X223044000Y-53518871D01*
X221912629Y-52387500D01*
X223044000Y-51256129D01*
X224175371Y-52387500D01*
G37*
G04 #@! TD.AperFunction*
G04 #@! TD*
G04 #@! TO.P,D32,2*
G04 #@! TO.N,Net-(D32-Pad2)*
G04 #@! TA.AperFunction,ComponentPad*
G36*
G01*
X213578469Y-47565031D02*
X213578469Y-47565031D01*
G75*
G02*
X213578469Y-46433661I565685J565685D01*
G01*
X213578469Y-46433661D01*
G75*
G02*
X214709839Y-46433661I565685J-565685D01*
G01*
X214709839Y-46433661D01*
G75*
G02*
X214709839Y-47565031I-565685J-565685D01*
G01*
X214709839Y-47565031D01*
G75*
G02*
X213578469Y-47565031I-565685J565685D01*
G01*
G37*
G04 #@! TD.AperFunction*
G04 #@! TA.AperFunction,ComponentPad*
G04 #@! TO.P,D32,1*
G04 #@! TO.N,ROW1*
G36*
X208756000Y-53518871D02*
G01*
X207624629Y-52387500D01*
X208756000Y-51256129D01*
X209887371Y-52387500D01*
X208756000Y-53518871D01*
G37*
G04 #@! TD.AperFunction*
G04 #@! TD*
G04 #@! TO.P,D31,2*
G04 #@! TO.N,Net-(D31-Pad2)*
G04 #@! TA.AperFunction,ComponentPad*
G36*
G01*
X200758531Y-60384969D02*
X200758531Y-60384969D01*
G75*
G02*
X200758531Y-61516339I-565685J-565685D01*
G01*
X200758531Y-61516339D01*
G75*
G02*
X199627161Y-61516339I-565685J565685D01*
G01*
X199627161Y-61516339D01*
G75*
G02*
X199627161Y-60384969I565685J565685D01*
G01*
X199627161Y-60384969D01*
G75*
G02*
X200758531Y-60384969I565685J-565685D01*
G01*
G37*
G04 #@! TD.AperFunction*
G04 #@! TA.AperFunction,ComponentPad*
G04 #@! TO.P,D31,1*
G04 #@! TO.N,ROW0*
G36*
X205581000Y-54431129D02*
G01*
X206712371Y-55562500D01*
X205581000Y-56693871D01*
X204449629Y-55562500D01*
X205581000Y-54431129D01*
G37*
G04 #@! TD.AperFunction*
G04 #@! TD*
G04 #@! TO.P,D30,2*
G04 #@! TO.N,Net-(D30-Pad2)*
G04 #@! TA.AperFunction,ComponentPad*
G36*
G01*
X213578469Y-60384969D02*
X213578469Y-60384969D01*
G75*
G02*
X214709839Y-60384969I565685J-565685D01*
G01*
X214709839Y-60384969D01*
G75*
G02*
X214709839Y-61516339I-565685J-565685D01*
G01*
X214709839Y-61516339D01*
G75*
G02*
X213578469Y-61516339I-565685J565685D01*
G01*
X213578469Y-61516339D01*
G75*
G02*
X213578469Y-60384969I565685J565685D01*
G01*
G37*
G04 #@! TD.AperFunction*
G04 #@! TA.AperFunction,ComponentPad*
G04 #@! TO.P,D30,1*
G04 #@! TO.N,ROW3*
G36*
X207624629Y-55562500D02*
G01*
X208756000Y-54431129D01*
X209887371Y-55562500D01*
X208756000Y-56693871D01*
X207624629Y-55562500D01*
G37*
G04 #@! TD.AperFunction*
G04 #@! TD*
G04 #@! TO.P,D29,2*
G04 #@! TO.N,Net-(D29-Pad2)*
G04 #@! TA.AperFunction,ComponentPad*
G36*
G01*
X200758531Y-47565031D02*
X200758531Y-47565031D01*
G75*
G02*
X199627161Y-47565031I-565685J565685D01*
G01*
X199627161Y-47565031D01*
G75*
G02*
X199627161Y-46433661I565685J565685D01*
G01*
X199627161Y-46433661D01*
G75*
G02*
X200758531Y-46433661I565685J-565685D01*
G01*
X200758531Y-46433661D01*
G75*
G02*
X200758531Y-47565031I-565685J-565685D01*
G01*
G37*
G04 #@! TD.AperFunction*
G04 #@! TA.AperFunction,ComponentPad*
G04 #@! TO.P,D29,1*
G04 #@! TO.N,ROW2*
G36*
X206712371Y-52387500D02*
G01*
X205581000Y-53518871D01*
X204449629Y-52387500D01*
X205581000Y-51256129D01*
X206712371Y-52387500D01*
G37*
G04 #@! TD.AperFunction*
G04 #@! TD*
G04 #@! TO.P,D28,2*
G04 #@! TO.N,Net-(D28-Pad2)*
G04 #@! TA.AperFunction,ComponentPad*
G36*
G01*
X196116469Y-47565031D02*
X196116469Y-47565031D01*
G75*
G02*
X196116469Y-46433661I565685J565685D01*
G01*
X196116469Y-46433661D01*
G75*
G02*
X197247839Y-46433661I565685J-565685D01*
G01*
X197247839Y-46433661D01*
G75*
G02*
X197247839Y-47565031I-565685J-565685D01*
G01*
X197247839Y-47565031D01*
G75*
G02*
X196116469Y-47565031I-565685J565685D01*
G01*
G37*
G04 #@! TD.AperFunction*
G04 #@! TA.AperFunction,ComponentPad*
G04 #@! TO.P,D28,1*
G04 #@! TO.N,ROW1*
G36*
X191294000Y-53518871D02*
G01*
X190162629Y-52387500D01*
X191294000Y-51256129D01*
X192425371Y-52387500D01*
X191294000Y-53518871D01*
G37*
G04 #@! TD.AperFunction*
G04 #@! TD*
G04 #@! TO.P,D27,2*
G04 #@! TO.N,Net-(D27-Pad2)*
G04 #@! TA.AperFunction,ComponentPad*
G36*
G01*
X183296531Y-60384969D02*
X183296531Y-60384969D01*
G75*
G02*
X183296531Y-61516339I-565685J-565685D01*
G01*
X183296531Y-61516339D01*
G75*
G02*
X182165161Y-61516339I-565685J565685D01*
G01*
X182165161Y-61516339D01*
G75*
G02*
X182165161Y-60384969I565685J565685D01*
G01*
X182165161Y-60384969D01*
G75*
G02*
X183296531Y-60384969I565685J-565685D01*
G01*
G37*
G04 #@! TD.AperFunction*
G04 #@! TA.AperFunction,ComponentPad*
G04 #@! TO.P,D27,1*
G04 #@! TO.N,ROW0*
G36*
X188119000Y-54431129D02*
G01*
X189250371Y-55562500D01*
X188119000Y-56693871D01*
X186987629Y-55562500D01*
X188119000Y-54431129D01*
G37*
G04 #@! TD.AperFunction*
G04 #@! TD*
G04 #@! TO.P,D26,2*
G04 #@! TO.N,Net-(D26-Pad2)*
G04 #@! TA.AperFunction,ComponentPad*
G36*
G01*
X196116469Y-60384969D02*
X196116469Y-60384969D01*
G75*
G02*
X197247839Y-60384969I565685J-565685D01*
G01*
X197247839Y-60384969D01*
G75*
G02*
X197247839Y-61516339I-565685J-565685D01*
G01*
X197247839Y-61516339D01*
G75*
G02*
X196116469Y-61516339I-565685J565685D01*
G01*
X196116469Y-61516339D01*
G75*
G02*
X196116469Y-60384969I565685J565685D01*
G01*
G37*
G04 #@! TD.AperFunction*
G04 #@! TA.AperFunction,ComponentPad*
G04 #@! TO.P,D26,1*
G04 #@! TO.N,ROW3*
G36*
X190162629Y-55562500D02*
G01*
X191294000Y-54431129D01*
X192425371Y-55562500D01*
X191294000Y-56693871D01*
X190162629Y-55562500D01*
G37*
G04 #@! TD.AperFunction*
G04 #@! TD*
G04 #@! TO.P,D25,2*
G04 #@! TO.N,Net-(D25-Pad2)*
G04 #@! TA.AperFunction,ComponentPad*
G36*
G01*
X183296531Y-47565031D02*
X183296531Y-47565031D01*
G75*
G02*
X182165161Y-47565031I-565685J565685D01*
G01*
X182165161Y-47565031D01*
G75*
G02*
X182165161Y-46433661I565685J565685D01*
G01*
X182165161Y-46433661D01*
G75*
G02*
X183296531Y-46433661I565685J-565685D01*
G01*
X183296531Y-46433661D01*
G75*
G02*
X183296531Y-47565031I-565685J-565685D01*
G01*
G37*
G04 #@! TD.AperFunction*
G04 #@! TA.AperFunction,ComponentPad*
G04 #@! TO.P,D25,1*
G04 #@! TO.N,ROW2*
G36*
X189250371Y-52387500D02*
G01*
X188119000Y-53518871D01*
X186987629Y-52387500D01*
X188119000Y-51256129D01*
X189250371Y-52387500D01*
G37*
G04 #@! TD.AperFunction*
G04 #@! TD*
G04 #@! TO.P,D24,2*
G04 #@! TO.N,Net-(D24-Pad2)*
G04 #@! TA.AperFunction,ComponentPad*
G36*
G01*
X178653469Y-47565031D02*
X178653469Y-47565031D01*
G75*
G02*
X178653469Y-46433661I565685J565685D01*
G01*
X178653469Y-46433661D01*
G75*
G02*
X179784839Y-46433661I565685J-565685D01*
G01*
X179784839Y-46433661D01*
G75*
G02*
X179784839Y-47565031I-565685J-565685D01*
G01*
X179784839Y-47565031D01*
G75*
G02*
X178653469Y-47565031I-565685J565685D01*
G01*
G37*
G04 #@! TD.AperFunction*
G04 #@! TA.AperFunction,ComponentPad*
G04 #@! TO.P,D24,1*
G04 #@! TO.N,ROW1*
G36*
X173831000Y-53518871D02*
G01*
X172699629Y-52387500D01*
X173831000Y-51256129D01*
X174962371Y-52387500D01*
X173831000Y-53518871D01*
G37*
G04 #@! TD.AperFunction*
G04 #@! TD*
G04 #@! TO.P,D23,2*
G04 #@! TO.N,Net-(D23-Pad2)*
G04 #@! TA.AperFunction,ComponentPad*
G36*
G01*
X165833531Y-60384969D02*
X165833531Y-60384969D01*
G75*
G02*
X165833531Y-61516339I-565685J-565685D01*
G01*
X165833531Y-61516339D01*
G75*
G02*
X164702161Y-61516339I-565685J565685D01*
G01*
X164702161Y-61516339D01*
G75*
G02*
X164702161Y-60384969I565685J565685D01*
G01*
X164702161Y-60384969D01*
G75*
G02*
X165833531Y-60384969I565685J-565685D01*
G01*
G37*
G04 #@! TD.AperFunction*
G04 #@! TA.AperFunction,ComponentPad*
G04 #@! TO.P,D23,1*
G04 #@! TO.N,ROW0*
G36*
X170656000Y-54431129D02*
G01*
X171787371Y-55562500D01*
X170656000Y-56693871D01*
X169524629Y-55562500D01*
X170656000Y-54431129D01*
G37*
G04 #@! TD.AperFunction*
G04 #@! TD*
G04 #@! TO.P,D22,2*
G04 #@! TO.N,Net-(D22-Pad2)*
G04 #@! TA.AperFunction,ComponentPad*
G36*
G01*
X178653469Y-60384969D02*
X178653469Y-60384969D01*
G75*
G02*
X179784839Y-60384969I565685J-565685D01*
G01*
X179784839Y-60384969D01*
G75*
G02*
X179784839Y-61516339I-565685J-565685D01*
G01*
X179784839Y-61516339D01*
G75*
G02*
X178653469Y-61516339I-565685J565685D01*
G01*
X178653469Y-61516339D01*
G75*
G02*
X178653469Y-60384969I565685J565685D01*
G01*
G37*
G04 #@! TD.AperFunction*
G04 #@! TA.AperFunction,ComponentPad*
G04 #@! TO.P,D22,1*
G04 #@! TO.N,ROW2*
G36*
X172699629Y-55562500D02*
G01*
X173831000Y-54431129D01*
X174962371Y-55562500D01*
X173831000Y-56693871D01*
X172699629Y-55562500D01*
G37*
G04 #@! TD.AperFunction*
G04 #@! TD*
G04 #@! TO.P,D21,2*
G04 #@! TO.N,Net-(D21-Pad2)*
G04 #@! TA.AperFunction,ComponentPad*
G36*
G01*
X165833531Y-47565031D02*
X165833531Y-47565031D01*
G75*
G02*
X164702161Y-47565031I-565685J565685D01*
G01*
X164702161Y-47565031D01*
G75*
G02*
X164702161Y-46433661I565685J565685D01*
G01*
X164702161Y-46433661D01*
G75*
G02*
X165833531Y-46433661I565685J-565685D01*
G01*
X165833531Y-46433661D01*
G75*
G02*
X165833531Y-47565031I-565685J-565685D01*
G01*
G37*
G04 #@! TD.AperFunction*
G04 #@! TA.AperFunction,ComponentPad*
G04 #@! TO.P,D21,1*
G04 #@! TO.N,ROW1*
G36*
X171787371Y-52387500D02*
G01*
X170656000Y-53518871D01*
X169524629Y-52387500D01*
X170656000Y-51256129D01*
X171787371Y-52387500D01*
G37*
G04 #@! TD.AperFunction*
G04 #@! TD*
G04 #@! TO.P,D20,2*
G04 #@! TO.N,Net-(D20-Pad2)*
G04 #@! TA.AperFunction,ComponentPad*
G36*
G01*
X161191469Y-47565031D02*
X161191469Y-47565031D01*
G75*
G02*
X161191469Y-46433661I565685J565685D01*
G01*
X161191469Y-46433661D01*
G75*
G02*
X162322839Y-46433661I565685J-565685D01*
G01*
X162322839Y-46433661D01*
G75*
G02*
X162322839Y-47565031I-565685J-565685D01*
G01*
X162322839Y-47565031D01*
G75*
G02*
X161191469Y-47565031I-565685J565685D01*
G01*
G37*
G04 #@! TD.AperFunction*
G04 #@! TA.AperFunction,ComponentPad*
G04 #@! TO.P,D20,1*
G04 #@! TO.N,ROW0*
G36*
X156369000Y-53518871D02*
G01*
X155237629Y-52387500D01*
X156369000Y-51256129D01*
X157500371Y-52387500D01*
X156369000Y-53518871D01*
G37*
G04 #@! TD.AperFunction*
G04 #@! TD*
G04 #@! TO.P,D19,2*
G04 #@! TO.N,Net-(D19-Pad2)*
G04 #@! TA.AperFunction,ComponentPad*
G36*
G01*
X148371531Y-60384969D02*
X148371531Y-60384969D01*
G75*
G02*
X148371531Y-61516339I-565685J-565685D01*
G01*
X148371531Y-61516339D01*
G75*
G02*
X147240161Y-61516339I-565685J565685D01*
G01*
X147240161Y-61516339D01*
G75*
G02*
X147240161Y-60384969I565685J565685D01*
G01*
X147240161Y-60384969D01*
G75*
G02*
X148371531Y-60384969I565685J-565685D01*
G01*
G37*
G04 #@! TD.AperFunction*
G04 #@! TA.AperFunction,ComponentPad*
G04 #@! TO.P,D19,1*
G04 #@! TO.N,ROW3*
G36*
X153194000Y-54431129D02*
G01*
X154325371Y-55562500D01*
X153194000Y-56693871D01*
X152062629Y-55562500D01*
X153194000Y-54431129D01*
G37*
G04 #@! TD.AperFunction*
G04 #@! TD*
G04 #@! TO.P,D18,2*
G04 #@! TO.N,Net-(D18-Pad2)*
G04 #@! TA.AperFunction,ComponentPad*
G36*
G01*
X161191469Y-60384969D02*
X161191469Y-60384969D01*
G75*
G02*
X162322839Y-60384969I565685J-565685D01*
G01*
X162322839Y-60384969D01*
G75*
G02*
X162322839Y-61516339I-565685J-565685D01*
G01*
X162322839Y-61516339D01*
G75*
G02*
X161191469Y-61516339I-565685J565685D01*
G01*
X161191469Y-61516339D01*
G75*
G02*
X161191469Y-60384969I565685J565685D01*
G01*
G37*
G04 #@! TD.AperFunction*
G04 #@! TA.AperFunction,ComponentPad*
G04 #@! TO.P,D18,1*
G04 #@! TO.N,ROW2*
G36*
X155237629Y-55562500D02*
G01*
X156369000Y-54431129D01*
X157500371Y-55562500D01*
X156369000Y-56693871D01*
X155237629Y-55562500D01*
G37*
G04 #@! TD.AperFunction*
G04 #@! TD*
G04 #@! TO.P,D17,2*
G04 #@! TO.N,Net-(D17-Pad2)*
G04 #@! TA.AperFunction,ComponentPad*
G36*
G01*
X148371531Y-47565031D02*
X148371531Y-47565031D01*
G75*
G02*
X147240161Y-47565031I-565685J565685D01*
G01*
X147240161Y-47565031D01*
G75*
G02*
X147240161Y-46433661I565685J565685D01*
G01*
X147240161Y-46433661D01*
G75*
G02*
X148371531Y-46433661I565685J-565685D01*
G01*
X148371531Y-46433661D01*
G75*
G02*
X148371531Y-47565031I-565685J-565685D01*
G01*
G37*
G04 #@! TD.AperFunction*
G04 #@! TA.AperFunction,ComponentPad*
G04 #@! TO.P,D17,1*
G04 #@! TO.N,ROW1*
G36*
X154325371Y-52387500D02*
G01*
X153194000Y-53518871D01*
X152062629Y-52387500D01*
X153194000Y-51256129D01*
X154325371Y-52387500D01*
G37*
G04 #@! TD.AperFunction*
G04 #@! TD*
G04 #@! TO.P,D16,2*
G04 #@! TO.N,Net-(D16-Pad2)*
G04 #@! TA.AperFunction,ComponentPad*
G36*
G01*
X143728469Y-47565031D02*
X143728469Y-47565031D01*
G75*
G02*
X143728469Y-46433661I565685J565685D01*
G01*
X143728469Y-46433661D01*
G75*
G02*
X144859839Y-46433661I565685J-565685D01*
G01*
X144859839Y-46433661D01*
G75*
G02*
X144859839Y-47565031I-565685J-565685D01*
G01*
X144859839Y-47565031D01*
G75*
G02*
X143728469Y-47565031I-565685J565685D01*
G01*
G37*
G04 #@! TD.AperFunction*
G04 #@! TA.AperFunction,ComponentPad*
G04 #@! TO.P,D16,1*
G04 #@! TO.N,ROW0*
G36*
X138906000Y-53518871D02*
G01*
X137774629Y-52387500D01*
X138906000Y-51256129D01*
X140037371Y-52387500D01*
X138906000Y-53518871D01*
G37*
G04 #@! TD.AperFunction*
G04 #@! TD*
G04 #@! TO.P,D15,2*
G04 #@! TO.N,Net-(D15-Pad2)*
G04 #@! TA.AperFunction,ComponentPad*
G36*
G01*
X130908531Y-60384969D02*
X130908531Y-60384969D01*
G75*
G02*
X130908531Y-61516339I-565685J-565685D01*
G01*
X130908531Y-61516339D01*
G75*
G02*
X129777161Y-61516339I-565685J565685D01*
G01*
X129777161Y-61516339D01*
G75*
G02*
X129777161Y-60384969I565685J565685D01*
G01*
X129777161Y-60384969D01*
G75*
G02*
X130908531Y-60384969I565685J-565685D01*
G01*
G37*
G04 #@! TD.AperFunction*
G04 #@! TA.AperFunction,ComponentPad*
G04 #@! TO.P,D15,1*
G04 #@! TO.N,ROW2*
G36*
X135731000Y-54431129D02*
G01*
X136862371Y-55562500D01*
X135731000Y-56693871D01*
X134599629Y-55562500D01*
X135731000Y-54431129D01*
G37*
G04 #@! TD.AperFunction*
G04 #@! TD*
G04 #@! TO.P,D14,2*
G04 #@! TO.N,Net-(D14-Pad2)*
G04 #@! TA.AperFunction,ComponentPad*
G36*
G01*
X143728469Y-60384969D02*
X143728469Y-60384969D01*
G75*
G02*
X144859839Y-60384969I565685J-565685D01*
G01*
X144859839Y-60384969D01*
G75*
G02*
X144859839Y-61516339I-565685J-565685D01*
G01*
X144859839Y-61516339D01*
G75*
G02*
X143728469Y-61516339I-565685J565685D01*
G01*
X143728469Y-61516339D01*
G75*
G02*
X143728469Y-60384969I565685J565685D01*
G01*
G37*
G04 #@! TD.AperFunction*
G04 #@! TA.AperFunction,ComponentPad*
G04 #@! TO.P,D14,1*
G04 #@! TO.N,ROW1*
G36*
X137774629Y-55562500D02*
G01*
X138906000Y-54431129D01*
X140037371Y-55562500D01*
X138906000Y-56693871D01*
X137774629Y-55562500D01*
G37*
G04 #@! TD.AperFunction*
G04 #@! TD*
G04 #@! TO.P,D13,2*
G04 #@! TO.N,Net-(D13-Pad2)*
G04 #@! TA.AperFunction,ComponentPad*
G36*
G01*
X130908531Y-47565031D02*
X130908531Y-47565031D01*
G75*
G02*
X129777161Y-47565031I-565685J565685D01*
G01*
X129777161Y-47565031D01*
G75*
G02*
X129777161Y-46433661I565685J565685D01*
G01*
X129777161Y-46433661D01*
G75*
G02*
X130908531Y-46433661I565685J-565685D01*
G01*
X130908531Y-46433661D01*
G75*
G02*
X130908531Y-47565031I-565685J-565685D01*
G01*
G37*
G04 #@! TD.AperFunction*
G04 #@! TA.AperFunction,ComponentPad*
G04 #@! TO.P,D13,1*
G04 #@! TO.N,ROW0*
G36*
X136862371Y-52387500D02*
G01*
X135731000Y-53518871D01*
X134599629Y-52387500D01*
X135731000Y-51256129D01*
X136862371Y-52387500D01*
G37*
G04 #@! TD.AperFunction*
G04 #@! TD*
G04 #@! TO.P,D12,2*
G04 #@! TO.N,Net-(D12-Pad2)*
G04 #@! TA.AperFunction,ComponentPad*
G36*
G01*
X126266469Y-47565031D02*
X126266469Y-47565031D01*
G75*
G02*
X126266469Y-46433661I565685J565685D01*
G01*
X126266469Y-46433661D01*
G75*
G02*
X127397839Y-46433661I565685J-565685D01*
G01*
X127397839Y-46433661D01*
G75*
G02*
X127397839Y-47565031I-565685J-565685D01*
G01*
X127397839Y-47565031D01*
G75*
G02*
X126266469Y-47565031I-565685J565685D01*
G01*
G37*
G04 #@! TD.AperFunction*
G04 #@! TA.AperFunction,ComponentPad*
G04 #@! TO.P,D12,1*
G04 #@! TO.N,ROW3*
G36*
X121444000Y-53518871D02*
G01*
X120312629Y-52387500D01*
X121444000Y-51256129D01*
X122575371Y-52387500D01*
X121444000Y-53518871D01*
G37*
G04 #@! TD.AperFunction*
G04 #@! TD*
G04 #@! TO.P,D11,2*
G04 #@! TO.N,Net-(D11-Pad2)*
G04 #@! TA.AperFunction,ComponentPad*
G36*
G01*
X113446531Y-60384969D02*
X113446531Y-60384969D01*
G75*
G02*
X113446531Y-61516339I-565685J-565685D01*
G01*
X113446531Y-61516339D01*
G75*
G02*
X112315161Y-61516339I-565685J565685D01*
G01*
X112315161Y-61516339D01*
G75*
G02*
X112315161Y-60384969I565685J565685D01*
G01*
X112315161Y-60384969D01*
G75*
G02*
X113446531Y-60384969I565685J-565685D01*
G01*
G37*
G04 #@! TD.AperFunction*
G04 #@! TA.AperFunction,ComponentPad*
G04 #@! TO.P,D11,1*
G04 #@! TO.N,ROW2*
G36*
X118269000Y-54431129D02*
G01*
X119400371Y-55562500D01*
X118269000Y-56693871D01*
X117137629Y-55562500D01*
X118269000Y-54431129D01*
G37*
G04 #@! TD.AperFunction*
G04 #@! TD*
G04 #@! TO.P,D10,2*
G04 #@! TO.N,Net-(D10-Pad2)*
G04 #@! TA.AperFunction,ComponentPad*
G36*
G01*
X126266469Y-60384969D02*
X126266469Y-60384969D01*
G75*
G02*
X127397839Y-60384969I565685J-565685D01*
G01*
X127397839Y-60384969D01*
G75*
G02*
X127397839Y-61516339I-565685J-565685D01*
G01*
X127397839Y-61516339D01*
G75*
G02*
X126266469Y-61516339I-565685J565685D01*
G01*
X126266469Y-61516339D01*
G75*
G02*
X126266469Y-60384969I565685J565685D01*
G01*
G37*
G04 #@! TD.AperFunction*
G04 #@! TA.AperFunction,ComponentPad*
G04 #@! TO.P,D10,1*
G04 #@! TO.N,ROW1*
G36*
X120312629Y-55562500D02*
G01*
X121444000Y-54431129D01*
X122575371Y-55562500D01*
X121444000Y-56693871D01*
X120312629Y-55562500D01*
G37*
G04 #@! TD.AperFunction*
G04 #@! TD*
G04 #@! TO.P,D9,2*
G04 #@! TO.N,Net-(D9-Pad2)*
G04 #@! TA.AperFunction,ComponentPad*
G36*
G01*
X113446531Y-47565031D02*
X113446531Y-47565031D01*
G75*
G02*
X112315161Y-47565031I-565685J565685D01*
G01*
X112315161Y-47565031D01*
G75*
G02*
X112315161Y-46433661I565685J565685D01*
G01*
X112315161Y-46433661D01*
G75*
G02*
X113446531Y-46433661I565685J-565685D01*
G01*
X113446531Y-46433661D01*
G75*
G02*
X113446531Y-47565031I-565685J-565685D01*
G01*
G37*
G04 #@! TD.AperFunction*
G04 #@! TA.AperFunction,ComponentPad*
G04 #@! TO.P,D9,1*
G04 #@! TO.N,ROW0*
G36*
X119400371Y-52387500D02*
G01*
X118269000Y-53518871D01*
X117137629Y-52387500D01*
X118269000Y-51256129D01*
X119400371Y-52387500D01*
G37*
G04 #@! TD.AperFunction*
G04 #@! TD*
G04 #@! TO.P,D8,2*
G04 #@! TO.N,Net-(D8-Pad2)*
G04 #@! TA.AperFunction,ComponentPad*
G36*
G01*
X108803469Y-47565031D02*
X108803469Y-47565031D01*
G75*
G02*
X108803469Y-46433661I565685J565685D01*
G01*
X108803469Y-46433661D01*
G75*
G02*
X109934839Y-46433661I565685J-565685D01*
G01*
X109934839Y-46433661D01*
G75*
G02*
X109934839Y-47565031I-565685J-565685D01*
G01*
X109934839Y-47565031D01*
G75*
G02*
X108803469Y-47565031I-565685J565685D01*
G01*
G37*
G04 #@! TD.AperFunction*
G04 #@! TA.AperFunction,ComponentPad*
G04 #@! TO.P,D8,1*
G04 #@! TO.N,ROW3*
G36*
X103981000Y-53518871D02*
G01*
X102849629Y-52387500D01*
X103981000Y-51256129D01*
X105112371Y-52387500D01*
X103981000Y-53518871D01*
G37*
G04 #@! TD.AperFunction*
G04 #@! TD*
G04 #@! TO.P,D7,2*
G04 #@! TO.N,Net-(D7-Pad2)*
G04 #@! TA.AperFunction,ComponentPad*
G36*
G01*
X95983531Y-60384969D02*
X95983531Y-60384969D01*
G75*
G02*
X95983531Y-61516339I-565685J-565685D01*
G01*
X95983531Y-61516339D01*
G75*
G02*
X94852161Y-61516339I-565685J565685D01*
G01*
X94852161Y-61516339D01*
G75*
G02*
X94852161Y-60384969I565685J565685D01*
G01*
X94852161Y-60384969D01*
G75*
G02*
X95983531Y-60384969I565685J-565685D01*
G01*
G37*
G04 #@! TD.AperFunction*
G04 #@! TA.AperFunction,ComponentPad*
G04 #@! TO.P,D7,1*
G04 #@! TO.N,ROW2*
G36*
X100806000Y-54431129D02*
G01*
X101937371Y-55562500D01*
X100806000Y-56693871D01*
X99674629Y-55562500D01*
X100806000Y-54431129D01*
G37*
G04 #@! TD.AperFunction*
G04 #@! TD*
G04 #@! TO.P,D6,2*
G04 #@! TO.N,Net-(D6-Pad2)*
G04 #@! TA.AperFunction,ComponentPad*
G36*
G01*
X108803469Y-60384969D02*
X108803469Y-60384969D01*
G75*
G02*
X109934839Y-60384969I565685J-565685D01*
G01*
X109934839Y-60384969D01*
G75*
G02*
X109934839Y-61516339I-565685J-565685D01*
G01*
X109934839Y-61516339D01*
G75*
G02*
X108803469Y-61516339I-565685J565685D01*
G01*
X108803469Y-61516339D01*
G75*
G02*
X108803469Y-60384969I565685J565685D01*
G01*
G37*
G04 #@! TD.AperFunction*
G04 #@! TA.AperFunction,ComponentPad*
G04 #@! TO.P,D6,1*
G04 #@! TO.N,ROW1*
G36*
X102849629Y-55562500D02*
G01*
X103981000Y-54431129D01*
X105112371Y-55562500D01*
X103981000Y-56693871D01*
X102849629Y-55562500D01*
G37*
G04 #@! TD.AperFunction*
G04 #@! TD*
G04 #@! TO.P,D5,2*
G04 #@! TO.N,Net-(D5-Pad2)*
G04 #@! TA.AperFunction,ComponentPad*
G36*
G01*
X95983531Y-47565031D02*
X95983531Y-47565031D01*
G75*
G02*
X94852161Y-47565031I-565685J565685D01*
G01*
X94852161Y-47565031D01*
G75*
G02*
X94852161Y-46433661I565685J565685D01*
G01*
X94852161Y-46433661D01*
G75*
G02*
X95983531Y-46433661I565685J-565685D01*
G01*
X95983531Y-46433661D01*
G75*
G02*
X95983531Y-47565031I-565685J-565685D01*
G01*
G37*
G04 #@! TD.AperFunction*
G04 #@! TA.AperFunction,ComponentPad*
G04 #@! TO.P,D5,1*
G04 #@! TO.N,ROW0*
G36*
X101937371Y-52387500D02*
G01*
X100806000Y-53518871D01*
X99674629Y-52387500D01*
X100806000Y-51256129D01*
X101937371Y-52387500D01*
G37*
G04 #@! TD.AperFunction*
G04 #@! TD*
G04 #@! TO.P,D4,2*
G04 #@! TO.N,Net-(D4-Pad2)*
G04 #@! TA.AperFunction,ComponentPad*
G36*
G01*
X91341269Y-47565031D02*
X91341269Y-47565031D01*
G75*
G02*
X91341269Y-46433661I565685J565685D01*
G01*
X91341269Y-46433661D01*
G75*
G02*
X92472639Y-46433661I565685J-565685D01*
G01*
X92472639Y-46433661D01*
G75*
G02*
X92472639Y-47565031I-565685J-565685D01*
G01*
X92472639Y-47565031D01*
G75*
G02*
X91341269Y-47565031I-565685J565685D01*
G01*
G37*
G04 #@! TD.AperFunction*
G04 #@! TA.AperFunction,ComponentPad*
G04 #@! TO.P,D4,1*
G04 #@! TO.N,ROW3*
G36*
X86518800Y-53518871D02*
G01*
X85387429Y-52387500D01*
X86518800Y-51256129D01*
X87650171Y-52387500D01*
X86518800Y-53518871D01*
G37*
G04 #@! TD.AperFunction*
G04 #@! TD*
G04 #@! TO.P,D3,2*
G04 #@! TO.N,Net-(D3-Pad2)*
G04 #@! TA.AperFunction,ComponentPad*
G36*
G01*
X78521331Y-60384969D02*
X78521331Y-60384969D01*
G75*
G02*
X78521331Y-61516339I-565685J-565685D01*
G01*
X78521331Y-61516339D01*
G75*
G02*
X77389961Y-61516339I-565685J565685D01*
G01*
X77389961Y-61516339D01*
G75*
G02*
X77389961Y-60384969I565685J565685D01*
G01*
X77389961Y-60384969D01*
G75*
G02*
X78521331Y-60384969I565685J-565685D01*
G01*
G37*
G04 #@! TD.AperFunction*
G04 #@! TA.AperFunction,ComponentPad*
G04 #@! TO.P,D3,1*
G04 #@! TO.N,ROW2*
G36*
X83343800Y-54431129D02*
G01*
X84475171Y-55562500D01*
X83343800Y-56693871D01*
X82212429Y-55562500D01*
X83343800Y-54431129D01*
G37*
G04 #@! TD.AperFunction*
G04 #@! TD*
G04 #@! TO.P,D2,2*
G04 #@! TO.N,Net-(D2-Pad2)*
G04 #@! TA.AperFunction,ComponentPad*
G36*
G01*
X91341269Y-60384969D02*
X91341269Y-60384969D01*
G75*
G02*
X92472639Y-60384969I565685J-565685D01*
G01*
X92472639Y-60384969D01*
G75*
G02*
X92472639Y-61516339I-565685J-565685D01*
G01*
X92472639Y-61516339D01*
G75*
G02*
X91341269Y-61516339I-565685J565685D01*
G01*
X91341269Y-61516339D01*
G75*
G02*
X91341269Y-60384969I565685J565685D01*
G01*
G37*
G04 #@! TD.AperFunction*
G04 #@! TA.AperFunction,ComponentPad*
G04 #@! TO.P,D2,1*
G04 #@! TO.N,ROW1*
G36*
X85387429Y-55562500D02*
G01*
X86518800Y-54431129D01*
X87650171Y-55562500D01*
X86518800Y-56693871D01*
X85387429Y-55562500D01*
G37*
G04 #@! TD.AperFunction*
G04 #@! TD*
G04 #@! TO.P,D1,2*
G04 #@! TO.N,Net-(D1-Pad2)*
G04 #@! TA.AperFunction,ComponentPad*
G36*
G01*
X78521331Y-47565031D02*
X78521331Y-47565031D01*
G75*
G02*
X77389961Y-47565031I-565685J565685D01*
G01*
X77389961Y-47565031D01*
G75*
G02*
X77389961Y-46433661I565685J565685D01*
G01*
X77389961Y-46433661D01*
G75*
G02*
X78521331Y-46433661I565685J-565685D01*
G01*
X78521331Y-46433661D01*
G75*
G02*
X78521331Y-47565031I-565685J-565685D01*
G01*
G37*
G04 #@! TD.AperFunction*
G04 #@! TA.AperFunction,ComponentPad*
G04 #@! TO.P,D1,1*
G04 #@! TO.N,ROW0*
G36*
X84475171Y-52387500D02*
G01*
X83343800Y-53518871D01*
X82212429Y-52387500D01*
X83343800Y-51256129D01*
X84475171Y-52387500D01*
G37*
G04 #@! TD.AperFunction*
G04 #@! TD*
D14*
G04 #@! TO.N,Net-(D14-Pad2)*
X119111900Y-89535000D03*
G04 #@! TO.N,Net-(D18-Pad2)*
X152728900Y-79636700D03*
G04 #@! TD*
D15*
G04 #@! TO.N,ROW0*
X223044000Y-55562500D02*
X223839700Y-56358200D01*
X257969000Y-55562500D02*
X256049900Y-57481600D01*
X256049900Y-57481600D02*
X224963100Y-57481600D01*
X224963100Y-57481600D02*
X223839700Y-56358200D01*
X100806000Y-52387500D02*
X102273500Y-50920000D01*
X102273500Y-50920000D02*
X116801500Y-50920000D01*
X116801500Y-50920000D02*
X118269000Y-52387500D01*
X83343800Y-52387500D02*
X84804500Y-50926800D01*
X84804500Y-50926800D02*
X99345300Y-50926800D01*
X99345300Y-50926800D02*
X100806000Y-52387500D01*
X118269000Y-52387500D02*
X119746700Y-50909800D01*
X119746700Y-50909800D02*
X134253300Y-50909800D01*
X134253300Y-50909800D02*
X135731000Y-52387500D01*
X261144000Y-55562500D02*
X260348300Y-54766800D01*
X257969000Y-55562500D02*
X258764700Y-54766800D01*
X258764700Y-54766800D02*
X260348300Y-54766800D01*
X188119000Y-55562500D02*
X189578800Y-57022300D01*
X189578800Y-57022300D02*
X204121200Y-57022300D01*
X204121200Y-57022300D02*
X205581000Y-55562500D01*
X171451700Y-56358200D02*
X172121400Y-57027900D01*
X172121400Y-57027900D02*
X186653600Y-57027900D01*
X186653600Y-57027900D02*
X188119000Y-55562500D01*
X138906000Y-52387500D02*
X139701700Y-51591800D01*
X139701700Y-51591800D02*
X140366800Y-50926700D01*
X140366800Y-50926700D02*
X154908200Y-50926700D01*
X154908200Y-50926700D02*
X156369000Y-52387500D01*
X170656000Y-55562500D02*
X171451700Y-56358200D01*
G04 #@! TO.N,Net-(D2-Pad2)*
X91907000Y-60950700D02*
X91111300Y-61746400D01*
X91111300Y-61746400D02*
X89154700Y-59789800D01*
X89154700Y-59789800D02*
X74772900Y-59789800D01*
X74772900Y-59789800D02*
X74582600Y-59599500D01*
X74582600Y-59599500D02*
X66329500Y-59599500D01*
X66329500Y-59599500D02*
X65563800Y-60365200D01*
X65563800Y-60365200D02*
X65563800Y-62700300D01*
X65563800Y-62700300D02*
X46990000Y-81274100D01*
X46990000Y-81274100D02*
X46990000Y-89535000D01*
G04 #@! TO.N,ROW1*
X208756000Y-52387500D02*
X207285800Y-50917300D01*
X207285800Y-50917300D02*
X192764200Y-50917300D01*
X192764200Y-50917300D02*
X191294000Y-52387500D01*
X173831000Y-52387500D02*
X175328800Y-50889700D01*
X175328800Y-50889700D02*
X189796200Y-50889700D01*
X189796200Y-50889700D02*
X191294000Y-52387500D01*
X103981000Y-55562500D02*
X102508100Y-57035400D01*
X102508100Y-57035400D02*
X97835500Y-57035400D01*
X97835500Y-57035400D02*
X97158300Y-56358200D01*
X97158300Y-56358200D02*
X87314500Y-56358200D01*
X121444000Y-55562500D02*
X122900800Y-54105700D01*
X122900800Y-54105700D02*
X137449200Y-54105700D01*
X137449200Y-54105700D02*
X138906000Y-55562500D01*
X138906000Y-55562500D02*
X141285300Y-53183200D01*
X141285300Y-53183200D02*
X152398300Y-53183200D01*
X103981000Y-55562500D02*
X105469300Y-54074200D01*
X105469300Y-54074200D02*
X119955700Y-54074200D01*
X119955700Y-54074200D02*
X121444000Y-55562500D01*
X226219000Y-52387500D02*
X227014700Y-53183200D01*
X227014700Y-53183200D02*
X238126700Y-53183200D01*
X238126700Y-53183200D02*
X240506000Y-55562500D01*
X170656000Y-52752900D02*
X169878900Y-52752900D01*
X169878900Y-52752900D02*
X168787400Y-53844400D01*
X168787400Y-53844400D02*
X154650900Y-53844400D01*
X154650900Y-53844400D02*
X153989700Y-53183200D01*
X153194000Y-52387500D02*
X152398300Y-53183200D01*
X153194000Y-52387500D02*
X153989700Y-53183200D01*
X86518800Y-55562500D02*
X87314500Y-56358200D01*
X173831000Y-52387500D02*
X173035300Y-53183200D01*
X170656000Y-52752900D02*
X172605000Y-52752900D01*
X172605000Y-52752900D02*
X173035300Y-53183200D01*
X170656000Y-52752900D02*
X170656000Y-52387500D01*
G04 #@! TO.N,ROW2*
X83343800Y-55562500D02*
X84826600Y-54079700D01*
X84826600Y-54079700D02*
X99323200Y-54079700D01*
X99323200Y-54079700D02*
X100806000Y-55562500D01*
X135731000Y-55562500D02*
X137221900Y-57053400D01*
X137221900Y-57053400D02*
X154878100Y-57053400D01*
X154878100Y-57053400D02*
X156369000Y-55562500D01*
X118269000Y-55562500D02*
X119759900Y-57053400D01*
X119759900Y-57053400D02*
X134240100Y-57053400D01*
X134240100Y-57053400D02*
X135731000Y-55562500D01*
X173035300Y-54069500D02*
X169424500Y-54069500D01*
X169424500Y-54069500D02*
X168727200Y-54766800D01*
X168727200Y-54766800D02*
X157164700Y-54766800D01*
X187323300Y-53183200D02*
X186437000Y-54069500D01*
X186437000Y-54069500D02*
X173035300Y-54069500D01*
X173035300Y-54766800D02*
X173035300Y-54069500D01*
X173831000Y-55562500D02*
X173035300Y-54766800D01*
X156369000Y-55562500D02*
X157164700Y-54766800D01*
X188119000Y-52387500D02*
X187323300Y-53183200D01*
X223044000Y-52387500D02*
X224520400Y-50911100D01*
X224520400Y-50911100D02*
X239029600Y-50911100D01*
X239029600Y-50911100D02*
X240506000Y-52387500D01*
X275431000Y-55562500D02*
X273974200Y-54105700D01*
X273974200Y-54105700D02*
X245399200Y-54105700D01*
X245399200Y-54105700D02*
X243681000Y-52387500D01*
X188119000Y-52387500D02*
X189596200Y-53864700D01*
X189596200Y-53864700D02*
X204103800Y-53864700D01*
X204103800Y-53864700D02*
X205581000Y-52387500D01*
G04 #@! TO.N,Net-(D4-Pad2)*
X44608800Y-127635000D02*
X46990000Y-127635000D01*
G04 #@! TO.N,ROW3*
X242885300Y-56358200D02*
X242212200Y-57031300D01*
X242212200Y-57031300D02*
X227687800Y-57031300D01*
X227687800Y-57031300D02*
X226219000Y-55562500D01*
X86518800Y-52387500D02*
X87314500Y-53183200D01*
X87314500Y-53183200D02*
X99756900Y-53183200D01*
X99756900Y-53183200D02*
X100438400Y-53864700D01*
X100438400Y-53864700D02*
X102503800Y-53864700D01*
X102503800Y-53864700D02*
X103981000Y-52387500D01*
X243681000Y-55562500D02*
X242885300Y-56358200D01*
X257969000Y-52387500D02*
X256489600Y-50908100D01*
X256489600Y-50908100D02*
X243555100Y-50908100D01*
X243555100Y-50908100D02*
X242210900Y-52252300D01*
X242210900Y-52252300D02*
X242210900Y-54092400D01*
X242210900Y-54092400D02*
X243681000Y-55562500D01*
X257969000Y-52387500D02*
X259429800Y-50926700D01*
X259429800Y-50926700D02*
X273970200Y-50926700D01*
X273970200Y-50926700D02*
X274635300Y-51591800D01*
X275431000Y-52387500D02*
X274635300Y-51591800D01*
X192089700Y-54766800D02*
X204741700Y-54766800D01*
X204741700Y-54766800D02*
X205434300Y-54074200D01*
X205434300Y-54074200D02*
X207267700Y-54074200D01*
X207267700Y-54074200D02*
X208756000Y-55562500D01*
X191294000Y-55562500D02*
X192089700Y-54766800D01*
G04 #@! TO.N,Net-(D10-Pad2)*
X126832200Y-60950700D02*
X128609900Y-62728400D01*
X128609900Y-62728400D02*
X128609900Y-68546800D01*
X128609900Y-68546800D02*
X126901300Y-70255400D01*
X126901300Y-70255400D02*
X124078700Y-70255400D01*
X124078700Y-70255400D02*
X106567300Y-87766800D01*
X106567300Y-87766800D02*
X96232400Y-87766800D01*
X96232400Y-87766800D02*
X94464200Y-89535000D01*
X94464200Y-89535000D02*
X87471200Y-89535000D01*
G04 #@! TO.N,Net-(D14-Pad2)*
X106521000Y-89535000D02*
X119111900Y-89535000D01*
G04 #@! TO.N,Net-(D15-Pad2)*
X130342800Y-60950700D02*
X129547200Y-61746300D01*
X129547200Y-61746300D02*
X129547200Y-61746400D01*
X129547200Y-61746400D02*
X129547200Y-71455200D01*
X129547200Y-71455200D02*
X119856100Y-81146300D01*
X119856100Y-81146300D02*
X119856100Y-104774900D01*
X119856100Y-104774900D02*
X116046000Y-108585000D01*
G04 #@! TO.N,Net-(D18-Pad2)*
X152728900Y-79636700D02*
X147955400Y-84410200D01*
X147955400Y-84410200D02*
X147955400Y-89168200D01*
X147955400Y-89168200D02*
X135096000Y-102027600D01*
X135096000Y-102027600D02*
X135096000Y-108585000D01*
G04 #@! TO.N,Net-(D30-Pad2)*
X204152000Y-127635000D02*
X206534000Y-127635000D01*
G04 #@! TO.N,Net-(D41-Pad2)*
X268446000Y-127635000D02*
X261302000Y-127635000D01*
G04 #@! TO.N,Net-(D42-Pad2)*
X266532200Y-60950700D02*
X256997900Y-70485000D01*
X256997900Y-70485000D02*
X235109000Y-70485000D01*
G04 #@! TO.N,COL0*
X50958800Y-125095000D02*
X53340000Y-125095000D01*
X53340000Y-86995000D02*
X53340000Y-101282500D01*
X53340000Y-101282500D02*
X58102500Y-106045000D01*
G04 #@! TO.N,COL1*
X70008800Y-67945000D02*
X74771200Y-72707400D01*
X74771200Y-72707400D02*
X74771200Y-86995000D01*
X66833800Y-60801200D02*
X70008800Y-63976200D01*
X70008800Y-63976200D02*
X70008800Y-67945000D01*
X79533800Y-125095000D02*
X70008800Y-125095000D01*
X84296200Y-106045000D02*
X84296200Y-120332600D01*
X84296200Y-120332600D02*
X79533800Y-125095000D01*
G04 #@! TO.N,COL2*
X89058800Y-67945000D02*
X93821200Y-72707400D01*
X93821200Y-72707400D02*
X93821200Y-86995000D01*
X69373800Y-60801200D02*
X76517600Y-67945000D01*
X76517600Y-67945000D02*
X89058800Y-67945000D01*
X103346000Y-106045000D02*
X102503700Y-106045000D01*
X102503700Y-106045000D02*
X89058800Y-119489900D01*
X89058800Y-119489900D02*
X89058800Y-125095000D01*
G04 #@! TO.N,COL3*
X71913800Y-60801200D02*
X77251900Y-66139300D01*
X77251900Y-66139300D02*
X106303300Y-66139300D01*
X106303300Y-66139300D02*
X108109000Y-67945000D01*
X122396000Y-106045000D02*
X121553700Y-106045000D01*
X121553700Y-106045000D02*
X108109000Y-119489700D01*
X108109000Y-119489700D02*
X108109000Y-125095000D01*
X108109000Y-125095000D02*
X105728000Y-125095000D01*
G04 #@! TO.N,COL4*
X123338100Y-62111000D02*
X125659200Y-59789900D01*
X125659200Y-59789900D02*
X130844600Y-59789900D01*
X130844600Y-59789900D02*
X131921000Y-60866300D01*
X131921000Y-60866300D02*
X131921000Y-86995000D01*
X127159000Y-67945000D02*
X123338100Y-64124100D01*
X123338100Y-64124100D02*
X123338100Y-62111000D01*
X54133800Y-45561200D02*
X66963100Y-58390500D01*
X66963100Y-58390500D02*
X74847000Y-58390500D01*
X74847000Y-58390500D02*
X75796000Y-59339500D01*
X75796000Y-59339500D02*
X96092900Y-59339500D01*
X96092900Y-59339500D02*
X98864400Y-62111000D01*
X98864400Y-62111000D02*
X123338100Y-62111000D01*
G04 #@! TO.N,COL5*
X146209000Y-67945000D02*
X137603500Y-59339500D01*
X137603500Y-59339500D02*
X96955100Y-59339500D01*
X96955100Y-59339500D02*
X96504800Y-58889200D01*
X96504800Y-58889200D02*
X75982700Y-58889200D01*
X75982700Y-58889200D02*
X74927900Y-57834400D01*
X74927900Y-57834400D02*
X68947000Y-57834400D01*
X68947000Y-57834400D02*
X56673800Y-45561200D01*
G04 #@! TO.N,COL6*
X165259000Y-67945000D02*
X148260200Y-67945000D01*
X148260200Y-67945000D02*
X139204400Y-58889200D01*
X139204400Y-58889200D02*
X97141700Y-58889200D01*
X97141700Y-58889200D02*
X96691400Y-58438900D01*
X96691400Y-58438900D02*
X76169300Y-58438900D01*
X76169300Y-58438900D02*
X74996500Y-57266100D01*
X74996500Y-57266100D02*
X70918700Y-57266100D01*
X70918700Y-57266100D02*
X59213800Y-45561200D01*
X165259000Y-67945000D02*
X165259000Y-82233000D01*
X165259000Y-82233000D02*
X170021000Y-86995000D01*
X170021000Y-86995000D02*
X170021000Y-96520000D01*
X170021000Y-96520000D02*
X179546000Y-106045000D01*
G04 #@! TO.N,COL7*
X184309000Y-67945000D02*
X182858600Y-66494600D01*
X182858600Y-66494600D02*
X147683300Y-66494600D01*
X147683300Y-66494600D02*
X139627500Y-58438800D01*
X139627500Y-58438800D02*
X97328200Y-58438800D01*
X97328200Y-58438800D02*
X96878000Y-57988600D01*
X96878000Y-57988600D02*
X76355900Y-57988600D01*
X76355900Y-57988600D02*
X75183000Y-56815700D01*
X75183000Y-56815700D02*
X73008300Y-56815700D01*
X73008300Y-56815700D02*
X61753800Y-45561200D01*
X198596000Y-106045000D02*
X210502000Y-117951000D01*
X210502000Y-117951000D02*
X210502000Y-125095000D01*
X189071000Y-86995000D02*
X189071000Y-96520000D01*
X189071000Y-96520000D02*
X198596000Y-106045000D01*
X210502000Y-125095000D02*
X212884000Y-125095000D01*
G04 #@! TO.N,COL8*
X203359000Y-67945000D02*
X200448600Y-65034600D01*
X200448600Y-65034600D02*
X150032100Y-65034600D01*
X150032100Y-65034600D02*
X142985900Y-57988400D01*
X142985900Y-57988400D02*
X97514700Y-57988400D01*
X97514700Y-57988400D02*
X97064600Y-57538300D01*
X97064600Y-57538300D02*
X76542500Y-57538300D01*
X76542500Y-57538300D02*
X64565400Y-45561200D01*
X64565400Y-45561200D02*
X64293800Y-45561200D01*
X217646000Y-106045000D02*
X236696000Y-125095000D01*
X208121000Y-86995000D02*
X208121000Y-96520000D01*
X208121000Y-96520000D02*
X217646000Y-106045000D01*
G04 #@! TO.N,COL9*
X222409000Y-67945000D02*
X217114100Y-62650100D01*
X217114100Y-62650100D02*
X178023700Y-62650100D01*
X178023700Y-62650100D02*
X172911700Y-57538100D01*
X172911700Y-57538100D02*
X97701300Y-57538100D01*
X97701300Y-57538100D02*
X97251200Y-57088000D01*
X97251200Y-57088000D02*
X78360600Y-57088000D01*
X78360600Y-57088000D02*
X66833800Y-45561200D01*
X222409000Y-67945000D02*
X222409000Y-82233000D01*
X222409000Y-82233000D02*
X227171000Y-86995000D01*
X236696000Y-106045000D02*
X255746000Y-125095000D01*
X227171000Y-86995000D02*
X227171000Y-96520000D01*
X227171000Y-96520000D02*
X236696000Y-106045000D01*
G04 #@! TO.N,COL10*
X69373800Y-45561200D02*
X73267400Y-49454800D01*
X73267400Y-49454800D02*
X211238100Y-49454800D01*
X211238100Y-49454800D02*
X229728300Y-67945000D01*
X229728300Y-67945000D02*
X241459000Y-67945000D01*
G04 #@! TO.N,COL11*
X267652000Y-67945000D02*
X267731400Y-67865600D01*
X267731400Y-67865600D02*
X267731400Y-60496800D01*
X267731400Y-60496800D02*
X266489300Y-59254700D01*
X266489300Y-59254700D02*
X223311300Y-59254700D01*
X223311300Y-59254700D02*
X209617800Y-45561200D01*
X209617800Y-45561200D02*
X71913800Y-45561200D01*
X274796000Y-125095000D02*
X274796000Y-106045000D01*
X267652000Y-125095000D02*
X274796000Y-125095000D01*
X270034000Y-86995000D02*
X274796000Y-91757000D01*
X274796000Y-91757000D02*
X274796000Y-106045000D01*
G04 #@! TD*
M02*
