M48
; DRILL file {KiCad 5.1.7} date Sun Nov 29 13:06:53 2020
; FORMAT={-:-/ absolute / inch / decimal}
; #@! TF.CreationDate,2020-11-29T13:06:53+02:00
; #@! TF.GenerationSoftware,Kicad,Pcbnew,5.1.7
; #@! TF.FileFunction,NonPlated,1,2,NPTH
FMAT,2
INCH
T1C0.0689
T2C0.1200
T3C0.1570
%
G90
G05
T1
X8.2687Y-4.375
X8.6687Y-4.375
X4.5187Y-4.375
X4.9187Y-4.375
X4.1437Y-3.625
X4.5437Y-3.625
X4.7063Y-2.875
X5.1063Y-2.875
X8.4563Y-2.875
X8.8563Y-2.875
X7.7063Y-2.875
X8.1063Y-2.875
X3.2063Y-5.125
X3.6063Y-5.125
X7.1437Y-3.625
X7.5437Y-3.625
X10.5187Y-5.125
X10.9187Y-5.125
X3.8625Y-5.125
X4.2625Y-5.125
X1.8Y-5.125
X2.2Y-5.125
X9.7687Y-5.125
X10.1687Y-5.125
X9.0187Y-5.125
X9.4187Y-5.125
X3.9563Y-5.125
X4.3563Y-5.125
X5.2687Y-4.375
X5.6687Y-4.375
X6.2063Y-2.875
X6.6063Y-2.875
X10.2375Y-5.125
X10.6375Y-5.125
X2.8313Y-5.125
X3.2313Y-5.125
X9.0187Y-5.125
X9.4187Y-5.125
X4.8937Y-3.625
X5.2937Y-3.625
X1.7063Y-2.875
X2.1063Y-2.875
X3.3937Y-3.625
X3.7937Y-3.625
X2.4563Y-2.875
X2.8563Y-2.875
X7.9875Y-5.125
X8.3875Y-5.125
X1.9875Y-4.375
X2.3875Y-4.375
X9.0187Y-4.375
X9.4187Y-4.375
X8.6437Y-3.625
X9.0437Y-3.625
X10.2375Y-2.875
X10.6375Y-2.875
X1.7063Y-5.125
X2.1063Y-5.125
X10.5187Y-4.375
X10.9187Y-4.375
X7.8937Y-3.625
X8.2937Y-3.625
X6.3937Y-3.625
X6.7937Y-3.625
X3.0187Y-4.375
X3.4187Y-4.375
X3.2063Y-2.875
X3.6063Y-2.875
X1.8Y-3.625
X2.2Y-3.625
X3.7687Y-4.375
X4.1687Y-4.375
X7.5187Y-4.375
X7.9187Y-4.375
X6.9563Y-2.875
X7.3563Y-2.875
X6.7687Y-4.375
X7.1687Y-4.375
X5.6437Y-3.625
X6.0437Y-3.625
X8.0813Y-5.125
X8.4813Y-5.125
X5.175Y-5.125
X5.575Y-5.125
X2.4563Y-5.125
X2.8563Y-5.125
X9.3937Y-3.625
X9.7937Y-3.625
X5.4563Y-2.875
X5.8563Y-2.875
X3.9563Y-2.875
X4.3563Y-2.875
X6.0187Y-4.375
X6.4187Y-4.375
X6.7687Y-5.125
X7.1687Y-5.125
X10.3313Y-3.625
X10.7313Y-3.625
X9.2063Y-2.875
X9.6063Y-2.875
X2.6437Y-3.625
X3.0437Y-3.625
X9.7687Y-4.375
X10.1687Y-4.375
T2
X4.9062Y-5.4
X5.8438Y-5.4
X6.5Y-5.4
X7.4375Y-5.4
T3
X7.1563Y-2.875
X6.9687Y-4.375
X5.8437Y-3.625
X8.2813Y-5.125
X4.9062Y-4.8
X5.375Y-5.125
X5.8438Y-4.8
X2.6563Y-5.125
X9.5937Y-3.625
X5.6563Y-2.875
X4.1563Y-2.875
X6.2187Y-4.375
X6.5Y-4.8
X6.9687Y-5.125
X7.4375Y-4.8
X10.5313Y-3.625
X9.4063Y-2.875
X2.8437Y-3.625
X9.9687Y-4.375
X8.4687Y-4.375
X4.7187Y-4.375
X4.3437Y-3.625
X4.9063Y-2.875
X8.6563Y-2.875
X7.9063Y-2.875
X3.4063Y-5.125
X7.3437Y-3.625
X10.7187Y-5.125
X4.0625Y-5.125
X2.0Y-5.125
X9.9687Y-5.125
X9.2187Y-5.125
X4.1563Y-5.125
X5.4687Y-4.375
X6.4063Y-2.875
X10.4375Y-5.125
X3.0313Y-5.125
X9.2187Y-5.125
X5.0937Y-3.625
X1.9063Y-2.875
X3.5937Y-3.625
X2.6563Y-2.875
X8.1875Y-5.125
X2.1875Y-4.375
X9.2187Y-4.375
X8.8437Y-3.625
X10.4375Y-2.875
X1.9063Y-5.125
X10.7187Y-4.375
X8.0937Y-3.625
X6.5937Y-3.625
X3.2187Y-4.375
X3.4063Y-2.875
X2.0Y-3.625
X3.9687Y-4.375
X7.7187Y-4.375
T0
M30
